<svg width="25" height="24" viewBox="0 0 25 24" fill="none" xmlns="http://www.w3.org/2000/svg">
<path d="M12.0169 24C8.80705 24 5.78935 22.7518 3.51966 20.4853C1.24998 18.2188 0 15.2053 0 12C0 8.79468 1.24998 5.78122 3.51966 3.51472C5.78935 1.24822 8.80705 0 12.0169 0C15.2267 0 18.2444 1.24822 20.5141 3.51472C22.7838 5.78122 24.0338 8.79468 24.0338 12C24.0338 15.2053 22.7838 18.2188 20.5141 20.4853C18.2444 22.7518 15.2267 24 12.0169 24Z"/>
<path d="M4.11612 11.1161C3.62796 11.6043 3.62796 12.3957 4.11612 12.8839L12.0711 20.8388C12.5592 21.327 13.3507 21.327 13.8388 20.8388C14.327 20.3507 14.327 19.5592 13.8388 19.0711L6.76777 12L13.8388 4.92893C14.327 4.44078 14.327 3.64932 13.8388 3.16117C13.3507 2.67301 12.5592 2.67301 12.0711 3.16117L4.11612 11.1161ZM21 10.75L5 10.75V13.25L21 13.25V10.75Z" fill="#263941"/>
</svg>
