<svg width="23" height="26" viewBox="0 0 23 26" fill="none" xmlns="http://www.w3.org/2000/svg">
<path opacity="0.4" d="M7.59895 3.93761H15.4479V2.11011H7.59895V3.93761ZM5.81345 2.18516V2.19426C5.20074 2.24998 4.59461 2.37167 4.00493 2.55476V2.54793C3.96437 2.56499 3.9293 2.57295 3.89532 2.59001C3.84819 2.60138 3.80215 2.61844 3.75831 2.64005C3.62897 2.68213 3.49964 2.73216 3.37797 2.78334C3.31331 2.80836 3.24864 2.84133 3.18397 2.86635C3.09519 2.90843 2.99873 2.95847 2.90995 3.00055L2.69074 3.12678C2.62607 3.15975 2.56907 3.20183 2.5044 3.2405C2.17449 3.45316 1.86868 3.70221 1.59247 3.98537L1.57603 4.00243C1.47848 4.11615 1.38203 4.22077 1.29324 4.32995L1.2768 4.34587C0.380216 5.58316 -0.0691734 7.10816 0.00864777 8.65363V9.14377H1.7788V8.64908C1.7788 6.4952 2.46495 5.15443 3.99177 4.46755C4.57488 4.22077 5.19088 4.06839 5.81783 4.01266H5.83427V2.19312L5.81345 2.18516ZM21.7273 4.33904L21.7196 4.32312C21.6287 4.20827 21.5311 4.09909 21.4281 3.99561L21.4182 3.97855C21.1387 3.69766 20.8296 3.44747 20.4986 3.23367C20.4416 3.19956 20.389 3.15748 20.3211 3.11995C20.2531 3.08242 20.1753 3.0358 20.0942 2.99372C20.0153 2.95164 19.9166 2.90161 19.8202 2.85953C19.7643 2.83451 19.6985 2.80153 19.6272 2.77651C19.5034 2.72534 19.3839 2.6753 19.2557 2.63323C19.2074 2.6173 19.1669 2.60025 19.1187 2.58319C19.0704 2.56613 19.0441 2.55703 19.0091 2.54111V2.55021C18.4183 2.36712 17.8121 2.24657 17.1994 2.18971V4.00015C17.8187 4.05474 18.4259 4.20826 18.9992 4.45504C19.7193 4.75072 20.3156 5.29544 20.6882 5.9971C21.0763 6.81703 21.2593 7.72453 21.222 8.63657V9.14377H22.9911V8.64908C23.07 7.10361 22.6228 5.57747 21.7273 4.33904Z" fill="white"/>
<path d="M17.25 0.916096V4.94306C17.25 5.45044 16.8383 5.8614 16.33 5.8614C15.8217 5.8614 15.41 5.45044 15.41 4.94306V0.925279C15.4054 0.417892 15.8148 0.00348687 16.3231 2.13962e-05C16.8314 -0.00340074 17.2466 0.404116 17.25 0.911504V0.916096ZM7.59 0.930686V4.94769C7.59 5.45728 7.1778 5.87045 6.66943 5.87045C6.16105 5.87045 5.75 5.45728 5.75 4.94769V0.930686C5.75 0.4211 6.16105 0.0090702 6.66943 0.0090702C7.1778 0.0090702 7.59 0.4211 7.59 0.930686ZM23 9.14368V19.0519C23 23.3726 20.587 25.5556 15.805 25.5556H7.18407C2.41297 25.5556 0 23.3726 0 19.0519V9.14368H23ZM16.7592 18.2036C16.1669 18.2036 15.6953 18.6899 15.6953 19.2894C15.7062 19.8889 16.1779 20.3752 16.7592 20.3752C17.3405 20.3752 17.8121 19.8889 17.8121 19.2894C17.8121 18.6899 17.3405 18.2036 16.7592 18.2036ZM11.5055 18.1923C10.9132 18.2036 10.4416 18.6899 10.4416 19.2894C10.4416 19.8889 10.9242 20.3752 11.5055 20.3752C12.0868 20.3752 12.5584 19.8889 12.5584 19.2781C12.5474 18.6899 12.0868 18.2036 11.5055 18.1923ZM6.24082 18.1923C5.64855 18.1923 5.17692 18.6899 5.18789 19.2894C5.18789 19.8889 5.65951 20.3752 6.24082 20.3752C6.82213 20.3752 7.29375 19.8776 7.29375 19.2781C7.29375 18.6786 6.82213 18.1923 6.24082 18.1923ZM16.7592 13.5662C16.1669 13.5662 15.7062 14.0525 15.7062 14.652C15.7062 15.2515 16.1779 15.7378 16.7592 15.7378C17.3405 15.7378 17.8121 15.2515 17.8121 14.652C17.8121 14.0525 17.3405 13.5662 16.7592 13.5662ZM11.5055 13.5549C10.9132 13.5662 10.4416 14.0525 10.4416 14.652C10.4416 15.2515 10.9242 15.7378 11.5055 15.7378C12.0868 15.7378 12.5584 15.2515 12.5584 14.6407C12.5584 14.0525 12.0868 13.5662 11.5055 13.5549ZM6.25179 13.5549C5.65951 13.5549 5.18789 14.0525 5.18789 14.652C5.18789 15.2515 5.65951 15.7378 6.24082 15.7378C6.83309 15.7378 7.30472 15.2402 7.29375 14.6407C7.29375 14.0412 6.82213 13.5549 6.25179 13.5549Z" fill="white"/>
</svg>
