<svg width="20" height="23" viewBox="0 0 20 23" fill="none" xmlns="http://www.w3.org/2000/svg">
<path opacity="0.4" d="M6.60778 4.20156H13.433V2.61243H6.60778V4.20156ZM5.05517 2.67769V2.6856C4.52238 2.73406 3.99532 2.83987 3.48255 2.99908V2.99315C3.44728 3.00798 3.41678 3.0149 3.38723 3.02973C3.34625 3.03962 3.30622 3.05446 3.2681 3.07325C3.15563 3.10983 3.04316 3.15334 2.93737 3.19784C2.88114 3.2196 2.8249 3.24828 2.76867 3.27003C2.69147 3.30662 2.60759 3.35013 2.53039 3.38672L2.33977 3.49649C2.28354 3.52516 2.23398 3.56175 2.17774 3.59537C1.89086 3.78029 1.62494 3.99686 1.38476 4.24309L1.37046 4.25792C1.28564 4.35681 1.20176 4.44779 1.12456 4.54272L1.11026 4.55657C0.330623 5.63247 -0.0601507 6.95856 0.0075198 8.30245V8.72865H1.54679V8.29849C1.54679 6.42555 2.14343 5.25966 3.47111 4.66238C3.97816 4.44779 4.51381 4.31528 5.05898 4.26682H5.07328V2.68462L5.05517 2.67769ZM18.8933 4.55063L18.8867 4.53679C18.8075 4.43691 18.7227 4.34198 18.6331 4.25199L18.6245 4.23716C18.3815 3.9929 18.1127 3.77535 17.8249 3.58944C17.7753 3.55977 17.7296 3.52319 17.6705 3.49055C17.6114 3.45792 17.5437 3.41738 17.4732 3.38079C17.4046 3.3442 17.3188 3.30069 17.2349 3.2641C17.1863 3.24234 17.1291 3.21367 17.0672 3.19191C16.9595 3.14741 16.8556 3.1039 16.7441 3.06731C16.7021 3.05347 16.6669 3.03863 16.6249 3.0238C16.583 3.00897 16.5601 3.00106 16.5296 2.98721V2.99512C16.0159 2.83591 15.4888 2.73109 14.956 2.68165V4.25595C15.4945 4.30341 16.0226 4.43691 16.521 4.6515C17.1472 4.90861 17.6657 5.38228 17.9898 5.99242C18.3272 6.7054 18.4863 7.49453 18.4539 8.28761V8.72865H19.9923V8.29849C20.0609 6.9546 19.672 5.62752 18.8933 4.55063Z" fill="#1E9ED9"/>
<path d="M15 1.57444V5.07614C15 5.51735 14.642 5.87471 14.2 5.87471C13.758 5.87471 13.4 5.51735 13.4 5.07614V1.58242C13.396 1.14122 13.752 0.780864 14.194 0.777851C14.636 0.774875 14.997 1.12924 15 1.57044V1.57444ZM6.6 1.58712V5.08017C6.6 5.52329 6.24157 5.88257 5.7995 5.88257C5.35744 5.88257 5 5.52329 5 5.08017V1.58712C5 1.14401 5.35744 0.785719 5.7995 0.785719C6.24157 0.785719 6.6 1.14401 6.6 1.58712ZM20 8.72886V17.3447C20 21.1018 17.9018 23.0001 13.7434 23.0001H6.24702C2.09824 23.0001 0 21.1018 0 17.3447V8.72886H20ZM14.5732 16.607C14.0582 16.607 13.6481 17.03 13.6481 17.5512C13.6576 18.0725 14.0677 18.4954 14.5732 18.4954C15.0787 18.4954 15.4888 18.0725 15.4888 17.5512C15.4888 17.03 15.0787 16.607 14.5732 16.607ZM10.0048 16.5972C9.48975 16.607 9.07964 17.03 9.07964 17.5512C9.07964 18.0725 9.49928 18.4954 10.0048 18.4954C10.5103 18.4954 10.9204 18.0725 10.9204 17.5414C10.9108 17.03 10.5103 16.607 10.0048 16.5972ZM5.4268 16.5972C4.91178 16.5972 4.50167 17.03 4.51121 17.5512C4.51121 18.0725 4.92132 18.4954 5.4268 18.4954C5.93228 18.4954 6.34239 18.0627 6.34239 17.5414C6.34239 17.0201 5.93228 16.5972 5.4268 16.5972ZM14.5732 12.5745C14.0582 12.5745 13.6576 12.9974 13.6576 13.5187C13.6576 14.04 14.0677 14.4629 14.5732 14.4629C15.0787 14.4629 15.4888 14.04 15.4888 13.5187C15.4888 12.9974 15.0787 12.5745 14.5732 12.5745ZM10.0048 12.5647C9.48975 12.5745 9.07964 12.9974 9.07964 13.5187C9.07964 14.04 9.49928 14.4629 10.0048 14.4629C10.5103 14.4629 10.9204 14.04 10.9204 13.5089C10.9204 12.9974 10.5103 12.5745 10.0048 12.5647ZM5.43634 12.5647C4.92132 12.5647 4.51121 12.9974 4.51121 13.5187C4.51121 14.04 4.92132 14.4629 5.4268 14.4629C5.94182 14.4629 6.35193 14.0302 6.34239 13.5089C6.34239 12.9876 5.93228 12.5647 5.43634 12.5647Z" fill="#1E9ED9"/>
</svg>
