<svg width="19" height="18" viewBox="0 0 19 18" fill="none" xmlns="http://www.w3.org/2000/svg">
<path d="M5.78969 0H2.72969C2.05339 0 1.40478 0.263392 0.926565 0.732233C0.448347 1.20107 0.179688 1.83696 0.179688 2.5C0.179688 3.16304 0.448347 3.79893 0.926565 4.26777C1.40478 4.73661 2.05339 5 2.72969 5H5.78969C6.46599 5 7.11459 4.73661 7.59281 4.26777C8.07103 3.79893 8.33969 3.16304 8.33969 2.5C8.33969 1.83696 8.07103 1.20107 7.59281 0.732233C7.11459 0.263392 6.46599 0 5.78969 0ZM5.78969 4H2.72969C2.32391 4 1.93474 3.84196 1.64781 3.56066C1.36088 3.27936 1.19969 2.89782 1.19969 2.5C1.19969 2.10218 1.36088 1.72064 1.64781 1.43934C1.93474 1.15804 2.32391 1 2.72969 1H5.78969C6.19547 1 6.58463 1.15804 6.87156 1.43934C7.15849 1.72064 7.31969 2.10218 7.31969 2.5C7.31969 2.89782 7.15849 3.27936 6.87156 3.56066C6.58463 3.84196 6.19547 4 5.78969 4ZM5.78969 7H2.72969C2.05339 7 1.40478 7.26339 0.926565 7.73223C0.448347 8.20107 0.179688 8.83696 0.179688 9.5V15.5C0.179688 16.163 0.448347 16.7989 0.926565 17.2678C1.40478 17.7366 2.05339 18 2.72969 18H5.78969C6.46599 18 7.11459 17.7366 7.59281 17.2678C8.07103 16.7989 8.33969 16.163 8.33969 15.5V9.5C8.33969 8.83696 8.07103 8.20107 7.59281 7.73223C7.11459 7.26339 6.46599 7 5.78969 7ZM7.31969 15.5C7.31969 15.8978 7.15849 16.2794 6.87156 16.5607C6.58463 16.842 6.19547 17 5.78969 17H2.72969C2.32391 17 1.93474 16.842 1.64781 16.5607C1.36088 16.2794 1.19969 15.8978 1.19969 15.5V9.5C1.19969 9.10218 1.36088 8.72064 1.64781 8.43934C1.93474 8.15804 2.32391 8 2.72969 8H5.78969C6.19547 8 6.58463 8.15804 6.87156 8.43934C7.15849 8.72064 7.31969 9.10218 7.31969 9.5V15.5ZM15.9897 13H12.9297C12.2534 13 11.6048 13.2634 11.1266 13.7322C10.6483 14.2011 10.3797 14.837 10.3797 15.5C10.3797 16.163 10.6483 16.7989 11.1266 17.2678C11.6048 17.7366 12.2534 18 12.9297 18H15.9897C16.666 18 17.3146 17.7366 17.7928 17.2678C18.271 16.7989 18.5397 16.163 18.5397 15.5C18.5397 14.837 18.271 14.2011 17.7928 13.7322C17.3146 13.2634 16.666 13 15.9897 13ZM15.9897 17H12.9297C12.5239 17 12.1347 16.842 11.8478 16.5607C11.5609 16.2794 11.3997 15.8978 11.3997 15.5C11.3997 15.1022 11.5609 14.7206 11.8478 14.4393C12.1347 14.158 12.5239 14 12.9297 14H15.9897C16.3955 14 16.7846 14.158 17.0716 14.4393C17.3585 14.7206 17.5197 15.1022 17.5197 15.5C17.5197 15.8978 17.3585 16.2794 17.0716 16.5607C16.7846 16.842 16.3955 17 15.9897 17ZM15.9897 0H12.9297C12.2534 0 11.6048 0.263392 11.1266 0.732233C10.6483 1.20107 10.3797 1.83696 10.3797 2.5V8.5C10.3797 9.16304 10.6483 9.79893 11.1266 10.2678C11.6048 10.7366 12.2534 11 12.9297 11H15.9897C16.666 11 17.3146 10.7366 17.7928 10.2678C18.271 9.79893 18.5397 9.16304 18.5397 8.5V2.5C18.5397 1.83696 18.271 1.20107 17.7928 0.732233C17.3146 0.263392 16.666 0 15.9897 0ZM17.5197 8.5C17.5197 8.89782 17.3585 9.27936 17.0716 9.56066C16.7846 9.84196 16.3955 10 15.9897 10H12.9297C12.5239 10 12.1347 9.84196 11.8478 9.56066C11.5609 9.27936 11.3997 8.89782 11.3997 8.5V2.5C11.3997 2.10218 11.5609 1.72064 11.8478 1.43934C12.1347 1.15804 12.5239 1 12.9297 1H15.9897C16.3955 1 16.7846 1.15804 17.0716 1.43934C17.3585 1.72064 17.5197 2.10218 17.5197 2.5V8.5Z" fill="white"/>
</svg>
