<svg width="9" height="7" viewBox="0 0 9 7" fill="none" xmlns="http://www.w3.org/2000/svg">
<path d="M7.99557 0.768555C8.07826 0.769019 8.15914 0.792772 8.22895 0.837093C8.29875 0.881413 8.35466 0.944506 8.39025 1.01914C8.42585 1.09377 8.43969 1.17693 8.4302 1.25907C8.4207 1.34121 8.38826 1.41901 8.33657 1.48355L4.56157 6.20555C4.52035 6.25705 4.46808 6.29862 4.40862 6.32719C4.34916 6.35575 4.28404 6.37059 4.21807 6.37059C4.15211 6.37059 4.08699 6.35575 4.02753 6.32719C3.96807 6.29862 3.9158 6.25705 3.87457 6.20555L0.0965748 1.48355C0.0449457 1.41907 0.0125103 1.34136 0.00297832 1.25931C-0.00655365 1.17726 0.00720501 1.09418 0.0426779 1.01959C0.0781507 0.944988 0.133906 0.881882 0.203566 0.837488C0.273225 0.793094 0.353974 0.769205 0.436574 0.768555L7.99557 0.768555Z" fill="#4F4F4F"/>
</svg>
