<svg width="18" height="18" viewBox="0 0 18 18" fill="none" xmlns="http://www.w3.org/2000/svg">
<path d="M7.91667 17.6667C7.60973 17.6667 7.35244 17.5629 7.1448 17.3552C6.93716 17.1476 6.83334 16.8903 6.83334 16.5834V10.0834L0.550006 2.06671C0.279172 1.7056 0.238547 1.32643 0.428131 0.929207C0.617714 0.531985 0.947228 0.333374 1.41667 0.333374H16.5833C17.0528 0.333374 17.3823 0.531985 17.5719 0.929207C17.7615 1.32643 17.7208 1.7056 17.45 2.06671L11.1667 10.0834V16.5834C11.1667 16.8903 11.0629 17.1476 10.8552 17.3552C10.6476 17.5629 10.3903 17.6667 10.0833 17.6667H7.91667ZM9.00001 9.32504L14.3625 2.50004H3.63751L9.00001 9.32504Z" fill="#1E9ED9"/>
</svg>
