<svg width="20" height="21" viewBox="0 0 20 21" fill="none" xmlns="http://www.w3.org/2000/svg">
<path d="M12.5 0H2.5C1.125 0 0 1.14545 0 2.54545V18.4545C0 19.8545 1.125 21 2.5 21H17.5C18.875 21 20 19.8545 20 18.4545V5.72727L12.5 0ZM10 5.72727C11.375 5.72727 12.5 6.87273 12.5 8.27273C12.5 9.67273 11.375 10.8182 10 10.8182C8.625 10.8182 7.5 9.67273 7.5 8.27273C7.5 6.87273 8.625 5.72727 10 5.72727ZM15 15.9091H5V15.1836C5 14.1527 5.6 13.2364 6.525 12.8291C7.5875 12.3582 8.7625 12.0909 10 12.0909C11.2375 12.0909 12.4125 12.3582 13.475 12.8291C14.4 13.2364 15 14.1527 15 15.1836V15.9091Z" fill="#1E9ED9"/>
</svg>
