<?xml version="1.0" standalone="no"?>
<!DOCTYPE svg PUBLIC "-//W3C//DTD SVG 20010904//EN"
 "http://www.w3.org/TR/2001/REC-SVG-20010904/DTD/svg10.dtd">
<svg version="1.0" xmlns="http://www.w3.org/2000/svg"
 width="1280.000000pt" height="1280.000000pt" viewBox="0 0 1280.000000 1280.000000"
 preserveAspectRatio="xMidYMid meet">
<metadata>
Created by potrace 1.15, written by Peter Selinger 2001-2017
</metadata>
<g transform="translate(0.000000,1280.000000) scale(0.100000,-0.100000)"
fill="#9e9e9e" stroke="none">
<path d="M3610 12785 c-561 -50 -1022 -181 -1495 -424 -1056 -543 -1799 -1529
-2035 -2701 -54 -267 -62 -360 -68 -850 -4 -256 -5 -1549 -2 -2875 6 -2393 6
-2411 27 -2550 96 -632 287 -1138 619 -1640 610 -923 1598 -1547 2692 -1701
314 -44 310 -44 3052 -44 2744 0 2739 0 3050 44 409 59 793 177 1165 359 778
382 1400 1004 1782 1782 223 455 344 904 388 1445 22 261 22 5292 0 5545 -64
751 -296 1399 -709 1980 -370 522 -862 942 -1436 1229 -459 228 -909 352
-1455 401 -146 13 -536 15 -2800 14 -2046 -1 -2662 -4 -2775 -14z"/>
</g>
</svg>
