<svg width="9" height="10" viewBox="0 0 9 10" fill="none" xmlns="http://www.w3.org/2000/svg">
<mask id="mask0_3567_4888" style="mask-type:alpha" maskUnits="userSpaceOnUse" x="0" y="0" width="9" height="10">
<rect y="0.772705" width="9" height="9" fill="#D9D9D9"/>
</mask>
<g mask="url(#mask0_3567_4888)">
<path d="M4.49951 8.6477C3.63701 8.6477 2.88545 8.36177 2.24482 7.78989C1.6042 7.21802 1.23701 6.50395 1.14326 5.6477H1.91201C1.99951 6.2977 2.28857 6.8352 2.7792 7.2602C3.26982 7.6852 3.84326 7.8977 4.49951 7.8977C5.23076 7.8977 5.85107 7.64302 6.36045 7.13364C6.86982 6.62427 7.12451 6.00395 7.12451 5.2727C7.12451 4.54145 6.86982 3.92114 6.36045 3.41177C5.85107 2.90239 5.23076 2.6477 4.49951 2.6477C4.06826 2.6477 3.66514 2.7477 3.29014 2.9477C2.91514 3.1477 2.59951 3.4227 2.34326 3.7727H3.37451V4.5227H1.12451V2.27271H1.87451V3.15395C2.19326 2.75395 2.58232 2.44458 3.0417 2.22583C3.50107 2.00708 3.98701 1.89771 4.49951 1.89771C4.96826 1.89771 5.40732 1.98677 5.8167 2.16489C6.22607 2.34302 6.58232 2.58364 6.88545 2.88677C7.18857 3.18989 7.4292 3.54614 7.60732 3.95552C7.78545 4.36489 7.87451 4.80395 7.87451 5.2727C7.87451 5.74145 7.78545 6.18052 7.60732 6.58989C7.4292 6.99927 7.18857 7.35552 6.88545 7.65864C6.58232 7.96177 6.22607 8.20239 5.8167 8.38052C5.40732 8.55864 4.96826 8.6477 4.49951 8.6477ZM5.54951 6.8477L4.12451 5.4227V3.3977H4.87451V5.1227L6.07451 6.3227L5.54951 6.8477Z" fill="#6F6F6F"/>
</g>
</svg>
