<svg width="16" height="14" viewBox="0 0 16 14" fill="none" xmlns="http://www.w3.org/2000/svg">
<path d="M8.23399 13.728C6.13599 13.728 4.03799 13.728 1.93999 13.728C1.65935 13.7325 1.38539 13.6422 1.16251 13.4716C0.939633 13.3009 0.780886 13.0601 0.711991 12.788C0.666626 12.6067 0.658838 12.4181 0.689106 12.2338C0.719375 12.0494 0.787058 11.8732 0.887991 11.716C1.94466 9.89732 2.99732 8.07632 4.04599 6.25299C5.06066 4.49299 6.07732 2.73265 7.09599 0.971987C7.1879 0.790715 7.32201 0.63417 7.48702 0.515525C7.65204 0.396879 7.84314 0.319605 8.04425 0.290204C8.24535 0.260803 8.45057 0.280135 8.64265 0.346573C8.83473 0.413012 9.00803 0.524614 9.14799 0.671987C9.23854 0.770346 9.31709 0.879107 9.38199 0.995987C11.4553 4.58199 13.527 8.16932 15.597 11.758C15.7282 11.9564 15.8012 12.1876 15.8079 12.4253C15.8145 12.6631 15.7545 12.898 15.6347 13.1035C15.5148 13.3089 15.3399 13.4768 15.1297 13.588C14.9194 13.6993 14.6823 13.7495 14.445 13.733C12.375 13.733 10.305 13.733 8.23499 13.733L8.23399 13.728ZM7.39599 6.72799C7.39599 7.14299 7.39599 7.55899 7.39599 7.97399C7.39114 8.19194 7.39915 8.40998 7.41999 8.62699C7.44941 8.81303 7.54839 8.98095 7.6969 9.09679C7.84542 9.21263 8.03239 9.26775 8.21999 9.25099C8.66399 9.25099 9.02999 9.01399 9.03799 8.62499C9.06099 7.37299 9.05699 6.12499 9.03799 4.86799C9.03309 4.72356 8.97748 4.58548 8.88093 4.47796C8.78439 4.37044 8.65306 4.30035 8.50999 4.27999C7.84799 4.14499 7.38599 4.42699 7.38999 5.12299C7.38999 5.65799 7.38999 6.19299 7.38999 6.72799M8.21799 12.018C8.32707 12.0202 8.43551 12.0008 8.537 11.9608C8.6385 11.9207 8.73102 11.8609 8.80918 11.7848C8.88735 11.7087 8.9496 11.6178 8.99231 11.5174C9.03502 11.417 9.05735 11.3091 9.05799 11.2C9.06064 10.9799 8.97574 10.7677 8.82196 10.6102C8.66818 10.4526 8.45812 10.3626 8.23799 10.36C8.01786 10.3573 7.80569 10.4422 7.64816 10.596C7.49063 10.7498 7.40064 10.9599 7.39799 11.18C7.39614 11.289 7.41595 11.3974 7.45628 11.4987C7.49661 11.6 7.55665 11.6923 7.63293 11.7703C7.7092 11.8482 7.80019 11.9103 7.90063 11.9528C8.00106 11.9953 8.10893 12.0175 8.21799 12.018Z" fill="white"/>
</svg>
