<svg width="20" height="21" viewBox="0 0 20 21" fill="none" xmlns="http://www.w3.org/2000/svg">
<g id="description">
<mask id="mask0_3703_3772" style="mask-type:alpha" maskUnits="userSpaceOnUse" x="0" y="0" width="20" height="21">
<rect id="Bounding box" y="0.925781" width="20" height="19.4958" fill="#D9D9D9"/>
</mask>
<g mask="url(#mask0_3703_3772)">
<path id="description_2" d="M6.66671 15.546H13.3334V13.9214H6.66671V15.546ZM6.66671 12.2967H13.3334V10.6721H6.66671V12.2967ZM5.00004 18.7953C4.54171 18.7953 4.14935 18.6362 3.82296 18.3181C3.49657 17.9999 3.33337 17.6175 3.33337 17.1707V4.17348C3.33337 3.7267 3.49657 3.34423 3.82296 3.02607C4.14935 2.70791 4.54171 2.54883 5.00004 2.54883H11.6667L16.6667 7.42278V17.1707C16.6667 17.6175 16.5035 17.9999 16.1771 18.3181C15.8507 18.6362 15.4584 18.7953 15 18.7953H5.00004ZM10.8334 8.2351V4.17348H5.00004V17.1707H15V8.2351H10.8334Z" fill="#1E9ED9"/>
</g>
</g>
</svg>
