<svg width="12" height="15" viewBox="0 0 12 15" fill="none" xmlns="http://www.w3.org/2000/svg">
  <path
    d="M8.963 8.15211C9.23274 8.15 9.50025 8.20104 9.75026 8.30232C10.0003 8.4036 10.2279 8.55313 10.4201 8.74238C10.6123 8.93162 10.7654 9.15688 10.8705 9.40528C10.9757 9.65369 11.0309 9.92037 11.033 10.1901V11.2081C11.175 13.7081 9.223 14.9481 5.604 14.9481C1.985 14.9481 0 13.7201 0 11.2431V10.1911C0.00196227 9.92128 0.0570692 9.65449 0.162172 9.40598C0.267275 9.15746 0.420315 8.93208 0.612547 8.74273C0.804779 8.55338 1.03244 8.40376 1.28251 8.30241C1.53259 8.20107 1.80018 8.15 2.07 8.15211H8.963ZM5.519 0.000107123C5.9689 -0.00345164 6.41509 0.081692 6.83207 0.250671C7.24904 0.419649 7.62863 0.66915 7.94913 0.98491C8.26962 1.30067 8.52475 1.6765 8.69992 2.09091C8.87508 2.50533 8.96686 2.9502 8.97 3.40011C8.96686 3.84993 8.87512 4.29472 8.70001 4.70907C8.52491 5.12342 8.26987 5.4992 7.94948 5.81495C7.62909 6.1307 7.24962 6.38022 6.83276 6.54925C6.4159 6.71829 5.96982 6.80353 5.52 6.80011C5.07018 6.80353 4.6241 6.71829 4.20724 6.54925C3.79038 6.38022 3.41091 6.1307 3.09052 5.81495C2.77013 5.4992 2.51509 5.12342 2.33999 4.70907C2.16488 4.29472 2.07314 3.84993 2.07 3.40011C2.07314 2.95037 2.16485 2.50566 2.33989 2.09138C2.51494 1.6771 2.76988 1.30136 3.09017 0.985623C3.41045 0.669888 3.7898 0.420345 4.20655 0.251248C4.62329 0.0821505 5.06927 -0.00318761 5.519 0.000107123Z"
    fill="#C1EDF7" />
</svg>