<svg width="16" height="15" viewBox="0 0 16 15" fill="none" xmlns="http://www.w3.org/2000/svg">
<path d="M0.25 13.75V12.25H1.75V0.25H9.25V1H12.25V5.5H10.75V2.5H9.25V7H7.75V1.75H3.25V12.25H7V13.75H0.25ZM10.75 14.5L10.525 13.375C10.375 13.3125 10.2344 13.2438 10.1031 13.1688C9.97188 13.0938 9.84375 13.0063 9.71875 12.9062L8.63125 13.2812L7.88125 11.9875L8.725 11.2375C8.7 11.05 8.6875 10.8906 8.6875 10.7594C8.6875 10.6281 8.7 10.4688 8.725 10.2812L7.88125 9.53125L8.63125 8.2375L9.71875 8.6125C9.84375 8.5125 9.97188 8.42188 10.1031 8.34063C10.2344 8.25938 10.375 8.1875 10.525 8.125L10.75 7H12.25L12.475 8.125C12.625 8.1875 12.7656 8.25625 12.8969 8.33125C13.0281 8.40625 13.1562 8.49375 13.2812 8.59375L14.3688 8.21875L15.1188 9.5125L14.275 10.2625C14.3 10.45 14.3125 10.6094 14.3125 10.7406C14.3125 10.8719 14.3 11.0312 14.275 11.2188L15.1188 11.9688L14.3688 13.2625L13.2812 12.9062C13.1562 13.0063 13.0281 13.0938 12.8969 13.1688C12.7656 13.2438 12.625 13.3125 12.475 13.375L12.25 14.5H10.75ZM11.5 12.25C11.9125 12.25 12.2656 12.1031 12.5594 11.8094C12.8531 11.5156 13 11.1625 13 10.75C13 10.3375 12.8531 9.98438 12.5594 9.69063C12.2656 9.39688 11.9125 9.25 11.5 9.25C11.0875 9.25 10.7344 9.39688 10.4406 9.69063C10.1469 9.98438 10 10.3375 10 10.75C10 11.1625 10.1469 11.5156 10.4406 11.8094C10.7344 12.1031 11.0875 12.25 11.5 12.25ZM6.25 7.75C6.0375 7.75 5.85938 7.67813 5.71562 7.53438C5.57188 7.39063 5.5 7.2125 5.5 7C5.5 6.7875 5.57188 6.60938 5.71562 6.46563C5.85938 6.32188 6.0375 6.25 6.25 6.25C6.4625 6.25 6.64063 6.32188 6.78438 6.46563C6.92813 6.60938 7 6.7875 7 7C7 7.2125 6.92813 7.39063 6.78438 7.53438C6.64063 7.67813 6.4625 7.75 6.25 7.75Z" fill="white"/>
</svg>
