<svg width="32" height="32" viewBox="0 0 32 32" fill="none" xmlns="http://www.w3.org/2000/svg">
<g id="icon pago proveedor">
<path id="Img Pic" d="M32 16C32 7.16344 24.8366 0 16 0C7.16344 0 0 7.16344 0 16C0 24.8366 7.16344 32 16 32C24.8366 32 32 24.8366 32 16Z" fill="#FFB900" fill-opacity="0.7"/>
<g id="package_2">
<mask id="mask0_4588_7859" style="mask-type:alpha" maskUnits="userSpaceOnUse" x="6" y="6" width="20" height="20">
<rect id="Bounding box" x="6.06079" y="6.06055" width="19.914" height="19.914" fill="#D9D9D9"/>
</mask>
<g mask="url(#mask0_4588_7859)">
<path id="package_2_2" d="M15.188 22.1791V16.4953L10.2095 13.6119V19.2957L15.188 22.1791ZM16.8475 22.1791L21.826 19.2957V13.6119L16.8475 16.4953V22.1791ZM15.188 24.0875L9.3798 20.7478C9.11704 20.5956 8.91306 20.3951 8.76786 20.1462C8.62265 19.8973 8.55005 19.6207 8.55005 19.3164V12.7199C8.55005 12.4157 8.62265 12.1391 8.76786 11.8902C8.91306 11.6413 9.11704 11.4407 9.3798 11.2886L15.188 7.94888C15.4508 7.79676 15.7274 7.7207 16.0178 7.7207C16.3082 7.7207 16.5848 7.79676 16.8475 7.94888L22.6558 11.2886C22.9185 11.4407 23.1225 11.6413 23.2677 11.8902C23.4129 12.1391 23.4855 12.4157 23.4855 12.7199V19.3164C23.4855 19.6207 23.4129 19.8973 23.2677 20.1462C23.1225 20.3951 22.9185 20.5956 22.6558 20.7478L16.8475 24.0875C16.5848 24.2396 16.3082 24.3157 16.0178 24.3157C15.7274 24.3157 15.4508 24.2396 15.188 24.0875ZM19.3368 13.1348L20.934 12.2221L16.0178 9.3802L14.3998 10.3137L19.3368 13.1348ZM16.0178 15.064L17.6358 14.1305L12.7195 11.2886L11.1015 12.2221L16.0178 15.064Z" fill="white"/>
</g>
</g>
</g>
</svg>
