<svg width="15" height="11" viewBox="0 0 15 11" fill="none" xmlns="http://www.w3.org/2000/svg">
<path d="M7.22042 0C2.6875 0 0 5.375 0 5.375C0 5.375 2.6875 10.75 7.22042 10.75C11.6458 10.75 14.3333 5.375 14.3333 5.375C14.3333 5.375 11.6458 0 7.22042 0ZM7.16667 1.79167C9.15542 1.79167 10.75 3.40417 10.75 5.375C10.75 7.36375 9.15542 8.95833 7.16667 8.95833C5.19583 8.95833 3.58333 7.36375 3.58333 5.375C3.58333 3.40417 5.19583 1.79167 7.16667 1.79167ZM7.16667 3.58333C6.18125 3.58333 5.375 4.38958 5.375 5.375C5.375 6.36042 6.18125 7.16667 7.16667 7.16667C8.15208 7.16667 8.95833 6.36042 8.95833 5.375C8.95833 5.19583 8.88667 5.03458 8.85083 4.87333C8.7075 5.16 8.42083 5.375 8.0625 5.375C7.56083 5.375 7.16667 4.98083 7.16667 4.47917C7.16667 4.12083 7.38167 3.83417 7.66833 3.69083C7.50708 3.63708 7.34583 3.58333 7.16667 3.58333Z" fill="#263941"/>
</svg>
