<svg width="88" height="88" viewBox="0 0 88 88" fill="none" xmlns="http://www.w3.org/2000/svg">
<g id="edit_note">
<mask id="mask0_2766_6023" style="mask-type:alpha" maskUnits="userSpaceOnUse" x="0" y="0" width="88" height="88">
<rect id="Bounding box" width="87.3027" height="87.3027" fill="#D9D9D9"/>
</mask>
<g mask="url(#mask0_2766_6023)">
<path id="edit_note_2" d="M43.6514 76.3904V68.6605L62.9307 49.3811L70.6607 57.111L51.3813 76.3904H43.6514ZM10.9128 58.2023V50.9271H36.3761V58.2023H10.9128ZM73.207 54.5647L65.4771 46.8348L68.1143 44.1975C68.7812 43.5306 69.63 43.1972 70.6607 43.1972C71.6913 43.1972 72.5401 43.5306 73.207 44.1975L75.8443 46.8348C76.5111 47.5017 76.8446 48.3504 76.8446 49.3811C76.8446 50.4118 76.5111 51.2605 75.8443 51.9274L73.207 54.5647ZM10.9128 43.6519V36.3766H50.9266V43.6519H10.9128ZM10.9128 29.1014V21.8262H50.9266V29.1014H10.9128Z" fill="#51B2DD"/>
</g>
</g>
</svg>
