<svg width="32" height="32" viewBox="0 0 32 32" fill="none" xmlns="http://www.w3.org/2000/svg">
<path d="M32 16C32 7.16344 24.8366 0 16 0C7.16344 0 0 7.16344 0 16C0 24.8366 7.16344 32 16 32C24.8366 32 32 24.8366 32 16Z" fill="#0A8E0A" fill-opacity="0.6"/>
<path d="M19.5662 8.5H12.4338C11.5646 8.5 11.13 8.5 10.7795 8.62196C10.1149 8.85322 9.59311 9.39039 9.36846 10.0746C9.25 10.4354 9.25 10.8828 9.25 11.7775V22.2807C9.25 22.9243 9.98875 23.2658 10.4561 22.8382C10.7306 22.5869 11.1444 22.5869 11.4189 22.8382L11.7812 23.1698C12.2624 23.6101 12.9876 23.6101 13.4688 23.1698C13.9499 22.7294 14.675 22.7294 15.1562 23.1698C15.6375 23.6101 16.3625 23.6101 16.8438 23.1698C17.325 22.7294 18.05 22.7294 18.5312 23.1698C19.0125 23.6101 19.7375 23.6101 20.2188 23.1698L20.5811 22.8382C20.8557 22.5869 21.2693 22.5869 21.5439 22.8382C22.0112 23.2658 22.75 22.9243 22.75 22.2807V11.7775C22.75 10.8828 22.75 10.4354 22.6315 10.0746C22.4069 9.39039 21.8851 8.85322 21.2204 8.62196C20.87 8.5 20.4354 8.5 19.5662 8.5Z" stroke="white" stroke-width="1.5"/>
<path d="M14.125 14.8L15.1965 16L17.875 13" stroke="white" stroke-width="1.5" stroke-linecap="round" stroke-linejoin="round"/>
<path d="M12.625 18.6328H16H19.375" stroke="white" stroke-width="1.5" stroke-linecap="round"/>
</svg>
