<svg width="11" height="11" viewBox="0 0 11 11" fill="none" xmlns="http://www.w3.org/2000/svg">
<path d="M7.9126 5.50005L3.4126 1.00005H9.9751C10.1668 1.00005 10.3147 1.0813 10.4188 1.2438C10.523 1.4063 10.5251 1.58338 10.4251 1.77505L8.6501 4.97505C8.55843 5.14172 8.43968 5.27088 8.29385 5.36255C8.14801 5.45422 8.02093 5.50005 7.9126 5.50005ZM3.5001 10C3.2251 10 2.98968 9.90213 2.79385 9.7063C2.59801 9.51047 2.5001 9.27505 2.5001 9.00005C2.5001 8.72505 2.59801 8.48963 2.79385 8.2938C2.98968 8.09797 3.2251 8.00005 3.5001 8.00005C3.7751 8.00005 4.01051 8.09797 4.20635 8.2938C4.40218 8.48963 4.5001 8.72505 4.5001 9.00005C4.5001 9.27505 4.40218 9.51047 4.20635 9.7063C4.01051 9.90213 3.7751 10 3.5001 10ZM10.2501 10.65L7.0751 7.50005H3.8001C3.43343 7.50005 3.15426 7.3438 2.9626 7.0313C2.77093 6.7188 2.75843 6.39172 2.9251 6.05005L3.4501 4.97505L2.5501 2.95005L0.350098 0.750049L1.0501 0.0500488L10.9501 9.95005L10.2501 10.65ZM6.0751 6.50005L5.0751 5.50005H4.3001L3.8001 6.50005H6.0751ZM8.5001 10C8.2251 10 7.98968 9.90213 7.79385 9.7063C7.59801 9.51047 7.5001 9.27505 7.5001 9.00005C7.5001 8.72505 7.59801 8.48963 7.79385 8.2938C7.98968 8.09797 8.2251 8.00005 8.5001 8.00005C8.7751 8.00005 9.01051 8.09797 9.20635 8.2938C9.40218 8.48963 9.5001 8.72505 9.5001 9.00005C9.5001 9.27505 9.40218 9.51047 9.20635 9.7063C9.01051 9.90213 8.7751 10 8.5001 10Z" fill="#1E9ED9"/>
</svg>
