<svg width="50" height="50" viewBox="0 0 50 50" fill="none" xmlns="http://www.w3.org/2000/svg">
<mask id="mask0_7600_7001" style="mask-type:alpha" maskUnits="userSpaceOnUse" x="0" y="0" width="50" height="50">
<rect width="50" height="50" fill="#D9D9D9"/>
</mask>
<g mask="url(#mask0_7600_7001)">
<path d="M25.0003 36.4583C27.6045 36.4583 29.818 35.5469 31.641 33.724C33.4639 31.901 34.3753 29.6875 34.3753 27.0833C34.3753 24.4792 33.4639 22.2656 31.641 20.4427C29.818 18.6198 27.6045 17.7083 25.0003 17.7083C22.3962 17.7083 20.1826 18.6198 18.3597 20.4427C16.5368 22.2656 15.6253 24.4792 15.6253 27.0833C15.6253 29.6875 16.5368 31.901 18.3597 33.724C20.1826 35.5469 22.3962 36.4583 25.0003 36.4583ZM25.0003 32.2917C23.542 32.2917 22.3094 31.7882 21.3024 30.7812C20.2955 29.7743 19.792 28.5417 19.792 27.0833C19.792 25.625 20.2955 24.3924 21.3024 23.3854C22.3094 22.3785 23.542 21.875 25.0003 21.875C26.4587 21.875 27.6913 22.3785 28.6982 23.3854C29.7052 24.3924 30.2087 25.625 30.2087 27.0833C30.2087 28.5417 29.7052 29.7743 28.6982 30.7812C27.6913 31.7882 26.4587 32.2917 25.0003 32.2917ZM8.33366 43.75C7.18783 43.75 6.20692 43.342 5.39095 42.526C4.57498 41.7101 4.16699 40.7292 4.16699 39.5833V14.5833C4.16699 13.4375 4.57498 12.4566 5.39095 11.6406C6.20692 10.8247 7.18783 10.4167 8.33366 10.4167H14.8962L17.5003 7.60417C17.8823 7.1875 18.3423 6.85764 18.8805 6.61458C19.4187 6.37153 19.983 6.25 20.5732 6.25H29.4274C30.0177 6.25 30.5819 6.37153 31.1201 6.61458C31.6583 6.85764 32.1184 7.1875 32.5003 7.60417L35.1045 10.4167H41.667C42.8128 10.4167 43.7937 10.8247 44.6097 11.6406C45.4257 12.4566 45.8337 13.4375 45.8337 14.5833V39.5833C45.8337 40.7292 45.4257 41.7101 44.6097 42.526C43.7937 43.342 42.8128 43.75 41.667 43.75H8.33366ZM8.33366 39.5833H41.667V14.5833H33.2295L29.4274 10.4167H20.5732L16.7712 14.5833H8.33366V39.5833Z" fill="#1E9ED9"/>
</g>
</svg>
