<svg width="15" height="13" viewBox="0 0 15 13" fill="none" xmlns="http://www.w3.org/2000/svg">
<path d="M12.4688 8.96875L11.5 8C11.9583 7.57292 12.3177 7.06771 12.5781 6.48438C12.8385 5.90104 12.9688 5.28125 12.9688 4.625C12.9688 3.96875 12.8385 3.35417 12.5781 2.78125C12.3177 2.20833 11.9583 1.70833 11.5 1.28125L12.4688 0.28125C13.0521 0.833333 13.5156 1.48438 13.8594 2.23438C14.2031 2.98438 14.375 3.78125 14.375 4.625C14.375 5.46875 14.2031 6.26563 13.8594 7.01563C13.5156 7.76563 13.0521 8.41667 12.4688 8.96875ZM10.4688 6.96875L9.46875 5.96875C9.65625 5.79167 9.80729 5.59115 9.92188 5.36719C10.0365 5.14323 10.0938 4.89583 10.0938 4.625C10.0938 4.35417 10.0365 4.10677 9.92188 3.88281C9.80729 3.65885 9.65625 3.45833 9.46875 3.28125L10.4688 2.28125C10.8021 2.58333 11.0625 2.9349 11.25 3.33594C11.4375 3.73698 11.5312 4.16667 11.5312 4.625C11.5312 5.08333 11.4375 5.51302 11.25 5.91406C11.0625 6.3151 10.8021 6.66667 10.4688 6.96875ZM5.625 7.125C4.9375 7.125 4.34896 6.88021 3.85938 6.39063C3.36979 5.90104 3.125 5.3125 3.125 4.625C3.125 3.9375 3.36979 3.34896 3.85938 2.85938C4.34896 2.36979 4.9375 2.125 5.625 2.125C6.3125 2.125 6.90104 2.36979 7.39062 2.85938C7.88021 3.34896 8.125 3.9375 8.125 4.625C8.125 5.3125 7.88021 5.90104 7.39062 6.39063C6.90104 6.88021 6.3125 7.125 5.625 7.125ZM0.625 12.125V10.375C0.625 10.0312 0.713542 9.70833 0.890625 9.40625C1.06771 9.10417 1.3125 8.875 1.625 8.71875C2.15625 8.44792 2.75521 8.21875 3.42188 8.03125C4.08854 7.84375 4.82292 7.75 5.625 7.75C6.42708 7.75 7.16146 7.84375 7.82813 8.03125C8.49479 8.21875 9.09375 8.44792 9.625 8.71875C9.9375 8.875 10.1823 9.10417 10.3594 9.40625C10.5365 9.70833 10.625 10.0312 10.625 10.375V12.125H0.625ZM1.875 10.875H9.375V10.375C9.375 10.2604 9.34635 10.1562 9.28906 10.0625C9.23177 9.96875 9.15625 9.89583 9.0625 9.84375C8.6875 9.65625 8.20573 9.46875 7.61719 9.28125C7.02865 9.09375 6.36458 9 5.625 9C4.88542 9 4.22135 9.09375 3.63281 9.28125C3.04427 9.46875 2.5625 9.65625 2.1875 9.84375C2.09375 9.89583 2.01823 9.96875 1.96094 10.0625C1.90365 10.1562 1.875 10.2604 1.875 10.375V10.875ZM5.625 5.875C5.96875 5.875 6.26302 5.7526 6.50781 5.50781C6.7526 5.26302 6.875 4.96875 6.875 4.625C6.875 4.28125 6.7526 3.98698 6.50781 3.74219C6.26302 3.4974 5.96875 3.375 5.625 3.375C5.28125 3.375 4.98698 3.4974 4.74219 3.74219C4.4974 3.98698 4.375 4.28125 4.375 4.625C4.375 4.96875 4.4974 5.26302 4.74219 5.50781C4.98698 5.7526 5.28125 5.875 5.625 5.875Z" fill="#1E9ED9"/>
</svg>
