<svg width="18" height="18" viewBox="0 0 18 18" fill="none" xmlns="http://www.w3.org/2000/svg">
<path d="M6.49984 9.4165H7.33317V7.74984H8.1665C8.40261 7.74984 8.60053 7.66998 8.76025 7.51025C8.91998 7.35053 8.99984 7.15262 8.99984 6.9165V6.08317C8.99984 5.84706 8.91998 5.64914 8.76025 5.48942C8.60053 5.3297 8.40261 5.24984 8.1665 5.24984H6.49984V9.4165ZM7.33317 6.9165V6.08317H8.1665V6.9165H7.33317ZM9.83317 9.4165H11.4998C11.7359 9.4165 11.9339 9.33664 12.0936 9.17692C12.2533 9.0172 12.3332 8.81928 12.3332 8.58317V6.08317C12.3332 5.84706 12.2533 5.64914 12.0936 5.48942C11.9339 5.3297 11.7359 5.24984 11.4998 5.24984H9.83317V9.4165ZM10.6665 8.58317V6.08317H11.4998V8.58317H10.6665ZM13.1665 9.4165H13.9998V7.74984H14.8332V6.9165H13.9998V6.08317H14.8332V5.24984H13.1665V9.4165ZM5.6665 13.9998C5.20817 13.9998 4.81581 13.8366 4.48942 13.5103C4.16303 13.1839 3.99984 12.7915 3.99984 12.3332V2.33317C3.99984 1.87484 4.16303 1.48248 4.48942 1.15609C4.81581 0.829698 5.20817 0.666504 5.6665 0.666504H15.6665C16.1248 0.666504 16.5172 0.829698 16.8436 1.15609C17.17 1.48248 17.3332 1.87484 17.3332 2.33317V12.3332C17.3332 12.7915 17.17 13.1839 16.8436 13.5103C16.5172 13.8366 16.1248 13.9998 15.6665 13.9998H5.6665ZM5.6665 12.3332H15.6665V2.33317H5.6665V12.3332ZM2.33317 17.3332C1.87484 17.3332 1.48248 17.17 1.15609 16.8436C0.829698 16.5172 0.666504 16.1248 0.666504 15.6665V3.99984H2.33317V15.6665H13.9998V17.3332H2.33317Z" fill="#263941"/>
</svg>
