<svg id="icon-noches" width="9" height="9" viewBox="0 0 9 9" fill="none" xmlns="http://www.w3.org/2000/svg">
  <path
    d="M4.53933 9C3.91011 9 3.32022 8.88 2.76966 8.64C2.2191 8.4 1.7397 8.07563 1.33146 7.66687C0.923221 7.25812 0.599251 6.77813 0.359551 6.22688C0.11985 5.67563 0 5.085 0 4.455C0 3.36 0.348315 2.39438 1.04494 1.55813C1.74157 0.721875 2.62921 0.2025 3.70787 0C3.57303 0.7425 3.61423 1.46812 3.83146 2.17687C4.04869 2.88562 4.42322 3.50625 4.95506 4.03875C5.48689 4.57125 6.10674 4.94625 6.81461 5.16375C7.52247 5.38125 8.24719 5.4225 8.98876 5.2875C8.79401 6.3675 8.27715 7.25625 7.4382 7.95375C6.59925 8.65125 5.63296 9 4.53933 9ZM7.20225 3.6L6.64045 2.3625L5.40449 1.8L6.64045 1.2375L7.20225 0L7.76404 1.2375L9 1.8L7.76404 2.3625L7.20225 3.6Z"
    fill="#1E9ED9" />
</svg>