<svg xmlns="http://www.w3.org/2000/svg" width="11.209" height="9.968" viewBox="0 0 11.209 9.968">
  <g id="Grupo_7162" data-name="Grupo 7162" transform="translate(-1171.791 -171.154)">
    <path id="Trazado_4913" data-name="Trazado 4913" d="M5.6,9.967q-2.331,0-4.663,0a.923.923,0,0,1-.91-.7,1.014,1.014,0,0,1,.131-.794Q1.337,6.456,2.5,4.43,3.632,2.475,4.762.519A.94.94,0,0,1,6.282.293a1.251,1.251,0,0,1,.173.24q2.3,3.985,4.6,7.972A.945.945,0,0,1,10.2,9.967q-2.3,0-4.6,0ZM4.984,4.782c0,.308,0,.615,0,.923A4.1,4.1,0,0,0,5,6.189a.55.55,0,0,0,.6.462c.329,0,.6-.176.606-.463.017-.927.014-1.855,0-2.783a.455.455,0,0,0-.391-.436c-.49-.1-.833.109-.83.624,0,.4,0,.793,0,1.189M5.6,8.7A.61.61,0,0,0,6.219,8.1.615.615,0,1,0,4.989,8.08.61.61,0,0,0,5.6,8.7" transform="translate(1171.791 171.154)" fill="#ff4e00"/>
    <path id="Trazado_4914" data-name="Trazado 4914" d="M119.112,72.236c0-.4,0-.793,0-1.189,0-.515.34-.725.83-.624a.455.455,0,0,1,.391.436c.014.927.016,1.855,0,2.783-.005.288-.277.466-.606.463a.55.55,0,0,1-.6-.462,4.11,4.11,0,0,1-.018-.484c0-.308,0-.615,0-.923" transform="translate(1057.662 103.7)" fill="#fff"/>
    <path id="Trazado_4915" data-name="Trazado 4915" d="M119.872,179.779a.61.61,0,0,1-.607-.621.615.615,0,1,1,1.229.015.61.61,0,0,1-.622.606" transform="translate(1057.516 0.076)" fill="#fff"/>
  </g>
</svg>
