<svg width="13" height="17" viewBox="0 0 13 17" fill="none" xmlns="http://www.w3.org/2000/svg">
<path id="Trazado 11191" d="M10.554 9.27113C10.8716 9.26873 11.1866 9.32678 11.481 9.44196C11.7754 9.55714 12.0434 9.7272 12.2698 9.94242C12.4961 10.1576 12.6764 10.4138 12.8002 10.6963C12.924 10.9788 12.989 11.2821 12.9915 11.5889V12.7466C13.1587 15.5898 10.8602 17 6.59877 17C2.33736 17 0 15.6034 0 12.7864V11.59C0.0023106 11.2832 0.0671996 10.9797 0.19096 10.6971C0.31472 10.4145 0.494925 10.1582 0.72128 9.94283C0.947636 9.72748 1.2157 9.55732 1.51017 9.44207C1.80464 9.32682 2.11973 9.26873 2.43745 9.27113H10.554ZM6.49868 0.000121828C7.02844 -0.00392544 7.55384 0.0929057 8.04483 0.28508C8.53583 0.477254 8.98279 0.761002 9.36018 1.12011C9.73757 1.47921 10.038 1.90663 10.2442 2.37793C10.4505 2.84923 10.5586 3.35517 10.5623 3.86683C10.5586 4.3784 10.4505 4.88424 10.2444 5.35547C10.0382 5.8267 9.73786 6.25406 9.3606 6.61315C8.98333 6.97224 8.53651 7.25601 8.04565 7.44826C7.55479 7.6405 7.02952 7.73744 6.49986 7.73354C5.97019 7.73744 5.44493 7.6405 4.95407 7.44826C4.46321 7.25601 4.01638 6.97224 3.63912 6.61315C3.26186 6.25406 2.96155 5.8267 2.75536 5.35547C2.54917 4.88424 2.44114 4.3784 2.43745 3.86683C2.44114 3.35536 2.54914 2.84961 2.75525 2.37846C2.96136 1.90731 3.26156 1.47999 3.6387 1.12092C4.01584 0.761842 4.46253 0.478045 4.95325 0.285736C5.44397 0.0934272 5.96912 -0.00362517 6.49868 0.000121828Z" fill="#C4C4C4"/>
</svg>
