<svg width="18" height="19" viewBox="0 0 18 19" fill="none" xmlns="http://www.w3.org/2000/svg">
<path d="M2.16667 17.3332C1.70833 17.3332 1.31597 17.17 0.989583 16.8436C0.663194 16.5172 0.5 16.1248 0.5 15.6665V3.99984C0.5 3.5415 0.663194 3.14914 0.989583 2.82275C1.31597 2.49637 1.70833 2.33317 2.16667 2.33317H3V0.666504H4.66667V2.33317H11.3333V0.666504H13V2.33317H13.8333C14.2917 2.33317 14.684 2.49637 15.0104 2.82275C15.3368 3.14914 15.5 3.5415 15.5 3.99984V8.99984H13.8333V7.33317H2.16667V15.6665H8V17.3332H2.16667ZM16.4375 13.1665L14.6667 11.3957L15.2708 10.7915C15.4236 10.6387 15.6181 10.5623 15.8542 10.5623C16.0903 10.5623 16.2847 10.6387 16.4375 10.7915L17.0417 11.3957C17.1944 11.5484 17.2708 11.7429 17.2708 11.979C17.2708 12.2151 17.1944 12.4096 17.0417 12.5623L16.4375 13.1665ZM9.66667 18.1665V16.3957L14.0833 11.979L15.8542 13.7498L11.4375 18.1665H9.66667ZM2.16667 5.6665H13.8333V3.99984H2.16667V5.6665Z" fill="#1E9ED9"/>
</svg>
