<svg width="14" height="14" viewBox="0 0 14 14" fill="none" xmlns="http://www.w3.org/2000/svg">
<g clip-path="url(#clip0_9614_7015)">
<path d="M6.99949 0.875C7.3878 0.875 7.74603 1.08009 7.94292 1.41645L13.8496 11.4797C14.0492 11.8188 14.0492 12.2371 13.8551 12.5762C13.6609 12.9153 13.2972 13.1259 12.9062 13.1259H1.09282C0.701775 13.1259 0.338077 12.9153 0.143923 12.5762C-0.0502316 12.2371 -0.047497 11.816 0.149392 11.4797L6.05607 1.41645C6.25295 1.08009 6.61118 0.875 6.99949 0.875ZM6.99949 4.37525C6.63579 4.37525 6.34319 4.66785 6.34319 5.03155V8.09427C6.34319 8.45796 6.63579 8.75056 6.99949 8.75056C7.36319 8.75056 7.65579 8.45796 7.65579 8.09427V5.03155C7.65579 4.66785 7.36319 4.37525 6.99949 4.37525ZM7.87455 10.5007C7.87455 10.2686 7.78236 10.046 7.61825 9.88193C7.45415 9.71782 7.23157 9.62563 6.99949 9.62563C6.76741 9.62563 6.54484 9.71782 6.38073 9.88193C6.21662 10.046 6.12443 10.2686 6.12443 10.5007C6.12443 10.7328 6.21662 10.9553 6.38073 11.1195C6.54484 11.2836 6.76741 11.3758 6.99949 11.3758C7.23157 11.3758 7.45415 11.2836 7.61825 11.1195C7.78236 10.9553 7.87455 10.7328 7.87455 10.5007Z" fill="#73510D"/>
</g>
<defs>
<clipPath id="clip0_9614_7015">
<rect width="14" height="14" fill="white"/>
</clipPath>
</defs>
</svg>
