<svg width="15" height="14" viewBox="0 0 15 14" fill="none" xmlns="http://www.w3.org/2000/svg">
<path d="M7.72998 7.24994C7.96093 7.2481 8.18998 7.29178 8.40404 7.37848C8.61811 7.46519 8.81298 7.59323 8.97754 7.75529C9.14211 7.91734 9.27312 8.11023 9.36311 8.32293C9.45309 8.53564 9.50028 8.76399 9.50198 8.99494V9.86594C9.62198 12.0019 7.95198 13.0669 4.85798 13.0669C1.76398 13.0669 0.0579834 12.0159 0.0579834 9.89594V8.99594C0.0595531 8.76491 0.106648 8.53645 0.196575 8.32363C0.286502 8.1108 0.417497 7.9178 0.58207 7.75564C0.746643 7.59348 0.941566 7.46535 1.15569 7.37858C1.36982 7.29181 1.59895 7.2481 1.82998 7.24994H7.72998ZM12.455 7.24994C12.6859 7.2481 12.915 7.29178 13.129 7.37848C13.3431 7.46519 13.538 7.59323 13.7025 7.75529C13.8671 7.91734 13.9981 8.11023 14.0881 8.32293C14.1781 8.53564 14.2253 8.76399 14.227 8.99494V9.60794C14.333 11.5239 12.858 12.4839 10.158 12.4839C9.8133 12.4853 9.46879 12.468 9.12598 12.4319C9.44848 12.1346 9.70245 11.7707 9.87029 11.3654C10.0381 10.9601 10.1158 10.5232 10.098 10.0849L10.091 9.83394V8.99594C10.0908 8.66469 10.0192 8.33736 9.88119 8.03624C9.74314 7.73512 9.54184 7.46728 9.29098 7.25094L12.455 7.24994ZM4.78198 0.271942C5.16689 0.268909 5.54863 0.341723 5.90539 0.486225C6.26216 0.630726 6.58697 0.844087 6.86128 1.11412C7.13558 1.38416 7.35401 1.70558 7.5041 2.06003C7.65418 2.41449 7.73298 2.79503 7.73598 3.17994C7.73298 3.56485 7.65418 3.9454 7.5041 4.29985C7.35401 4.65431 7.13558 4.97573 6.86128 5.24576C6.58697 5.5158 6.26216 5.72916 5.90539 5.87366C5.54863 6.01816 5.16689 6.09097 4.78198 6.08794C4.0048 6.0938 3.25711 5.79074 2.70334 5.24541C2.14957 4.70007 1.83506 3.95712 1.82898 3.17994C1.83506 2.40276 2.14957 1.65981 2.70334 1.11448C3.25711 0.569145 4.0048 0.266084 4.78198 0.271942ZM10.688 1.43394C10.9958 1.43157 11.3011 1.48985 11.5864 1.60546C11.8717 1.72107 12.1314 1.89174 12.3507 2.10774C12.5701 2.32373 12.7447 2.5808 12.8647 2.86429C12.9847 3.14778 13.0476 3.45212 13.05 3.75994C13.0478 4.06785 12.9849 4.3723 12.865 4.6559C12.7451 4.9395 12.5704 5.1967 12.3511 5.41279C12.1317 5.62889 11.872 5.79965 11.5866 5.91533C11.3012 6.031 10.9959 6.08931 10.688 6.08694C10.3802 6.08931 10.0749 6.03103 9.78959 5.91542C9.5043 5.79981 9.24457 5.62914 9.02523 5.41315C8.8059 5.19716 8.63126 4.94008 8.51128 4.65659C8.3913 4.37311 8.32834 4.06876 8.32598 3.76094C8.32821 3.45304 8.39108 3.14858 8.51099 2.86498C8.63091 2.58138 8.80553 2.32419 9.02488 2.10809C9.24423 1.89199 9.504 1.72123 9.78936 1.60556C10.0747 1.48988 10.3801 1.43157 10.688 1.43394Z" fill="#C1EDF7"/>
</svg>
