<svg width="50" height="50" viewBox="0 0 50 50" fill="none" xmlns="http://www.w3.org/2000/svg">
<mask id="mask0_7600_7291" style="mask-type:alpha" maskUnits="userSpaceOnUse" x="0" y="0" width="50" height="50">
<rect width="50" height="50" fill="#D9D9D9"/>
</mask>
<g mask="url(#mask0_7600_7291)">
<path d="M10.4167 43.7497C9.27083 43.7497 8.28993 43.3417 7.47396 42.5257C6.65799 41.7097 6.25 40.7288 6.25 39.583V10.4163C6.25 9.27051 6.65799 8.28961 7.47396 7.47363C8.28993 6.65766 9.27083 6.24967 10.4167 6.24967H19.1667C19.6181 4.99967 20.3733 3.99273 21.4323 3.22884C22.4913 2.46495 23.6806 2.08301 25 2.08301C26.3194 2.08301 27.5087 2.46495 28.5677 3.22884C29.6267 3.99273 30.3819 4.99967 30.8333 6.24967H39.5833C40.7292 6.24967 41.7101 6.65766 42.526 7.47363C43.342 8.28961 43.75 9.27051 43.75 10.4163V39.583C43.75 40.7288 43.342 41.7097 42.526 42.5257C41.7101 43.3417 40.7292 43.7497 39.5833 43.7497H10.4167ZM10.4167 39.583H39.5833V10.4163H10.4167V39.583ZM14.5833 35.4163H29.1667V31.2497H14.5833V35.4163ZM14.5833 27.083H35.4167V22.9163H14.5833V27.083ZM14.5833 18.7497H35.4167V14.583H14.5833V18.7497ZM25 8.85384C25.4514 8.85384 25.8247 8.70627 26.1198 8.41113C26.4149 8.11599 26.5625 7.74273 26.5625 7.29134C26.5625 6.83995 26.4149 6.46669 26.1198 6.17155C25.8247 5.87641 25.4514 5.72884 25 5.72884C24.5486 5.72884 24.1753 5.87641 23.8802 6.17155C23.5851 6.46669 23.4375 6.83995 23.4375 7.29134C23.4375 7.74273 23.5851 8.11599 23.8802 8.41113C24.1753 8.70627 24.5486 8.85384 25 8.85384Z" fill="#1E9ED9"/>
</g>
</svg>
