<?xml version="1.0" encoding="UTF-8" standalone="no"?>
<svg
   xmlns:dc="http://purl.org/dc/elements/1.1/"
   xmlns:cc="http://creativecommons.org/ns#"
   xmlns:rdf="http://www.w3.org/1999/02/22-rdf-syntax-ns#"
   xmlns:svg="http://www.w3.org/2000/svg"
   xmlns="http://www.w3.org/2000/svg"
   xmlns:sodipodi="http://sodipodi.sourceforge.net/DTD/sodipodi-0.dtd"
   xmlns:inkscape="http://www.inkscape.org/namespaces/inkscape"
   id="_996398"
   data-name="996398"
   width="23.84"
   height="16.762"
   viewBox="0 0 23.84 16.762"
   version="1.1"
   sodipodi:docname="icon-bed-black.svg"
   inkscape:version="0.92.5 (2060ec1f9f, 2020-04-08)">
  <metadata
     id="metadata930">
    <rdf:RDF>
      <cc:Work
         rdf:about="">
        <dc:format>image/svg+xml</dc:format>
        <dc:type
           rdf:resource="http://purl.org/dc/dcmitype/StillImage" />
        <dc:title></dc:title>
      </cc:Work>
    </rdf:RDF>
  </metadata>
  <defs
     id="defs928" />
  <sodipodi:namedview
     pagecolor="#ffffff"
     bordercolor="#666666"
     borderopacity="1"
     objecttolerance="10"
     gridtolerance="10"
     guidetolerance="10"
     inkscape:pageopacity="0"
     inkscape:pageshadow="2"
     inkscape:window-width="1920"
     inkscape:window-height="1016"
     id="namedview926"
     showgrid="false"
     inkscape:zoom="24.997018"
     inkscape:cx="12.477398"
     inkscape:cy="10.009485"
     inkscape:window-x="0"
     inkscape:window-y="27"
     inkscape:window-maximized="1"
     inkscape:current-layer="_996398" />
  <g
     id="Grupo_3662"
     data-name="Grupo 3662"
     transform="translate(0 0)"
     style="fill:#000000">
    <path
       id="Trazado_2367"
       data-name="Trazado 2367"
       d="M21.046,80.191H9.778a2.787,2.787,0,0,0-2.1.949,2.786,2.786,0,0,0-3.492-.573V76H0V92.762H4.191V89.969H19.649v2.794H23.84V82.984A2.8,2.8,0,0,0,21.046,80.191ZM2.794,91.366H1.4V77.4h1.4Zm1.4-8.381a1.4,1.4,0,1,1,2.794,0v1.4H4.191Zm18.252,8.381h-1.4v-1.4h1.4Zm0-2.794H4.191V85.778H22.443Zm0-4.191H8.381v-1.4a1.4,1.4,0,0,1,1.4-1.4H21.046a1.4,1.4,0,0,1,1.4,1.4Z"
       transform="translate(0 -76)"
       fill="#fff"
       style="fill:#000000" />
  </g>
</svg>
