<svg width="32" height="32" viewBox="0 0 32 32" fill="none" xmlns="http://www.w3.org/2000/svg">
<g id="icon transferencia interna">
<path id="Img Pic" d="M32 16C32 7.16344 24.8366 0 16 0C7.16344 0 0 7.16344 0 16C0 24.8366 7.16344 32 16 32C24.8366 32 32 24.8366 32 16Z" fill="#114A8B" fill-opacity="0.68"/>
<g id="move_down">
<mask id="mask0_4588_7888" style="mask-type:alpha" maskUnits="userSpaceOnUse" x="6" y="6" width="20" height="20">
<rect id="Bounding box" x="6" y="6" width="19.914" height="19.914" fill="#D9D9D9"/>
</mask>
<g mask="url(#mask0_4588_7888)">
<path id="move_down_2" d="M11.8083 23.4241L10.6467 22.2624L11.9535 20.8933C10.4876 20.7274 9.26722 20.0947 8.29227 18.9953C7.31731 17.8959 6.82983 16.6063 6.82983 15.1266C6.82983 13.5086 7.39337 12.136 8.52045 11.009C9.64752 9.8819 11.0201 9.31836 12.6381 9.31836H15.1273V10.9779H12.6381C11.4903 10.9779 10.5118 11.3824 9.70284 12.1914C8.89383 13.0004 8.48933 13.9788 8.48933 15.1266C8.48933 16.1223 8.8074 17.0004 9.44354 17.761C10.0797 18.5217 10.8887 18.9988 11.8706 19.1924L10.6467 17.9685L11.8083 16.7861L15.1273 20.1051L11.8083 23.4241ZM16.7868 22.5943V16.7861H24.2545V22.5943H16.7868ZM16.7868 15.1266V9.31836H24.2545V15.1266H16.7868ZM18.4463 13.4671H22.5951V10.9779H18.4463V13.4671Z" fill="white"/>
</g>
</g>
</g>
</svg>
