<svg width="10" height="9" viewBox="0 0 10 9" fill="none" xmlns="http://www.w3.org/2000/svg">
<path d="M5.35847 4.90835C5.51978 4.90705 5.67975 4.93778 5.82926 4.99877C5.97878 5.05976 6.11489 5.14982 6.22982 5.26381C6.34476 5.3778 6.43627 5.51347 6.49912 5.66309C6.56197 5.81271 6.59493 5.97333 6.59612 6.13578V6.74843C6.67993 8.25088 5.51353 9 3.35254 9C1.19155 9 0 8.26073 0 6.76954V6.13648C0.00109635 5.97397 0.0339895 5.81327 0.0967985 5.66358C0.159607 5.51388 0.2511 5.37812 0.366046 5.26406C0.480991 5.15 0.617134 5.05987 0.76669 4.99884C0.916246 4.9378 1.07628 4.90705 1.23764 4.90835H5.35847ZM8.65862 4.90835C8.81993 4.90705 8.97991 4.93778 9.12942 4.99877C9.27893 5.05976 9.41504 5.14982 9.52998 5.26381C9.64491 5.3778 9.73642 5.51347 9.79927 5.66309C9.86212 5.81271 9.89508 5.97333 9.89627 6.13578V6.56696C9.9703 7.91466 8.9401 8.58992 7.0543 8.58992C6.81355 8.59091 6.57293 8.5787 6.3335 8.55334C6.55874 8.3442 6.73613 8.08822 6.85336 7.80316C6.97058 7.51809 7.02485 7.21076 7.01239 6.90248L7.0075 6.72592V6.13648C7.00737 5.90348 6.95739 5.67324 6.86097 5.46143C6.76455 5.24962 6.62395 5.06123 6.44874 4.90906L8.65862 4.90835ZM3.29945 6.39774e-05C3.56829 -0.00206891 3.83491 0.0491477 4.08409 0.15079C4.33328 0.252431 4.56014 0.402508 4.75173 0.592449C4.94331 0.78239 5.09588 1.00848 5.2007 1.2578C5.30553 1.50712 5.36056 1.77479 5.36266 2.04554C5.36056 2.31628 5.30553 2.58395 5.2007 2.83327C5.09588 3.0826 4.94331 3.30868 4.75173 3.49862C4.56014 3.68856 4.33328 3.83864 4.08409 3.94028C3.83491 4.04192 3.56829 4.09314 3.29945 4.09101C2.75663 4.09513 2.23441 3.88196 1.84763 3.49837C1.46086 3.11479 1.24119 2.5922 1.23695 2.04554C1.24119 1.49887 1.46086 0.976283 1.84763 0.592699C2.23441 0.209116 2.75663 -0.00405612 3.29945 6.39774e-05ZM7.42447 0.817409C7.63947 0.815739 7.85268 0.856736 8.05195 0.938055C8.25121 1.01937 8.43262 1.13942 8.58581 1.29135C8.739 1.44328 8.86098 1.62411 8.94478 1.82351C9.02858 2.02291 9.07255 2.23698 9.0742 2.4535C9.07264 2.67008 9.02874 2.88423 8.94498 3.08372C8.86122 3.2832 8.73926 3.46411 8.58606 3.61611C8.43285 3.76811 8.25142 3.88823 8.05211 3.96959C7.8528 4.05095 7.63952 4.09197 7.42447 4.0903C7.20947 4.09197 6.99626 4.05098 6.79699 3.96966C6.59773 3.88834 6.41632 3.76829 6.26313 3.61636C6.10994 3.46444 5.98796 3.28361 5.90416 3.0842C5.82036 2.8848 5.77639 2.67073 5.77474 2.45421C5.7763 2.23763 5.82021 2.02348 5.90396 1.824C5.98772 1.62451 6.10968 1.4436 6.26289 1.2916C6.41609 1.1396 6.59752 1.01949 6.79683 0.938122C6.99614 0.856759 7.20942 0.81574 7.42447 0.817409Z" fill="#1E9ED9"/>
</svg>
