<svg width="26" height="26" viewBox="0 0 26 26" fill="none" xmlns="http://www.w3.org/2000/svg">
<path d="M10.875 22.75C11.8125 20.8542 13.0625 19.5885 14.625 18.9531C16.1875 18.3177 17.5208 18 18.625 18C19.1042 18 19.5729 18.0417 20.0312 18.125C20.4896 18.2083 20.9375 18.3125 21.375 18.4375C21.875 17.6458 22.2708 16.7917 22.5625 15.875C22.8542 14.9583 23 14 23 13C23 10.2083 22.0312 7.84375 20.0938 5.90625C18.1562 3.96875 15.7917 3 13 3C10.2083 3 7.84375 3.96875 5.90625 5.90625C3.96875 7.84375 3 10.2083 3 13C3 13.9375 3.11979 14.8333 3.35938 15.6875C3.59896 16.5417 3.95833 17.3333 4.4375 18.0625C5.29167 17.6458 6.17708 17.3229 7.09375 17.0938C8.01042 16.8646 8.9375 16.75 9.875 16.75C10.5417 16.75 11.1823 16.8073 11.7969 16.9219C12.4115 17.0365 13.0208 17.1875 13.625 17.375C13.1458 17.625 12.6927 17.9167 12.2656 18.25C11.8385 18.5833 11.4375 18.9375 11.0625 19.3125C10.8125 19.2708 10.599 19.25 10.4219 19.25H9.875C9.20833 19.25 8.54688 19.3229 7.89062 19.4688C7.23438 19.6146 6.60417 19.8333 6 20.125C6.66667 20.7917 7.41146 21.349 8.23438 21.7969C9.05729 22.2448 9.9375 22.5625 10.875 22.75ZM13 25.5C11.2708 25.5 9.64583 25.1719 8.125 24.5156C6.60417 23.8594 5.28125 22.9688 4.15625 21.8438C3.03125 20.7188 2.14063 19.3958 1.48438 17.875C0.828125 16.3542 0.5 14.7292 0.5 13C0.5 11.2708 0.828125 9.64583 1.48438 8.125C2.14063 6.60417 3.03125 5.28125 4.15625 4.15625C5.28125 3.03125 6.60417 2.14063 8.125 1.48438C9.64583 0.828125 11.2708 0.5 13 0.5C14.7292 0.5 16.3542 0.828125 17.875 1.48438C19.3958 2.14063 20.7188 3.03125 21.8438 4.15625C22.9688 5.28125 23.8594 6.60417 24.5156 8.125C25.1719 9.64583 25.5 11.2708 25.5 13C25.5 14.7292 25.1719 16.3542 24.5156 17.875C23.8594 19.3958 22.9688 20.7188 21.8438 21.8438C20.7188 22.9688 19.3958 23.8594 17.875 24.5156C16.3542 25.1719 14.7292 25.5 13 25.5ZM9.875 14.875C8.66667 14.875 7.63542 14.4479 6.78125 13.5938C5.92708 12.7396 5.5 11.7083 5.5 10.5C5.5 9.29167 5.92708 8.26042 6.78125 7.40625C7.63542 6.55208 8.66667 6.125 9.875 6.125C11.0833 6.125 12.1146 6.55208 12.9688 7.40625C13.8229 8.26042 14.25 9.29167 14.25 10.5C14.25 11.7083 13.8229 12.7396 12.9688 13.5938C12.1146 14.4479 11.0833 14.875 9.875 14.875ZM9.875 12.375C10.3958 12.375 10.8385 12.1927 11.2031 11.8281C11.5677 11.4635 11.75 11.0208 11.75 10.5C11.75 9.97917 11.5677 9.53646 11.2031 9.17188C10.8385 8.80729 10.3958 8.625 9.875 8.625C9.35417 8.625 8.91146 8.80729 8.54688 9.17188C8.18229 9.53646 8 9.97917 8 10.5C8 11.0208 8.18229 11.4635 8.54688 11.8281C8.91146 12.1927 9.35417 12.375 9.875 12.375ZM18.625 16.125C17.75 16.125 17.0104 15.8229 16.4062 15.2188C15.8021 14.6146 15.5 13.875 15.5 13C15.5 12.125 15.8021 11.3854 16.4062 10.7812C17.0104 10.1771 17.75 9.875 18.625 9.875C19.5 9.875 20.2396 10.1771 20.8438 10.7812C21.4479 11.3854 21.75 12.125 21.75 13C21.75 13.875 21.4479 14.6146 20.8438 15.2188C20.2396 15.8229 19.5 16.125 18.625 16.125Z" fill="#4BB1E0"/>
</svg>
