<svg xmlns="http://www.w3.org/2000/svg" width="9.832" height="11.985" viewBox="0 0 9.832 11.985">
  <g id="_167123" data-name="167123" transform="translate(0.25 0.25)">
    <g id="Grupo_3876" data-name="Grupo 3876" transform="translate(0)">
      <g id="Grupo_3875" data-name="Grupo 3875">
        <path id="Trazado_2437" data-name="Trazado 2437" d="M55,220.526a3.572,3.572,0,0,1-.545.554,3.912,3.912,0,0,1,1.97,3.394c0,.784-1.717,1.4-3.909,1.4s-3.909-.614-3.909-1.4a3.912,3.912,0,0,1,1.97-3.394,3.573,3.573,0,0,1-.545-.554,4.667,4.667,0,0,0-2.182,3.948c0,.5.275,1.2,1.588,1.687a10.375,10.375,0,0,0,6.157,0c1.312-.483,1.588-1.184,1.588-1.687A4.667,4.667,0,0,0,55,220.526Z" transform="translate(-47.85 -215.143)" fill="#1E9ED9" stroke="#1E9ED9" stroke-width="0.5"/>
        <path id="Trazado_2438" data-name="Trazado 2438" d="M129.917,5.558a2.583,2.583,0,0,0,2.332-2.779,2.368,2.368,0,1,0-4.663,0A2.583,2.583,0,0,0,129.917,5.558Zm0-4.88a1.92,1.92,0,0,1,1.654,2.1,1.7,1.7,0,1,1-3.308,0A1.92,1.92,0,0,1,129.917.678Z" transform="translate(-125.251)" fill="#1E9ED9" stroke="#1E9ED9" stroke-width="0.5"/>
      </g>
    </g>
  </g>
</svg>
