<svg width="16" height="13" viewBox="0 0 16 13" fill="none" xmlns="http://www.w3.org/2000/svg">
<path d="M0.318359 12.4545V0.181763H9.86382V12.4545H5.77291V9.72722H4.40927V12.4545H0.318359ZM1.682 11.0909H3.04563V8.36358H7.13654V11.0909H8.50018V1.5454H1.682V11.0909ZM3.04563 6.99994H4.40927V5.63631H3.04563V6.99994ZM3.04563 4.27267H4.40927V2.90904H3.04563V4.27267ZM5.77291 6.99994H7.13654V5.63631H5.77291V6.99994ZM5.77291 4.27267H7.13654V2.90904H5.77291V4.27267ZM12.932 8.70449L11.9775 7.74994L12.7104 6.99994H10.5456V5.63631H12.7104L11.9775 4.88631L12.932 3.93176L15.3184 6.31813L12.932 8.70449Z" fill="#C82626"/>
</svg>
