<svg width="11" height="10" viewBox="0 0 11 10" fill="none" xmlns="http://www.w3.org/2000/svg">
<path d="M3.5 10C3.225 10 2.98958 9.90208 2.79375 9.70625C2.59792 9.51042 2.5 9.275 2.5 9C2.5 8.725 2.59792 8.48958 2.79375 8.29375C2.98958 8.09792 3.225 8 3.5 8C3.775 8 4.01042 8.09792 4.20625 8.29375C4.40208 8.48958 4.5 8.725 4.5 9C4.5 9.275 4.40208 9.51042 4.20625 9.70625C4.01042 9.90208 3.775 10 3.5 10ZM8.5 10C8.225 10 7.98958 9.90208 7.79375 9.70625C7.59792 9.51042 7.5 9.275 7.5 9C7.5 8.725 7.59792 8.48958 7.79375 8.29375C7.98958 8.09792 8.225 8 8.5 8C8.775 8 9.01042 8.09792 9.20625 8.29375C9.40208 8.48958 9.5 8.725 9.5 9C9.5 9.275 9.40208 9.51042 9.20625 9.70625C9.01042 9.90208 8.775 10 8.5 10ZM2.6 1H9.975C10.1667 1 10.3125 1.08542 10.4125 1.25625C10.5125 1.42708 10.5167 1.6 10.425 1.775L8.65 4.975C8.55833 5.14167 8.43542 5.27083 8.28125 5.3625C8.12708 5.45417 7.95833 5.5 7.775 5.5H4.05L3.5 6.5H9.5V7.5H3.5C3.125 7.5 2.84167 7.33542 2.65 7.00625C2.45833 6.67708 2.45 6.35 2.625 6.025L3.3 4.8L1.5 1H0.5V0H2.125L2.6 1Z" fill="#1E9ED9"/>
</svg>
