<svg width="20" height="14" viewBox="0 0 20 14" fill="none" xmlns="http://www.w3.org/2000/svg">
<path id="send_money" d="M5 13.459C3.55556 13.084 2.36111 12.3062 1.41667 11.1257C0.472222 9.9451 0 8.5701 0 7.00065C0 5.43121 0.472222 4.05621 1.41667 2.87565C2.36111 1.6951 3.55556 0.917318 5 0.542318V2.29232C4.01389 2.62565 3.21181 3.22287 2.59375 4.08398C1.97569 4.9451 1.66667 5.91732 1.66667 7.00065C1.66667 8.08398 1.97569 9.05621 2.59375 9.91732C3.21181 10.7784 4.01389 11.3757 5 11.709V13.459ZM11.6667 13.6673C9.81944 13.6673 8.24653 13.018 6.94792 11.7194C5.64931 10.4208 5 8.84787 5 7.00065C5 5.15343 5.64931 3.58051 6.94792 2.2819C8.24653 0.98329 9.81944 0.333984 11.6667 0.333984C12.5833 0.333984 13.4444 0.507595 14.25 0.854818C15.0556 1.20204 15.7639 1.68121 16.375 2.29232L15.2083 3.45898C14.75 3.00065 14.2187 2.64301 13.6146 2.38607C13.0104 2.12912 12.3611 2.00065 11.6667 2.00065C10.2778 2.00065 9.09722 2.48676 8.125 3.45898C7.15278 4.43121 6.66667 5.61176 6.66667 7.00065C6.66667 8.38954 7.15278 9.5701 8.125 10.5423C9.09722 11.5145 10.2778 12.0007 11.6667 12.0007C12.3611 12.0007 13.0104 11.8722 13.6146 11.6152C14.2187 11.3583 14.75 11.0007 15.2083 10.5423L16.375 11.709C15.7639 12.3201 15.0556 12.7993 14.25 13.1465C13.4444 13.4937 12.5833 13.6673 11.6667 13.6673ZM16.6667 10.334L15.5 9.16732L16.8333 7.83398H10.8333V6.16732H16.8333L15.5 4.83398L16.6667 3.66732L20 7.00065L16.6667 10.334Z" fill="#1E9ED9"/>
</svg>
