<svg width="20" height="26" viewBox="0 0 20 26" fill="none" xmlns="http://www.w3.org/2000/svg">
<path d="M8.6875 20.5L15.75 13.4375L13.9375 11.625L8.65625 16.9062L6.03125 14.2813L4.25 16.0625L8.6875 20.5ZM2.5 25.5C1.8125 25.5 1.22396 25.2552 0.734375 24.7656C0.244792 24.276 0 23.6875 0 23V3C0 2.3125 0.244792 1.72396 0.734375 1.23438C1.22396 0.744792 1.8125 0.5 2.5 0.5H12.5L20 8V23C20 23.6875 19.7552 24.276 19.2656 24.7656C18.776 25.2552 18.1875 25.5 17.5 25.5H2.5ZM11.25 9.25V3H2.5V23H17.5V9.25H11.25Z" fill="#4BB1E0"/>
</svg>
