<svg width="88" height="88" viewBox="0 0 88 88" fill="none" xmlns="http://www.w3.org/2000/svg">
<g id="filter_center_focus">
<mask id="mask0_2766_6026" style="mask-type:alpha" maskUnits="userSpaceOnUse" x="0" y="0" width="88" height="88">
<rect id="Bounding box" width="87.3027" height="87.3027" fill="#D9D9D9"/>
</mask>
<g mask="url(#mask0_2766_6026)">
<path id="filter_center_focus_2" d="M18.1881 76.3901C16.1874 76.3901 14.4747 75.6778 13.0499 74.253C11.6252 72.8283 10.9128 71.1156 10.9128 69.1149V54.5645H18.1881V69.1149H32.7385V76.3901H18.1881ZM54.5642 76.3901V69.1149H69.1147V54.5645H76.3899V69.1149C76.3899 71.1156 75.6775 72.8283 74.2528 74.253C72.8281 75.6778 71.1154 76.3901 69.1147 76.3901H54.5642ZM43.6514 54.5645C40.62 54.5645 38.0434 53.5035 35.9214 51.3815C33.7995 49.2596 32.7385 46.683 32.7385 43.6516C32.7385 40.6203 33.7995 38.0436 35.9214 35.9217C38.0434 33.7997 40.62 32.7388 43.6514 32.7388C46.6827 32.7388 49.2594 33.7997 51.3813 35.9217C53.5032 38.0436 54.5642 40.6203 54.5642 43.6516C54.5642 46.683 53.5032 49.2596 51.3813 51.3815C49.2594 53.5035 46.6827 54.5645 43.6514 54.5645ZM43.6514 47.2892C44.682 47.2892 45.546 46.9406 46.2432 46.2434C46.9404 45.5462 47.289 44.6823 47.289 43.6516C47.289 42.621 46.9404 41.757 46.2432 41.0598C45.546 40.3626 44.682 40.014 43.6514 40.014C42.6207 40.014 41.7568 40.3626 41.0596 41.0598C40.3624 41.757 40.0138 42.621 40.0138 43.6516C40.0138 44.6823 40.3624 45.5462 41.0596 46.2434C41.7568 46.9406 42.6207 47.2892 43.6514 47.2892ZM10.9128 32.7388V18.1883C10.9128 16.1876 11.6252 14.4749 13.0499 13.0502C14.4747 11.6255 16.1874 10.9131 18.1881 10.9131H32.7385V18.1883H18.1881V32.7388H10.9128ZM69.1147 32.7388V18.1883H54.5642V10.9131H69.1147C71.1154 10.9131 72.8281 11.6255 74.2528 13.0502C75.6775 14.4749 76.3899 16.1876 76.3899 18.1883V32.7388H69.1147Z" fill="#51B2DD"/>
</g>
</g>
</svg>
