<svg xmlns="http://www.w3.org/2000/svg" width="22.262" height="24.241" viewBox="0 0 22.262 24.241">
  <g id="_1827504" data-name="1827504" transform="translate(0.25 0.25)">
    <path id="Trazado_2354" data-name="Trazado 2354" d="M137.042,420.451a3.714,3.714,0,0,1-3.71-3.71.742.742,0,0,1,1.484,0,2.226,2.226,0,0,0,4.451,0,.742.742,0,0,1,1.484,0A3.714,3.714,0,0,1,137.042,420.451Zm0,0" transform="translate(-127.15 -396.71)" fill="#1E9ED9" stroke="#1E9ED9" stroke-width="0.5"/>
    <path id="Trazado_2355" data-name="Trazado 2355" d="M18.053,81.806H1.731A1.732,1.732,0,0,1,.605,78.759.683.683,0,0,1,.684,78.7a6.648,6.648,0,0,0,2.283-5.015v-2.76A6.933,6.933,0,0,1,9.892,64a2.98,2.98,0,0,1,.488.03.742.742,0,1,1-.243,1.463,1.557,1.557,0,0,0-.244-.009,5.447,5.447,0,0,0-5.441,5.441v2.76a8.136,8.136,0,0,1-2.872,6.2c-.015.012-.028.023-.044.034a.245.245,0,0,0-.052.153.25.25,0,0,0,.247.247H18.053a.25.25,0,0,0,.247-.247.236.236,0,0,0-.053-.153l-.043-.034a8.134,8.134,0,0,1-2.872-6.2V72.606a.742.742,0,1,1,1.484,0v1.078A6.651,6.651,0,0,0,19.1,78.7a.72.72,0,0,1,.076.057,1.731,1.731,0,0,1-1.126,3.046Zm0,0" transform="translate(0 -61.032)" fill="#1E9ED9" stroke="#1E9ED9" stroke-width="0.5"/>
    <path id="Trazado_2356" data-name="Trazado 2356" d="M260.946,9.892a4.946,4.946,0,1,1,4.946-4.946A4.952,4.952,0,0,1,260.946,9.892Zm0-8.408a3.462,3.462,0,1,0,3.462,3.462A3.466,3.466,0,0,0,260.946,1.484Zm0,0" transform="translate(-244.13)" fill="#1E9ED9" stroke="#1E9ED9" stroke-width="0.5"/>
  </g>
</svg>
