<svg width="17" height="18" viewBox="0 0 17 18" fill="none" xmlns="http://www.w3.org/2000/svg">
<path d="M0 16V14H2.725C1.875 13.2667 1.20833 12.3833 0.725 11.35C0.241667 10.3167 0 9.2 0 8C0 6.13333 0.566667 4.4875 1.7 3.0625C2.83333 1.6375 4.26667 0.7 6 0.25V2.35C4.83333 2.76667 3.875 3.4875 3.125 4.5125C2.375 5.5375 2 6.7 2 8C2 8.9 2.17917 9.72917 2.5375 10.4875C2.89583 11.2458 3.38333 11.9 4 12.45V10H6V16H0ZM14 8C14 7.15 13.8292 6.35417 13.4875 5.6125C13.1458 4.87083 12.65 4.18333 12 3.55V6H10V0H16V2H13.275C14.2583 2.88333 14.9542 3.82917 15.3625 4.8375C15.7708 5.84583 15.9833 6.9 16 8H14ZM12 18C11.7167 18 11.4792 17.9042 11.2875 17.7125C11.0958 17.5208 11 17.2833 11 17V14C11 13.7167 11.0958 13.4792 11.2875 13.2875C11.4792 13.0958 11.7167 13 12 13V12C12 11.45 12.1958 10.9792 12.5875 10.5875C12.9792 10.1958 13.45 10 14 10C14.55 10 15.0208 10.1958 15.4125 10.5875C15.8042 10.9792 16 11.45 16 12V13C16.2833 13 16.5208 13.0958 16.7125 13.2875C16.9042 13.4792 17 13.7167 17 14V17C17 17.2833 16.9042 17.5208 16.7125 17.7125C16.5208 17.9042 16.2833 18 16 18H12ZM13 13H15V12C15 11.7167 14.9042 11.4792 14.7125 11.2875C14.5208 11.0958 14.2833 11 14 11C13.7167 11 13.4792 11.0958 13.2875 11.2875C13.0958 11.4792 13 11.7167 13 12V13Z" fill="white"/>
</svg>
