<svg width="14" height="18" viewBox="0 0 14 18" fill="none" xmlns="http://www.w3.org/2000/svg">
<path d="M11.375 6.29998V4.49998C11.3807 3.90739 11.2714 3.31958 11.0536 2.77095C10.8358 2.22232 10.5137 1.7239 10.1063 1.30486C9.69891 0.885815 9.21434 0.554571 8.68095 0.330512C8.14756 0.106453 7.57608 -0.00591814 6.99995 -2.37021e-05C6.42383 -0.00591814 5.85234 0.106453 5.31896 0.330512C4.78557 0.554571 4.30099 0.885815 3.89359 1.30486C3.48619 1.7239 3.16414 2.22232 2.94631 2.77095C2.72847 3.31958 2.61922 3.90739 2.62495 4.49998V6.29998C2.27847 6.29338 1.93425 6.35871 1.61287 6.49207C1.2915 6.62542 0.99956 6.82406 0.754517 7.0761C0.509474 7.32814 0.316356 7.62842 0.186707 7.95898C0.0570587 8.28954 -0.00645846 8.64359 -4.704e-05 8.99998V15.3C-0.00645846 15.6564 0.0570587 16.0104 0.186707 16.341C0.316356 16.6715 0.509474 16.9718 0.754517 17.2239C0.99956 17.4759 1.2915 17.6745 1.61287 17.8079C1.93425 17.9412 2.27847 18.0066 2.62495 18H11.375C11.7214 18.0066 12.0657 17.9412 12.387 17.8079C12.7084 17.6745 13.0003 17.4759 13.2454 17.2239C13.4904 16.9718 13.6835 16.6715 13.8132 16.341C13.9428 16.0104 14.0064 15.6564 14 15.3V8.99998C14.0064 8.64359 13.9428 8.28954 13.8132 7.95898C13.6835 7.62842 13.4904 7.32814 13.2454 7.0761C13.0003 6.82406 12.7084 6.62542 12.387 6.49207C12.0657 6.35871 11.7214 6.29338 11.375 6.29998ZM4.37495 4.49998C4.36854 4.14359 4.43206 3.78954 4.56171 3.45898C4.69136 3.12842 4.88447 2.82814 5.12952 2.5761C5.37456 2.32406 5.6665 2.12542 5.98787 1.99207C6.30925 1.85871 6.65347 1.79338 6.99995 1.79998C7.34644 1.79338 7.69066 1.85871 8.01203 1.99207C8.33341 2.12542 8.62535 2.32406 8.87039 2.5761C9.11543 2.82814 9.30855 3.12842 9.4382 3.45898C9.56785 3.78954 9.63136 4.14359 9.62495 4.49998V6.29998H4.37495V4.49998ZM7.96245 12.15L7.87495 12.24V13.5C7.88197 13.62 7.86415 13.7403 7.82265 13.8528C7.78116 13.9652 7.71695 14.0673 7.63426 14.1524C7.55156 14.2375 7.45227 14.3035 7.34293 14.3462C7.23359 14.3889 7.11669 14.4072 6.99995 14.4C6.88322 14.4072 6.76632 14.3889 6.65698 14.3462C6.54764 14.3035 6.44834 14.2375 6.36565 14.1524C6.28295 14.0673 6.21874 13.9652 6.17725 13.8528C6.13576 13.7403 6.11794 13.62 6.12495 13.5V12.24C5.99514 12.124 5.88953 11.9822 5.81449 11.8231C5.73946 11.664 5.69656 11.4909 5.68838 11.3142C5.6802 11.1376 5.70692 10.9611 5.76691 10.7953C5.82691 10.6296 5.91894 10.4781 6.03745 10.35C6.15019 10.2165 6.28807 10.1078 6.44277 10.0306C6.59746 9.95347 6.76576 9.90934 6.9375 9.90093C7.10924 9.89252 7.28085 9.92 7.44197 9.98171C7.6031 10.0434 7.75039 10.1381 7.87495 10.26C8.0052 10.3756 8.11121 10.5174 8.18653 10.6765C8.26185 10.8356 8.30492 11.0089 8.3131 11.1857C8.32129 11.3625 8.29442 11.5391 8.23414 11.7049C8.17386 11.8707 8.08142 12.0221 7.96245 12.15Z" fill="#3F4443"/>
</svg>
