<svg width="17" height="17" viewBox="0 0 17 17" fill="none" xmlns="http://www.w3.org/2000/svg">
<path d="M8.5001 16.4166C7.51051 16.4166 6.58361 16.2286 5.71937 15.8525C4.85513 15.4765 4.10305 14.9685 3.46312 14.3286C2.82319 13.6887 2.3152 12.9366 1.93916 12.0723C1.56312 11.2081 1.3751 10.2812 1.3751 9.2916C1.3751 8.30202 1.56312 7.37511 1.93916 6.51087C2.3152 5.64664 2.82319 4.89455 3.46312 4.25462C4.10305 3.61469 4.85513 3.10671 5.71937 2.73066C6.58361 2.35462 7.51051 2.1666 8.5001 2.1666C9.48968 2.1666 10.4166 2.35462 11.2808 2.73066C12.1451 3.10671 12.8971 3.61469 13.5371 4.25462C14.177 4.89455 14.685 5.64664 15.061 6.51087C15.4371 7.37511 15.6251 8.30202 15.6251 9.2916C15.6251 10.2812 15.4371 11.2081 15.061 12.0723C14.685 12.9366 14.177 13.6887 13.5371 14.3286C12.8971 14.9685 12.1451 15.4765 11.2808 15.8525C10.4166 16.2286 9.48968 16.4166 8.5001 16.4166ZM10.7168 12.6166L11.8251 11.5083L9.29177 8.97494V5.33327H7.70843V9.60827L10.7168 12.6166ZM3.43343 0.860352L4.54176 1.96869L1.17718 5.33327L0.0688477 4.22494L3.43343 0.860352ZM13.5668 0.860352L16.9313 4.22494L15.823 5.33327L12.4584 1.96869L13.5668 0.860352ZM8.5001 14.8333C10.0438 14.8333 11.3534 14.2956 12.4287 13.2202C13.5041 12.1449 14.0418 10.8354 14.0418 9.2916C14.0418 7.74785 13.5041 6.4383 12.4287 5.36296C11.3534 4.28761 10.0438 3.74994 8.5001 3.74994C6.95635 3.74994 5.6468 4.28761 4.57145 5.36296C3.4961 6.4383 2.95843 7.74785 2.95843 9.2916C2.95843 10.8354 3.4961 12.1449 4.57145 13.2202C5.6468 14.2956 6.95635 14.8333 8.5001 14.8333Z" fill="#1E9ED9"/>
</svg>
