<svg width="71" height="70" viewBox="0 0 71 70" fill="none" xmlns="http://www.w3.org/2000/svg">
<path d="M30.014 29.3763C32.0147 29.3763 33.7274 28.6639 35.1521 27.2392C36.5769 25.8145 37.2892 24.1018 37.2892 22.1011C37.2892 20.1004 36.5769 18.3877 35.1521 16.9629C33.7274 15.5382 32.0147 14.8258 30.014 14.8258C28.0133 14.8258 26.3006 15.5382 24.8759 16.9629C23.4511 18.3877 22.7388 20.1004 22.7388 22.1011C22.7388 24.1018 23.4511 25.8145 24.8759 27.2392C26.3006 28.6639 28.0133 29.3763 30.014 29.3763ZM30.014 43.9268C32.7422 43.9268 35.3037 43.3508 37.6985 42.1989C40.0932 41.047 42.1697 39.4101 43.9279 37.2881C41.8059 35.8937 39.5779 34.8327 37.2438 34.1052C34.9096 33.3777 32.4997 33.0139 30.014 33.0139C27.5283 33.0139 25.1184 33.3777 22.7842 34.1052C20.4501 34.8327 18.2221 35.8937 16.1001 37.2881C17.8583 39.4101 19.9348 41.047 22.3295 42.1989C24.7243 43.3508 27.2858 43.9268 30.014 43.9268ZM64.9351 69.3901L47.8383 52.2933C45.3526 54.2333 42.6092 55.749 39.6082 56.8403C36.6072 57.9316 33.4091 58.4772 30.014 58.4772C21.89 58.4772 15.0088 55.6581 9.37054 50.0198C3.73224 44.3815 0.913086 37.5003 0.913086 29.3763C0.913086 21.2523 3.73224 14.3711 9.37054 8.73284C15.0088 3.09454 21.89 0.275391 30.014 0.275391C38.138 0.275391 45.0192 3.09454 50.6575 8.73284C56.2958 14.3711 59.1149 21.2523 59.1149 29.3763C59.1149 32.7714 58.5693 35.9695 57.478 38.9705C56.3867 41.9715 54.871 44.7149 52.931 47.2006L70.0277 64.2974L64.9351 69.3901ZM30.014 51.202C36.0767 51.202 41.23 49.08 45.4739 44.8362C49.7177 40.5923 51.8397 35.439 51.8397 29.3763C51.8397 23.3136 49.7177 18.1603 45.4739 13.9164C41.23 9.67256 36.0767 7.55062 30.014 7.55062C23.9513 7.55062 18.798 9.67256 14.5541 13.9164C10.3103 18.1603 8.18831 23.3136 8.18831 29.3763C8.18831 35.439 10.3103 40.5923 14.5541 44.8362C18.798 49.08 23.9513 51.202 30.014 51.202Z" fill="#51B2DD"/>
</svg>
