<svg width="17" height="17" viewBox="0 0 17 17" fill="none" xmlns="http://www.w3.org/2000/svg">
<path d="M7.7085 12.4585H9.29183V9.29183H12.4585V7.7085H9.29183V4.54183H7.7085V7.7085H4.54183V9.29183H7.7085V12.4585ZM8.50016 16.4168C7.40502 16.4168 6.37586 16.209 5.41266 15.7934C4.44947 15.3778 3.61162 14.8137 2.89912 14.1012C2.18662 13.3887 1.62256 12.5509 1.20693 11.5877C0.791309 10.6245 0.583496 9.5953 0.583496 8.50016C0.583496 7.40502 0.791309 6.37586 1.20693 5.41266C1.62256 4.44947 2.18662 3.61162 2.89912 2.89912C3.61162 2.18662 4.44947 1.62256 5.41266 1.20693C6.37586 0.791309 7.40502 0.583496 8.50016 0.583496C9.5953 0.583496 10.6245 0.791309 11.5877 1.20693C12.5509 1.62256 13.3887 2.18662 14.1012 2.89912C14.8137 3.61162 15.3778 4.44947 15.7934 5.41266C16.209 6.37586 16.4168 7.40502 16.4168 8.50016V14.8335C16.4168 15.2689 16.2618 15.6417 15.9517 15.9517C15.6417 16.2618 15.2689 16.4168 14.8335 16.4168H8.50016ZM8.50016 14.8335C10.2682 14.8335 11.7658 14.22 12.9929 12.9929C14.22 11.7658 14.8335 10.2682 14.8335 8.50016C14.8335 6.73211 14.22 5.23454 12.9929 4.00745C11.7658 2.78037 10.2682 2.16683 8.50016 2.16683C6.73211 2.16683 5.23454 2.78037 4.00745 4.00745C2.78037 5.23454 2.16683 6.73211 2.16683 8.50016C2.16683 10.2682 2.78037 11.7658 4.00745 12.9929C5.23454 14.22 6.73211 14.8335 8.50016 14.8335Z" fill="#1E9ED9"/>
</svg>
