<svg width="17" height="15" viewBox="0 0 17 15" fill="none" xmlns="http://www.w3.org/2000/svg">
<path d="M9.55625 7.79375C10.4688 7.11875 11.1813 6.37813 11.6938 5.57188C12.2063 4.76562 12.4625 3.9625 12.4625 3.1625C12.4625 2.7625 12.3969 2.46875 12.2656 2.28125C12.1344 2.09375 11.9563 2 11.7313 2C11.1438 2 10.625 2.49687 10.175 3.49062C9.725 4.48438 9.5 5.60625 9.5 6.85625C9.5 7.03125 9.50313 7.19688 9.50937 7.35312C9.51562 7.50937 9.53125 7.65625 9.55625 7.79375ZM1.25 14.75V13.25H2.75V14.75H1.25ZM4.25 14.75V13.25H5.75V14.75H4.25ZM7.25 14.75V13.25H8.75V14.75H7.25ZM10.25 14.75V13.25H11.75V14.75H10.25ZM13.25 14.75V13.25H14.75V14.75H13.25ZM1.55 11.75L0.5 10.7L1.7 9.5L0.5 8.3L1.55 7.25L2.75 8.45L3.95 7.25L5 8.3L3.8 9.5L5 10.7L3.95 11.75L2.75 10.55L1.55 11.75ZM10.5875 11C10.2125 11 9.86875 10.9281 9.55625 10.7844C9.24375 10.6406 8.975 10.4062 8.75 10.0813C8.4375 10.2563 8.11563 10.4125 7.78438 10.55C7.45313 10.6875 7.1125 10.825 6.7625 10.9625L6.2375 9.55625C6.5875 9.43125 6.92188 9.29688 7.24063 9.15313C7.55938 9.00938 7.86875 8.85625 8.16875 8.69375C8.10625 8.41875 8.05938 8.11875 8.02813 7.79375C7.99688 7.46875 7.98125 7.11875 7.98125 6.74375C7.98125 4.94375 8.3375 3.45312 9.05 2.27187C9.7625 1.09062 10.6562 0.5 11.7313 0.5C12.3813 0.5 12.9125 0.740625 13.325 1.22188C13.7375 1.70312 13.9438 2.375 13.9438 3.2375C13.9438 4.3125 13.6031 5.375 12.9219 6.425C12.2406 7.475 11.2938 8.41875 10.0813 9.25625C10.1688 9.34375 10.2594 9.40938 10.3531 9.45312C10.4469 9.49687 10.5438 9.51875 10.6438 9.51875C10.9688 9.51875 11.3469 9.3125 11.7781 8.9C12.2094 8.4875 12.6 7.94375 12.95 7.26875L14.3188 7.90625C14.2313 8.11875 14.1625 8.375 14.1125 8.675C14.0625 8.975 14.0688 9.2375 14.1313 9.4625C14.2563 9.4 14.4031 9.29375 14.5719 9.14375C14.7406 8.99375 14.9125 8.80625 15.0875 8.58125L16.2687 9.5C15.9437 9.95 15.5687 10.3125 15.1437 10.5875C14.7188 10.8625 14.325 11 13.9625 11C13.7 11 13.4656 10.9219 13.2594 10.7656C13.0531 10.6094 12.8813 10.3688 12.7438 10.0438C12.3938 10.3562 12.0375 10.5938 11.675 10.7563C11.3125 10.9187 10.95 11 10.5875 11Z" fill="#1E9ED9"/>
</svg>
