<svg width="32" height="32" viewBox="0 0 32 32" fill="none" xmlns="http://www.w3.org/2000/svg">
<path d="M14.4113 23.9447H17.5891V17.5891H23.9447V14.4113H17.5891V8.05577H14.4113V14.4113H8.05577V17.5891H14.4113V23.9447ZM16.0002 31.8891C13.8023 31.8891 11.7367 31.472 9.80355 30.6379C7.8704 29.8037 6.18883 28.6716 4.75883 27.2416C3.32883 25.8116 2.19674 24.13 1.36258 22.1969C0.528411 20.2637 0.111328 18.1982 0.111328 16.0002C0.111328 13.8023 0.528411 11.7367 1.36258 9.80355C2.19674 7.8704 3.32883 6.18883 4.75883 4.75883C6.18883 3.32883 7.8704 2.19674 9.80355 1.36258C11.7367 0.528411 13.8023 0.111328 16.0002 0.111328C18.1982 0.111328 20.2637 0.528411 22.1969 1.36258C24.13 2.19674 25.8116 3.32883 27.2416 4.75883C28.6716 6.18883 29.8037 7.8704 30.6379 9.80355C31.472 11.7367 31.8891 13.8023 31.8891 16.0002C31.8891 18.1982 31.472 20.2637 30.6379 22.1969C29.8037 24.13 28.6716 25.8116 27.2416 27.2416C25.8116 28.6716 24.13 29.8037 22.1969 30.6379C20.2637 31.472 18.1982 31.8891 16.0002 31.8891ZM16.0002 28.7113C19.5487 28.7113 22.5544 27.4799 25.0172 25.0172C27.4799 22.5544 28.7113 19.5487 28.7113 16.0002C28.7113 12.4517 27.4799 9.44605 25.0172 6.98327C22.5544 4.5205 19.5487 3.28911 16.0002 3.28911C12.4517 3.28911 9.44605 4.5205 6.98327 6.98327C4.5205 9.44605 3.28911 12.4517 3.28911 16.0002C3.28911 19.5487 4.5205 22.5544 6.98327 25.0172C9.44605 27.4799 12.4517 28.7113 16.0002 28.7113Z" fill="#1E9ED9"/>
</svg>
