<svg width="22" height="12" viewBox="0 0 22 12" fill="none" xmlns="http://www.w3.org/2000/svg">
<path d="M1.00049 12V10H21.0005V12H1.00049ZM2.15049 5.95L0.850488 5.2L1.70049 3.7H0.000488281V2.2H1.70049L0.850488 0.75L2.15049 0L3.00049 1.45L3.85049 0L5.15049 0.75L4.30049 2.2H6.00049V3.7H4.30049L5.15049 5.2L3.85049 5.95L3.00049 4.45L2.15049 5.95ZM10.1505 5.95L8.85049 5.2L9.70049 3.7H8.00049V2.2H9.70049L8.85049 0.75L10.1505 0L11.0005 1.45L11.8505 0L13.1505 0.75L12.3005 2.2H14.0005V3.7H12.3005L13.1505 5.2L11.8505 5.95L11.0005 4.45L10.1505 5.95ZM18.1505 5.95L16.8505 5.2L17.7005 3.7H16.0005V2.2H17.7005L16.8505 0.75L18.1505 0L19.0005 1.45L19.8505 0L21.1505 0.75L20.3005 2.2H22.0005V3.7H20.3005L21.1505 5.2L19.8505 5.95L19.0005 4.45L18.1505 5.95Z" fill="#1E9ED9"/>
</svg>
