<svg width="37" height="37" viewBox="0 0 37 37" fill="none" xmlns="http://www.w3.org/2000/svg">
<mask id="mask0_7609_9857" style="mask-type:alpha" maskUnits="userSpaceOnUse" x="0" y="0" width="37" height="37">
<rect width="37" height="37" fill="#D9D9D9"/>
</mask>
<g mask="url(#mask0_7609_9857)">
<path d="M13.8757 21.584H29.2923L23.9736 14.6465L20.4277 19.2715L18.0382 16.1882L13.8757 21.584ZM12.334 27.7507C11.4861 27.7507 10.7602 27.4487 10.1564 26.8449C9.55256 26.2411 9.25065 25.5152 9.25065 24.6673V6.16732C9.25065 5.3194 9.55256 4.59353 10.1564 3.98971C10.7602 3.38589 11.4861 3.08398 12.334 3.08398H30.834C31.6819 3.08398 32.4078 3.38589 33.0116 3.98971C33.6154 4.59353 33.9173 5.3194 33.9173 6.16732V24.6673C33.9173 25.5152 33.6154 26.2411 33.0116 26.8449C32.4078 27.4487 31.6819 27.7507 30.834 27.7507H12.334ZM12.334 24.6673H30.834V6.16732H12.334V24.6673ZM6.16732 33.9173C5.3194 33.9173 4.59353 33.6154 3.98971 33.0116C3.38589 32.4078 3.08398 31.6819 3.08398 30.834V9.25065H6.16732V30.834H27.7507V33.9173H6.16732Z" fill="white"/>
</g>
</svg>
