<svg width="24" height="24" viewBox="0 0 24 24" fill="none" xmlns="http://www.w3.org/2000/svg">
<mask id="mask0_8055_7678" style="mask-type:alpha" maskUnits="userSpaceOnUse" x="0" y="0" width="24" height="24">
<rect width="24" height="24" fill="#D9D9D9"/>
</mask>
<g mask="url(#mask0_8055_7678)">
<path d="M18.0897 13.0479L16.612 11.5761L18.762 9.44413C17.874 9.32279 16.6584 9.42871 15.1152 9.76187C13.5721 10.095 11.869 11.178 10.006 13.0109C10.5193 11.049 11.5843 9.46346 13.201 8.25412C14.8177 7.04496 16.6507 6.43037 18.7 6.41037L16.612 4.34037L18.0897 2.86862L23.2032 7.95838L18.0897 13.0479ZM12.018 22.2034C9.23898 19.8922 7.17498 17.7405 5.82598 15.7481C4.47715 13.756 3.80273 11.8966 3.80273 10.1701C3.80273 7.82779 4.59865 5.84671 6.19048 4.22688C7.78232 2.60688 9.72482 1.79688 12.018 1.79688C12.6212 1.79688 13.2224 1.85938 13.8217 1.98438C14.4211 2.10938 14.9953 2.30087 15.5445 2.55887L13.7675 4.33588C13.4873 4.24388 13.1999 4.17588 12.9052 4.13188C12.6104 4.08788 12.3147 4.06588 12.018 4.06588C10.3505 4.06588 8.94257 4.65412 7.79423 5.83062C6.6459 7.00696 6.07173 8.45346 6.07173 10.1701C6.07173 11.3615 6.5514 12.6985 7.51073 14.1814C8.47023 15.6642 9.97265 17.327 12.018 19.1696C12.9702 18.3048 13.8202 17.4557 14.5682 16.6224C15.3162 15.789 15.9379 14.991 16.4332 14.2284L18.0745 15.8756C17.3878 16.863 16.5379 17.8872 15.5247 18.9484C14.5116 20.0097 13.3427 21.0947 12.018 22.2034Z" fill="#3F4443"/>
</g>
</svg>
