<svg width="30" height="20" viewBox="0 0 30 20" fill="none" xmlns="http://www.w3.org/2000/svg">
<path d="M29.1667 18.3333H0.833333C0.61232 18.3333 0.400358 18.4211 0.244078 18.5774C0.0877975 18.7337 0 18.9457 0 19.1667C0 19.3877 0.0877975 19.5996 0.244078 19.7559C0.400358 19.9122 0.61232 20 0.833333 20H29.1667C29.3877 20 29.5996 19.9122 29.7559 19.7559C29.9122 19.5996 30 19.3877 30 19.1667C30 18.9457 29.9122 18.7337 29.7559 18.5774C29.5996 18.4211 29.3877 18.3333 29.1667 18.3333ZM3.98167 16.6667H26.02C26.241 16.6667 26.453 16.5789 26.6093 16.4226C26.7655 16.2663 26.8533 16.0543 26.8533 15.8333C26.8533 9.23667 21.9817 3.83167 15.835 3.37667V1.66667H18.15C18.371 1.66645 18.5829 1.57844 18.739 1.422C18.8951 1.26556 18.9827 1.05351 18.9825 0.8325C18.9823 0.611486 18.8943 0.399613 18.7378 0.243489C18.5814 0.0873645 18.3693 -0.000220596 18.1483 4.17268e-07H11.8533C11.6323 -0.000220596 11.4203 0.0873645 11.2638 0.243489C11.1074 0.399613 11.0194 0.611486 11.0192 0.8325C11.0189 1.05351 11.1065 1.26556 11.2627 1.422C11.4188 1.57844 11.6307 1.66645 11.8517 1.66667H14.1667V3.37667C8.02 3.83167 3.14833 9.23667 3.14833 15.8333C3.14833 16.0543 3.23613 16.2663 3.39241 16.4226C3.54869 16.5789 3.76065 16.6667 3.98167 16.6667ZM15 5C20.3517 5 24.755 9.41333 25.155 15H4.845C5.245 9.41333 9.64833 5 15 5Z" fill="white"/>
</svg>
