<svg width="24" height="19" viewBox="0 0 24 19" fill="none" xmlns="http://www.w3.org/2000/svg">
<path d="M0.607623 16.3201H23.3924C23.728 16.3201 24 16.5243 24 16.6899V17.8702C24 18.0745 23.728 18.2401 23.3924 18.2401H0.607623C0.27204 18.2401 0 18.0358 0 17.8702V16.6899C0 16.4857 0.272027 16.3201 0.607623 16.3201Z" fill="white"/>
<path d="M2.89655 6.9522L0.709504 5.68587C0.491299 5.55955 0.204797 5.62256 0.0697409 5.82623C-0.0654901 6.03006 0.00196099 6.29768 0.219995 6.42384L2.40572 7.68969C2.55731 7.43799 2.72077 7.19206 2.89655 6.9522Z" fill="white"/>
<path d="M5.88273 3.96552C6.122 3.79033 6.3678 3.62684 6.62036 3.47502L5.35446 1.28828C5.2278 1.07051 4.96046 1.00371 4.75691 1.13881C4.55336 1.27392 4.49034 1.56017 4.61622 1.77827L5.88273 3.96552Z" fill="white"/>
<path d="M9.67299 1.90944H11.0606V4.25309C8.60145 4.49368 6.31865 5.65563 4.65637 7.51297C2.99421 9.37012 2.0717 11.7895 2.06885 14.2998C2.06868 14.4581 2.13061 14.6098 2.2408 14.7218C2.35082 14.8338 2.50016 14.8965 2.65591 14.8965H21.3437C21.4994 14.8965 21.6488 14.8338 21.759 14.7218C21.869 14.6098 21.9309 14.4581 21.9309 14.2998C21.9279 11.7895 21.0053 9.3699 19.3432 7.51297C17.6811 5.65563 15.3983 4.4937 12.939 4.25309V1.90944H14.3266C14.6622 1.90944 14.9724 1.72733 15.1403 1.43204C15.308 1.13657 15.308 0.772671 15.1403 0.477229C14.9724 0.181936 14.6623 0 14.3266 0H9.6728C9.33717 0 9.02703 0.181941 8.85911 0.477229C8.69138 0.772693 8.69138 1.1366 8.85911 1.43204C9.02701 1.72733 9.33715 1.90944 9.6728 1.90944H9.67299Z" fill="white"/>
<path d="M23.9299 5.82605C23.7947 5.62238 23.5084 5.55968 23.2903 5.68585L21.1033 6.95219C21.2789 7.19188 21.4425 7.43766 21.5941 7.68969L23.7798 6.42384C23.8847 6.36333 23.9595 6.26617 23.9875 6.15404C24.0157 6.04191 23.995 5.92383 23.9299 5.82605Z" fill="white"/>
<path d="M19.7848 1.77784C19.9353 1.55969 19.8597 1.2739 19.6156 1.13877C19.3715 1.00381 19.0511 1.07045 18.8989 1.28777L17.3795 3.47492C17.6821 3.62643 17.9774 3.78995 18.2647 3.96552L19.7848 1.77784Z" fill="white"/>
</svg>
