<svg width="18" height="14" viewBox="0 0 18 14" fill="none" xmlns="http://www.w3.org/2000/svg">
<path d="M5.9165 13.4956L4.74984 12.3289L5.83317 11.2456C4.37484 11.1622 3.14914 10.5997 2.15609 9.55806C1.16303 8.5164 0.666504 7.27334 0.666504 5.8289C0.666504 4.31501 1.19081 3.03376 2.23942 1.98515C3.28803 0.936537 4.56928 0.412231 6.08317 0.412231H8.99984V2.0789H6.08317C5.0415 2.0789 4.15609 2.44001 3.42692 3.16223C2.69775 3.88445 2.33317 4.7664 2.33317 5.80806C2.33317 6.79418 2.66303 7.6414 3.32275 8.34973C3.98248 9.05807 4.80539 9.4539 5.7915 9.53723L4.74984 8.49556L5.9165 7.3289L8.99984 10.4122L5.9165 13.4956ZM10.6665 11.2456V9.5789H17.3332V11.2456H10.6665ZM10.6665 6.66223V4.99556H17.3332V6.66223H10.6665ZM10.6665 2.0789V0.412231H17.3332V2.0789H10.6665Z" fill="#1E9ED9"/>
</svg>
