<svg width="16" height="16" viewBox="0 0 16 16" fill="none" xmlns="http://www.w3.org/2000/svg">
<path d="M2.16667 15.5C1.70833 15.5 1.31597 15.3368 0.989583 15.0104C0.663194 14.684 0.5 14.2917 0.5 13.8333V2.16667C0.5 1.70833 0.663194 1.31597 0.989583 0.989583C1.31597 0.663194 1.70833 0.5 2.16667 0.5H9.66667V2.16667H2.16667V13.8333H13.8333V6.33333H15.5V13.8333C15.5 14.2917 15.3368 14.684 15.0104 15.0104C14.684 15.3368 14.2917 15.5 13.8333 15.5H2.16667ZM12.1667 5.5V3.83333H10.5V2.16667H12.1667V0.5H13.8333V2.16667H15.5V3.83333H13.8333V5.5H12.1667ZM3 12.1667H13L9.875 8L7.375 11.3333L5.5 8.83333L3 12.1667Z" fill="#263941"/>
</svg>
