<svg width="22" height="22" viewBox="0 0 22 22" fill="none" xmlns="http://www.w3.org/2000/svg">
<path fill-rule="evenodd" clip-rule="evenodd" d="M13.2343 0L11.325 1.90804C10.6324 2.60066 10.5981 3.66596 11.1485 4.43628L7.68144 7.9034C7.63535 7.94948 7.60638 8.00611 7.57741 8.06141C5.8906 7.3622 3.81138 7.669 2.48273 8.99765L1.35951 10.1222L6.15264 14.914L0.19283 20.8738C-0.0639512 21.1306 -0.0639512 21.5467 0.19283 21.8048C0.321874 21.9325 0.490426 21.997 0.658978 21.997C0.82753 21.997 0.996082 21.9325 1.12381 21.8048L7.08361 15.845L11.8754 20.6381L13 19.5136C13.8704 18.6445 14.3497 17.487 14.3497 16.2558C14.3497 15.6119 14.2114 14.993 13.9625 14.4202C13.9941 14.3991 14.0297 14.386 14.0574 14.357L17.5403 10.8741C17.8747 11.1164 18.2724 11.2533 18.6938 11.2533C19.2218 11.2533 19.7169 11.0479 20.0909 10.6739L22.0002 8.76458L13.2343 0Z" fill="#FFB900"/>
</svg>
