<svg width="720" height="432" viewBox="0 0 720 432" fill="none" xmlns="http://www.w3.org/2000/svg">
<path d="M0 0H720V432H0V0Z" fill="white" fill-opacity="0.15"/>
<path d="M662.386 292.801H47.9855C45.3346 292.801 43.1855 294.95 43.1855 297.601V307.201C43.1855 309.852 45.3346 312.001 47.9855 312.001H662.386C665.037 312.001 667.186 309.852 667.186 307.201V297.601C667.186 294.95 665.037 292.801 662.386 292.801Z" fill="white" fill-opacity="0.5"/>
<path d="M662.386 350.399H47.9855C45.3346 350.399 43.1855 352.548 43.1855 355.199V364.799C43.1855 367.45 45.3346 369.599 47.9855 369.599H662.386C665.037 369.599 667.186 367.45 667.186 364.799V355.199C667.186 352.548 665.037 350.399 662.386 350.399Z" fill="white" fill-opacity="0.5"/>
<path d="M458.386 62.4014H453.586C452.26 62.4014 451.186 63.4759 451.186 64.8014V132.001C451.186 133.327 452.26 134.401 453.586 134.401H458.386C459.711 134.401 460.786 133.327 460.786 132.001V64.8014C460.786 63.4759 459.711 62.4014 458.386 62.4014Z" fill="white" fill-opacity="0.5"/>
<path d="M477.585 62.4014H472.785C471.459 62.4014 470.385 63.4759 470.385 64.8014V132.001C470.385 133.327 471.459 134.401 472.785 134.401H477.585C478.91 134.401 479.985 133.327 479.985 132.001V64.8014C479.985 63.4759 478.91 62.4014 477.585 62.4014Z" fill="white" fill-opacity="0.5"/>
<path d="M496.784 62.4014H491.984C490.659 62.4014 489.584 63.4759 489.584 64.8014V132.001C489.584 133.327 490.659 134.401 491.984 134.401H496.784C498.109 134.401 499.184 133.327 499.184 132.001V64.8014C499.184 63.4759 498.109 62.4014 496.784 62.4014Z" fill="white" fill-opacity="0.5"/>
<path d="M515.983 62.4014H511.183C509.858 62.4014 508.783 63.4759 508.783 64.8014V132.001C508.783 133.327 509.858 134.401 511.183 134.401H515.983C517.309 134.401 518.383 133.327 518.383 132.001V64.8014C518.383 63.4759 517.309 62.4014 515.983 62.4014Z" fill="white" fill-opacity="0.5"/>
<path d="M535.19 62.4014H530.39C529.065 62.4014 527.99 63.4759 527.99 64.8014V132.001C527.99 133.327 529.065 134.401 530.39 134.401H535.19C536.516 134.401 537.59 133.327 537.59 132.001V64.8014C537.59 63.4759 536.516 62.4014 535.19 62.4014Z" fill="white" fill-opacity="0.5"/>
<path d="M554.384 62.4014H549.584C548.258 62.4014 547.184 63.4759 547.184 64.8014V132.001C547.184 133.327 548.258 134.401 549.584 134.401H554.384C555.709 134.401 556.784 133.327 556.784 132.001V64.8014C556.784 63.4759 555.709 62.4014 554.384 62.4014Z" fill="white" fill-opacity="0.5"/>
<path d="M631.186 62.4014H626.386C625.061 62.4014 623.986 63.4759 623.986 64.8014V132.001C623.986 133.327 625.061 134.401 626.386 134.401H631.186C632.512 134.401 633.586 133.327 633.586 132.001V64.8014C633.586 63.4759 632.512 62.4014 631.186 62.4014Z" fill="white" fill-opacity="0.5"/>
<path d="M573.583 62.4014H568.783C567.457 62.4014 566.383 63.4759 566.383 64.8014V132.001C566.383 133.327 567.457 134.401 568.783 134.401H573.583C574.908 134.401 575.983 133.327 575.983 132.001V64.8014C575.983 63.4759 574.908 62.4014 573.583 62.4014Z" fill="white" fill-opacity="0.5"/>
<path d="M592.788 62.4014H587.988C586.662 62.4014 585.588 63.4759 585.588 64.8014V132.001C585.588 133.327 586.662 134.401 587.988 134.401H592.788C594.113 134.401 595.188 133.327 595.188 132.001V64.8014C595.188 63.4759 594.113 62.4014 592.788 62.4014Z" fill="white" fill-opacity="0.5"/>
<path d="M611.987 62.4014H607.187C605.862 62.4014 604.787 63.4759 604.787 64.8014V132.001C604.787 133.327 605.862 134.401 607.187 134.401H611.987C613.313 134.401 614.387 133.327 614.387 132.001V64.8014C614.387 63.4759 613.313 62.4014 611.987 62.4014Z" fill="white" fill-opacity="0.5"/>
<path d="M650.386 62.4014H645.586C644.26 62.4014 643.186 63.4759 643.186 64.8014V132.001C643.186 133.327 644.26 134.401 645.586 134.401H650.386C651.711 134.401 652.786 133.327 652.786 132.001V64.8014C652.786 63.4759 651.711 62.4014 650.386 62.4014Z" fill="white" fill-opacity="0.5"/>
<path d="M669.587 62.4014H664.787C663.461 62.4014 662.387 63.4759 662.387 64.8014V132.001C662.387 133.327 663.461 134.401 664.787 134.401H669.587C670.912 134.401 671.987 133.327 671.987 132.001V64.8014C671.987 63.4759 670.912 62.4014 669.587 62.4014Z" fill="white" fill-opacity="0.5"/>
<path d="M374.386 62.4014H47.9855C45.3346 62.4014 43.1855 64.5504 43.1855 67.2014V86.4014C43.1855 89.0523 45.3346 91.2014 47.9855 91.2014H374.386C377.037 91.2014 379.186 89.0523 379.186 86.4014V67.2014C379.186 64.5504 377.037 62.4014 374.386 62.4014Z" fill="white" fill-opacity="0.5"/>
<path d="M374.386 129.603H47.9855C45.3346 129.603 43.1855 131.752 43.1855 134.403V153.603C43.1855 156.254 45.3346 158.403 47.9855 158.403H374.386C377.037 158.403 379.186 156.254 379.186 153.603V134.403C379.186 131.752 377.037 129.603 374.386 129.603Z" fill="white" fill-opacity="0.5"/>
</svg>
