<svg width="720" height="432" viewBox="0 0 720 432" fill="none" xmlns="http://www.w3.org/2000/svg">
<path d="M0 0H720V432H0V0Z" fill="white" fill-opacity="0.15"/>
<path d="M346.204 309.114C346.409 309.068 346.608 309.068 346.791 309.023C347.103 308.106 347.716 307.328 348.527 306.824C349.792 305.832 350.446 305.038 348.866 303.785C347.756 302.839 348.123 301.96 349.271 301.297C349.579 301.25 349.873 301.131 350.129 300.949C350.385 300.767 350.596 300.527 350.747 300.248C350.898 299.969 350.984 299.658 350.998 299.34C351.012 299.021 350.954 298.704 350.829 298.412C350.49 297.238 350.044 296.099 349.498 295.011C348.123 293.622 347.49 291.61 345.821 290.431C343.879 288.029 341.735 285.804 339.415 283.782C336.4 281.27 332.867 279.487 329.083 278.567C329.14 278.379 329.124 278.176 329.038 278L326.221 278.266C325.994 278.465 325.75 278.555 325.589 278.771C324.795 280.831 324.285 282.995 324.075 285.199H324.729C324.685 285.244 324.64 285.244 324.64 285.289C324.457 285.199 324.258 285.046 324.086 285.199C323.51 285.987 322.716 286.579 321.806 286.899C319.194 287.995 316.344 288.359 313.548 287.954C312.945 287.609 312.318 287.307 311.674 287.052C307.791 285.352 307.386 285.556 306.51 289.762C306.25 290.792 305.763 291.747 305.085 292.554C304.407 293.362 303.557 293.999 302.6 294.418C301.643 294.837 300.606 295.026 299.566 294.97C298.527 294.915 297.514 294.616 296.605 294.098C295.192 293.327 293.668 292.791 292.09 292.511C291.77 292.425 291.432 292.427 291.112 292.515C290.792 292.604 290.5 292.776 290.266 293.015C288.979 294.183 288.779 294.291 287.898 292.687C287.469 291.903 286.877 291.225 286.164 290.7C285.451 290.175 284.634 289.816 283.771 289.648C281.862 289.191 279.991 288.581 278.175 287.823C276.689 287.16 276.012 287.602 276.057 289.099C276.037 292.47 275.757 295.834 275.219 299.16C274.769 302.434 274.156 305.682 273.383 308.893C273.334 309.278 273.184 309.642 272.95 309.948C272.716 310.254 272.406 310.49 272.052 310.633C271.104 310.854 270.633 310.015 270.25 309.357C268.747 306.973 267.363 304.514 266.101 301.988C264.881 299.324 263.145 296.927 261.725 294.455C260.167 291.7 256.606 291.088 255.342 288.135C255.115 287.693 254.233 287.387 253.562 287.256C252.232 286.883 250.885 286.582 249.524 286.355C248.554 286.179 247.494 285.788 246.635 286.31C245.775 286.729 245.958 287.806 245.686 288.645C245.531 289.212 245.054 289.546 244.76 290.057C244.017 291.27 243.612 292.5 245.187 293.514C246.158 294.132 246.158 295.101 246.069 296.156C245.769 299.54 245.581 302.907 245.298 306.206C245.093 308.411 245.026 310.655 244.71 312.877C243.806 318.585 242.808 324.35 241.843 329.945C241.255 330.41 240.806 330.891 240.218 331.356C240.218 331.923 239.924 332.49 240.218 333.006C240.011 333.752 239.951 334.533 240.04 335.303C240.13 336.074 240.367 336.819 240.739 337.495C241.848 338.946 242.996 340.448 244.144 341.899C245.947 344.167 248.071 344.099 249.263 341.417C250.471 338.788 251.423 336.045 252.109 333.227C252.968 330.035 253.329 326.776 254.028 323.591C254.976 322.95 254.771 321.89 254.887 320.972C255.134 317.882 255.594 314.813 256.263 311.789C256.223 309.519 256.306 307.248 256.512 304.987C256.695 303.621 256.85 303.162 257.144 302.827C257.202 302.751 257.277 302.69 257.363 302.651C257.45 302.613 257.544 302.597 257.638 302.606C258.33 302.771 258.973 303.104 259.513 303.576C260.067 304.613 260.622 305.599 261.226 306.568C264.088 311.062 267.394 315.243 271.093 319.045C272.587 320.867 274.596 322.174 276.844 322.786C277.373 323.059 277.973 323.157 278.559 323.067C279.145 322.977 279.69 322.702 280.116 322.281C280.32 322.094 280.506 321.887 280.671 321.663C281.054 321.618 281.436 321.533 281.78 321.488C281.938 320.628 282.321 319.829 282.889 319.175C282.845 318.608 283.272 318.041 282.889 317.474C283.448 316.048 283.716 314.521 283.677 312.985C283.633 309.879 283.882 306.795 284.06 303.757C284.033 303.565 284.062 303.369 284.141 303.193C284.221 303.018 284.349 302.869 284.509 302.765C285.141 302.436 285.502 302.765 285.884 303.094C286.271 303.638 286.686 304.16 287.127 304.658C288.45 306.476 289.936 308.165 291.563 309.703C292.105 310.26 292.775 310.668 293.512 310.89C294.249 311.111 295.029 311.138 295.779 310.968C296.529 310.798 297.225 310.437 297.802 309.919C298.379 309.4 298.818 308.741 299.078 308.003C299.734 306.735 300.233 305.389 300.565 303.995C300.565 303.739 300.628 303.488 300.749 303.264C300.87 303.04 301.044 302.851 301.255 302.715C301.467 302.578 301.709 302.499 301.959 302.484C302.208 302.469 302.458 302.519 302.683 302.629C303.641 302.84 304.637 302.795 305.573 302.499C308.764 301.611 311.828 300.3 314.685 298.599C315.111 298.482 315.496 298.244 315.796 297.913C316.095 297.582 316.296 297.171 316.377 296.728C317.641 296.224 317.142 294.461 318.384 294.064C321.351 292.847 324.528 292.256 327.724 292.324C329.991 292.991 332.422 292.739 334.512 291.621C334.959 291.443 335.356 291.155 335.666 290.782C335.977 290.409 336.192 289.963 336.293 289.484C336.631 288.35 337.402 288.35 338.051 288.957C339.809 290.323 341.794 291.576 341.794 294.109C340.921 295.262 339.76 296.152 338.433 296.689L337.324 296.819C337.141 296.972 336.831 297.148 336.648 297.323C336.542 297.534 336.384 297.712 336.189 297.84C335.994 297.967 335.77 298.04 335.538 298.049C335.067 298.378 334.59 298.689 334.141 299.018C333.806 299.059 333.474 299.125 333.148 299.217C332.788 299.88 332.133 299.88 331.484 300.056C331.181 300.38 330.773 300.582 330.336 300.622C330.047 300.999 329.625 301.243 329.16 301.303C329.012 301.473 328.831 301.611 328.629 301.708C328.427 301.806 328.208 301.86 327.985 301.869C327.76 302.105 327.489 302.289 327.19 302.41C326.891 302.531 326.57 302.586 326.249 302.572C326.095 302.748 325.907 302.889 325.697 302.987C325.487 303.084 325.259 303.136 325.029 303.139C324.627 303.697 324.118 304.165 323.532 304.513C322.946 304.861 322.296 305.082 321.623 305.163C321.535 305.667 321.69 306.461 321.069 306.574C318.521 307.529 316.126 308.866 313.964 310.542C313.038 310.61 312.045 310.672 311.119 310.808C310.605 311.684 309.806 312.346 308.862 312.679V313.813C306.765 315.088 304.619 316.346 302.5 317.554C301.128 317.715 299.848 318.344 298.868 319.339C296.713 321.069 294.208 322.287 291.536 322.905C290.293 323.676 289.234 324.996 287.881 325.24C285.108 325.705 283.056 327.949 280.211 328.125C275.302 330.972 270.219 333.492 264.992 335.67C262.103 337.081 262.103 337.036 262.774 339.921C263.45 340.539 263.362 341.417 263.495 342.188C263.677 342.301 263.829 342.458 263.936 342.646C264.042 342.835 264.101 343.048 264.105 343.265C264.842 343.955 265.721 344.467 266.678 344.762C266.793 344.851 266.914 344.932 267.039 345.006C269.198 345.99 271.607 346.252 273.921 345.754H274.193C274.576 345.006 275.613 345.334 276.068 344.62C278.502 343.696 281.031 342.795 283.511 341.786C290.166 338.855 296.616 335.466 303.227 332.535C310.309 329.344 317.236 325.818 324.186 322.429C325.495 321.979 326.728 321.325 327.84 320.49C328.855 320.643 329.554 319.696 330.614 319.651C331.503 319.026 332.476 318.537 333.503 318.2C334.363 317.537 335.167 316.834 336.032 316.131C335.965 315.955 335.76 315.91 335.627 315.802C335.651 315.778 335.682 315.762 335.716 315.757C335.805 315.91 335.965 316.001 336.032 316.131C336.544 316.038 337.049 315.913 337.546 315.757C337.602 315.624 337.632 315.482 337.635 315.337C339.5 314.748 341.18 313.669 342.51 312.208C343.327 311.224 344.386 310.479 345.577 310.049C345.76 309.76 346.048 309.386 346.253 309.057L346.204 309.114Z" fill="white" fill-opacity="0.5"/>
<path d="M669.028 235.205H406.202C404.552 235.205 403.215 237.354 403.215 240.005V249.605C403.215 252.256 404.552 254.405 406.202 254.405H669.028C670.678 254.405 672.015 252.256 672.015 249.605V240.005C672.015 237.354 670.678 235.205 669.028 235.205Z" fill="white" fill-opacity="0.5"/>
<path d="M669.028 292.804H406.202C404.552 292.804 403.215 294.953 403.215 297.604V307.204C403.215 309.855 404.552 312.004 406.202 312.004H669.028C670.678 312.004 672.015 309.855 672.015 307.204V297.604C672.015 294.953 670.678 292.804 669.028 292.804Z" fill="white" fill-opacity="0.5"/>
<path d="M669.028 350.404H406.202C404.552 350.404 403.215 352.553 403.215 355.204V364.804C403.215 367.455 404.552 369.604 406.202 369.604H669.028C670.678 369.604 672.015 367.455 672.015 364.804V355.204C672.015 352.553 670.678 350.404 669.028 350.404Z" fill="white" fill-opacity="0.5"/>
<path d="M667.22 62.3975H244.82C242.169 62.3975 240.02 64.5465 240.02 67.1975V86.3975C240.02 89.0484 242.169 91.1975 244.82 91.1975H667.22C669.871 91.1975 672.02 89.0484 672.02 86.3975V67.1975C672.02 64.5465 669.871 62.3975 667.22 62.3975Z" fill="white" fill-opacity="0.5"/>
<path d="M667.22 129.599H244.82C242.169 129.599 240.02 131.748 240.02 134.399V153.599C240.02 156.25 242.169 158.399 244.82 158.399H667.22C669.871 158.399 672.02 156.25 672.02 153.599V134.399C672.02 131.748 669.871 129.599 667.22 129.599Z" fill="white" fill-opacity="0.5"/>
<path d="M209.298 62.3975H54.7376C51.0262 62.3975 48.0176 67.0179 48.0176 72.7175V258.477C48.0176 264.177 51.0262 268.797 54.7376 268.797H209.298C213.009 268.797 216.018 264.177 216.018 258.477V72.7175C216.018 67.0179 213.009 62.3975 209.298 62.3975Z" fill="white" fill-opacity="0.5"/>
</svg>
