<svg width="242" height="145" viewBox="0 0 242 145" fill="none" xmlns="http://www.w3.org/2000/svg">
<path d="M235.778 0H6.92289C3.59675 0 0.900391 2.69636 0.900391 6.02249V138.517C0.900391 141.844 3.59675 144.54 6.92289 144.54H235.778C239.104 144.54 241.8 141.844 241.8 138.517V6.02249C241.8 2.69636 239.104 0 235.778 0Z" fill="#EDF7FC"/>
<path d="M222.523 97.9658H16.9556C16.0686 97.9658 15.3496 98.6849 15.3496 99.5718V102.784C15.3496 103.671 16.0686 104.39 16.9556 104.39H222.523C223.41 104.39 224.129 103.671 224.129 102.784V99.5718C224.129 98.6849 223.41 97.9658 222.523 97.9658Z" fill="#4BB1E0" fill-opacity="0.4"/>
<path d="M222.523 117.237H16.9556C16.0686 117.237 15.3496 117.956 15.3496 118.843V122.055C15.3496 122.942 16.0686 123.661 16.9556 123.661H222.523C223.41 123.661 224.129 122.942 224.129 122.055V118.843C224.129 117.956 223.41 117.237 222.523 117.237Z" fill="#4BB1E0" fill-opacity="0.4"/>
<path d="M154.268 20.8779H152.662C152.219 20.8779 151.859 21.2374 151.859 21.6809V44.1649C151.859 44.6084 152.219 44.9679 152.662 44.9679H154.268C154.712 44.9679 155.071 44.6084 155.071 44.1649V21.6809C155.071 21.2374 154.712 20.8779 154.268 20.8779Z" fill="#4BB1E0" fill-opacity="0.4"/>
<path d="M160.692 20.8779H159.086C158.643 20.8779 158.283 21.2374 158.283 21.6809V44.1649C158.283 44.6084 158.643 44.9679 159.086 44.9679H160.692C161.136 44.9679 161.495 44.6084 161.495 44.1649V21.6809C161.495 21.2374 161.136 20.8779 160.692 20.8779Z" fill="#4BB1E0" fill-opacity="0.4"/>
<path d="M167.116 20.8779H165.51C165.067 20.8779 164.707 21.2374 164.707 21.6809V44.1649C164.707 44.6084 165.067 44.9679 165.51 44.9679H167.116C167.56 44.9679 167.919 44.6084 167.919 44.1649V21.6809C167.919 21.2374 167.56 20.8779 167.116 20.8779Z" fill="#4BB1E0" fill-opacity="0.4"/>
<path d="M173.54 20.8779H171.934C171.49 20.8779 171.131 21.2374 171.131 21.6809V44.1649C171.131 44.6084 171.49 44.9679 171.934 44.9679H173.54C173.983 44.9679 174.343 44.6084 174.343 44.1649V21.6809C174.343 21.2374 173.983 20.8779 173.54 20.8779Z" fill="#4BB1E0" fill-opacity="0.4"/>
<path d="M179.966 20.8779H178.36C177.916 20.8779 177.557 21.2374 177.557 21.6809V44.1649C177.557 44.6084 177.916 44.9679 178.36 44.9679H179.966C180.409 44.9679 180.769 44.6084 180.769 44.1649V21.6809C180.769 21.2374 180.409 20.8779 179.966 20.8779Z" fill="#4BB1E0" fill-opacity="0.4"/>
<path d="M186.388 20.8779H184.782C184.338 20.8779 183.979 21.2374 183.979 21.6809V44.1649C183.979 44.6084 184.338 44.9679 184.782 44.9679H186.388C186.831 44.9679 187.191 44.6084 187.191 44.1649V21.6809C187.191 21.2374 186.831 20.8779 186.388 20.8779Z" fill="#4BB1E0" fill-opacity="0.4"/>
<path d="M212.085 20.8779H210.479C210.035 20.8779 209.676 21.2374 209.676 21.6809V44.1649C209.676 44.6084 210.035 44.9679 210.479 44.9679H212.085C212.528 44.9679 212.888 44.6084 212.888 44.1649V21.6809C212.888 21.2374 212.528 20.8779 212.085 20.8779Z" fill="#4BB1E0" fill-opacity="0.4"/>
<path d="M192.811 20.8779H191.205C190.762 20.8779 190.402 21.2374 190.402 21.6809V44.1649C190.402 44.6084 190.762 44.9679 191.205 44.9679H192.811C193.255 44.9679 193.614 44.6084 193.614 44.1649V21.6809C193.614 21.2374 193.255 20.8779 192.811 20.8779Z" fill="#4BB1E0" fill-opacity="0.4"/>
<path d="M199.237 20.8779H197.631C197.188 20.8779 196.828 21.2374 196.828 21.6809V44.1649C196.828 44.6084 197.188 44.9679 197.631 44.9679H199.237C199.681 44.9679 200.04 44.6084 200.04 44.1649V21.6809C200.04 21.2374 199.681 20.8779 199.237 20.8779Z" fill="#4BB1E0" fill-opacity="0.4"/>
<path d="M205.661 20.8779H204.055C203.611 20.8779 203.252 21.2374 203.252 21.6809V44.1649C203.252 44.6084 203.611 44.9679 204.055 44.9679H205.661C206.104 44.9679 206.464 44.6084 206.464 44.1649V21.6809C206.464 21.2374 206.104 20.8779 205.661 20.8779Z" fill="#4BB1E0" fill-opacity="0.4"/>
<path d="M218.509 20.8779H216.903C216.459 20.8779 216.1 21.2374 216.1 21.6809V44.1649C216.1 44.6084 216.459 44.9679 216.903 44.9679H218.509C218.952 44.9679 219.312 44.6084 219.312 44.1649V21.6809C219.312 21.2374 218.952 20.8779 218.509 20.8779Z" fill="#4BB1E0" fill-opacity="0.4"/>
<path d="M224.932 20.8779H223.326C222.883 20.8779 222.523 21.2374 222.523 21.6809V44.1649C222.523 44.6084 222.883 44.9679 223.326 44.9679H224.932C225.376 44.9679 225.735 44.6084 225.735 44.1649V21.6809C225.735 21.2374 225.376 20.8779 224.932 20.8779Z" fill="#4BB1E0" fill-opacity="0.4"/>
<path d="M126.164 20.8779H16.9556C16.0686 20.8779 15.3496 21.597 15.3496 22.4839V28.9079C15.3496 29.7949 16.0686 30.5139 16.9556 30.5139H126.164C127.05 30.5139 127.77 29.7949 127.77 28.9079V22.4839C127.77 21.597 127.05 20.8779 126.164 20.8779Z" fill="#4BB1E0" fill-opacity="0.4"/>
<path d="M126.164 43.3623H16.9556C16.0686 43.3623 15.3496 44.0813 15.3496 44.9683V51.3923C15.3496 52.2793 16.0686 52.9983 16.9556 52.9983H126.164C127.05 52.9983 127.77 52.2793 127.77 51.3923V44.9683C127.77 44.0813 127.05 43.3623 126.164 43.3623Z" fill="#4BB1E0" fill-opacity="0.4"/>
</svg>
