<svg width="18" height="16" viewBox="0 0 18 16" fill="none" xmlns="http://www.w3.org/2000/svg">
<path d="M0 0.116211V16.0001H7.09225V10.4246H10.9078V16.0001H18V0.116211H0ZM5.28841 13.0356H1.47287V10.4246H5.28841V13.0356ZM5.28841 8.61784H1.47287V6.00685H5.28841V8.61784ZM5.28841 4.20003H1.47287V1.58908H5.28841V4.20003ZM10.9078 8.61784H7.09225V6.00685H10.9078V8.61784ZM10.9078 4.20003H7.09225V1.58908H10.9078V4.20003ZM16.5271 13.0356H12.7116V10.4246H16.5271V13.0356ZM16.5271 8.61784H12.7116V6.00685H16.5271V8.61784ZM16.5271 4.20003H12.7116V1.58908H16.5271V4.20003Z" fill="black"/>
</svg>
