<svg width="18" height="18" viewBox="0 0 18 18" fill="none" xmlns="http://www.w3.org/2000/svg">
<g clip-path="url(#clip0_146_3684)">
<path d="M0 2.11621V18.0001H7.09225V12.4246H10.9078V18.0001H18V2.11621H0ZM5.28841 15.0356H1.47287V12.4246H5.28841V15.0356ZM5.28841 10.6178H1.47287V8.00685H5.28841V10.6178ZM5.28841 6.20003H1.47287V3.58908H5.28841V6.20003ZM10.9078 10.6178H7.09225V8.00685H10.9078V10.6178ZM10.9078 6.20003H7.09225V3.58908H10.9078V6.20003ZM16.5271 15.0356H12.7116V12.4246H16.5271V15.0356ZM16.5271 10.6178H12.7116V8.00685H16.5271V10.6178ZM16.5271 6.20003H12.7116V3.58908H16.5271V6.20003Z" fill="#1E9ED9"/>
<path d="M17.1969 0H0.802979V1.04685H17.1969V0Z" fill="#1E9ED9"/>
</g>
<defs>
<clipPath id="clip0_146_3684">
<rect width="18" height="18" fill="white"/>
</clipPath>
</defs>
</svg>
