<svg width="18" height="12" viewBox="0 0 18 12" fill="none" xmlns="http://www.w3.org/2000/svg">
<path d="M17.5 11H0.5C0.367392 11 0.240215 11.0527 0.146447 11.1464C0.0526785 11.2402 0 11.3674 0 11.5C0 11.6326 0.0526785 11.7598 0.146447 11.8536C0.240215 11.9473 0.367392 12 0.5 12H17.5C17.6326 12 17.7598 11.9473 17.8536 11.8536C17.9473 11.7598 18 11.6326 18 11.5C18 11.3674 17.9473 11.2402 17.8536 11.1464C17.7598 11.0527 17.6326 11 17.5 11ZM2.389 10H15.612C15.7446 10 15.8718 9.94732 15.9656 9.85355C16.0593 9.75979 16.112 9.63261 16.112 9.5C16.112 5.542 13.189 2.299 9.501 2.026V1H10.89C11.0226 0.999868 11.1497 0.947062 11.2434 0.8532C11.3371 0.759338 11.3896 0.632108 11.3895 0.4995C11.3894 0.366892 11.3366 0.239768 11.2427 0.146093C11.1488 0.0524187 11.0216 -0.000132358 10.889 2.50361e-07H7.112C6.97939 -0.000132358 6.85216 0.0524187 6.7583 0.146093C6.66444 0.239768 6.61163 0.366892 6.6115 0.4995C6.61137 0.632108 6.66392 0.759338 6.75759 0.8532C6.85127 0.947062 6.97839 0.999868 7.111 1H8.5V2.026C4.812 2.299 1.889 5.542 1.889 9.5C1.889 9.63261 1.94168 9.75979 2.03545 9.85355C2.12921 9.94732 2.25639 10 2.389 10ZM9 3C12.211 3 14.853 5.648 15.093 9H2.907C3.147 5.648 5.789 3 9 3Z" fill="white"/>
</svg>
