<svg width="24" height="24" viewBox="0 0 24 24" fill="none" xmlns="http://www.w3.org/2000/svg">
<path d="M12.389 23.9366H10.824C10.2571 23.9361 9.71363 23.7107 9.31279 23.3098C8.91195 22.909 8.68653 22.3655 8.686 21.7986V21.6856C8.68568 21.6219 8.66505 21.5599 8.62711 21.5086C8.58917 21.4574 8.53589 21.4196 8.475 21.4006C8.11096 21.2748 7.75496 21.1269 7.409 20.9576C7.35183 20.9292 7.28729 20.919 7.22414 20.9284C7.16098 20.9379 7.10228 20.9666 7.056 21.0106L6.977 21.0896C6.5698 21.4792 6.02802 21.6966 5.4645 21.6966C4.90098 21.6966 4.3592 21.4792 3.952 21.0896L2.845 19.9836C2.44496 19.5823 2.22033 19.0388 2.22033 18.4721C2.22033 17.9055 2.44496 17.3619 2.845 16.9606L2.927 16.8786C2.97171 16.8331 3.00075 16.7746 3.00993 16.7115C3.0191 16.6484 3.00791 16.5839 2.978 16.5276C2.80944 16.1818 2.66184 15.8262 2.536 15.4626C2.51709 15.4018 2.47926 15.3485 2.42801 15.3105C2.37676 15.2726 2.31476 15.252 2.251 15.2516H2.138C1.57096 15.2511 1.0273 15.0255 0.626434 14.6245C0.225568 14.2234 0.000264726 13.6797 0 13.1126V11.5476C0.000529538 10.9808 0.225955 10.4373 0.626793 10.0364C1.02763 9.6356 1.57113 9.41017 2.138 9.40964H2.251C2.31476 9.40932 2.37676 9.38868 2.42801 9.35074C2.47926 9.3128 2.51709 9.25953 2.536 9.19864C2.66224 8.83525 2.80983 8.47963 2.978 8.13364C3.00837 8.07677 3.01962 8.01164 3.01008 7.94788C3.00053 7.88411 2.9707 7.82511 2.925 7.77963L2.846 7.70062C2.44566 7.29926 2.22083 6.75552 2.22083 6.18863C2.22083 5.62174 2.44566 5.07799 2.846 4.67664L3.953 3.57062C4.36038 3.18183 4.90187 2.9649 5.465 2.9649C6.02813 2.9649 6.56962 3.18183 6.977 3.57062L7.058 3.65164C7.10449 3.69499 7.16311 3.72309 7.22602 3.73221C7.28893 3.74132 7.35312 3.731 7.41 3.70264C7.75571 3.53383 8.11136 3.3862 8.475 3.26062C8.53605 3.24165 8.58945 3.2037 8.62741 3.15225C8.66537 3.1008 8.68589 3.03857 8.686 2.97464V2.86163C8.68653 2.29476 8.91195 1.75127 9.31279 1.35043C9.71363 0.949595 10.2571 0.724162 10.824 0.723633H12.389C12.9559 0.724162 13.4994 0.949595 13.9002 1.35043C14.301 1.75127 14.5265 2.29476 14.527 2.86163V2.97464C14.5273 3.0384 14.5479 3.10039 14.5859 3.15164C14.6238 3.20289 14.6771 3.24073 14.738 3.25964C15.1015 3.38554 15.4572 3.53313 15.803 3.70163C15.857 3.74029 15.9238 3.7565 15.9895 3.7468C16.0552 3.73709 16.1145 3.70224 16.155 3.64963L16.236 3.56964C16.6434 3.18085 17.1849 2.96393 17.748 2.96393C18.3111 2.96393 18.8526 3.18085 19.26 3.56964L20.366 4.67563C20.5646 4.87417 20.7221 5.10989 20.8296 5.36932C20.9371 5.62876 20.9924 5.90681 20.9924 6.18762C20.9924 6.46844 20.9371 6.74652 20.8296 7.00595C20.7221 7.26538 20.5646 7.50111 20.366 7.69965L20.286 7.77863C20.2414 7.82479 20.2124 7.88377 20.2031 7.94727C20.1938 8.01076 20.2046 8.07559 20.234 8.13263C20.4031 8.47856 20.5507 8.83458 20.676 9.19864C20.6961 9.25867 20.7342 9.31102 20.7853 9.34845C20.8363 9.38588 20.8977 9.40654 20.961 9.40762H21.075C21.6419 9.40815 22.1854 9.63359 22.5862 10.0344C22.9871 10.4353 23.2125 10.9788 23.213 11.5456V13.1106C23.2125 13.6775 22.9871 14.221 22.5862 14.6219C22.1854 15.0227 21.6419 15.2481 21.075 15.2486H20.961C20.8974 15.2497 20.8358 15.2706 20.7847 15.3085C20.7336 15.3463 20.6956 15.3991 20.676 15.4596C20.5499 15.8236 20.402 16.1795 20.233 16.5256C20.2038 16.5826 20.1932 16.6473 20.2027 16.7107C20.2122 16.774 20.2413 16.8327 20.286 16.8786L20.365 16.9576C20.7658 17.3586 20.9909 17.9023 20.9909 18.4691C20.9909 19.036 20.7658 19.5797 20.365 19.9806L19.259 21.0866C18.8517 21.4757 18.3102 21.6927 17.747 21.6927C17.1838 21.6927 16.6423 21.4757 16.235 21.0866L16.155 21.0066C16.1145 20.954 16.0552 20.9192 15.9895 20.9095C15.9238 20.8998 15.857 20.916 15.803 20.9546C15.4575 21.1231 15.1022 21.2707 14.739 21.3966C14.6778 21.4154 14.6241 21.4533 14.586 21.5048C14.5478 21.5563 14.5272 21.6186 14.527 21.6826V21.7956C14.5273 22.363 14.3022 22.9073 13.9013 23.3088C13.5003 23.7103 12.9564 23.9361 12.389 23.9366ZM7.266 19.0916C7.59384 19.0921 7.91729 19.167 8.212 19.3106C8.49168 19.4466 8.77918 19.5658 9.073 19.6676C9.49372 19.8121 9.85897 20.0841 10.1179 20.4457C10.3769 20.8074 10.5168 21.2408 10.518 21.6856V21.7986C10.5183 21.8795 10.5505 21.9569 10.6076 22.014C10.6648 22.0711 10.7422 22.1034 10.823 22.1036H12.388C12.4688 22.1034 12.5462 22.0711 12.6034 22.014C12.6605 21.9569 12.6927 21.8795 12.693 21.7986V21.6856C12.694 21.2407 12.8337 20.8072 13.0927 20.4455C13.3517 20.0838 13.7171 19.8118 14.138 19.6676C14.4314 19.5656 14.7186 19.4464 14.998 19.3106C15.3986 19.1186 15.8484 19.0539 16.2868 19.1254C16.7253 19.197 17.1312 19.4012 17.45 19.7106L17.529 19.7896C17.5573 19.8181 17.591 19.8406 17.6281 19.856C17.6651 19.8714 17.7049 19.8793 17.745 19.8793C17.7851 19.8793 17.8249 19.8714 17.8619 19.856C17.899 19.8406 17.9327 19.8181 17.961 19.7896L19.067 18.6836C19.1242 18.6263 19.1562 18.5486 19.1562 18.4676C19.1562 18.3866 19.1242 18.309 19.067 18.2516L18.987 18.1716C18.6738 17.8554 18.467 17.4493 18.3953 17.01C18.3236 16.5708 18.3906 16.1201 18.587 15.7206C18.7232 15.4411 18.8424 15.1535 18.944 14.8596C19.0882 14.4386 19.36 14.0731 19.7218 13.8139C20.0835 13.5547 20.517 13.4148 20.962 13.4136H21.076C21.1568 13.4134 21.2342 13.3811 21.2914 13.324C21.3485 13.2669 21.3807 13.1895 21.381 13.1086V11.5436C21.3807 11.4628 21.3485 11.3854 21.2914 11.3282C21.2342 11.2711 21.1568 11.2389 21.076 11.2386H20.962C20.5172 11.2374 20.0838 11.0975 19.7221 10.8386C19.3604 10.5796 19.0885 10.2144 18.944 9.79364C18.8427 9.49996 18.7234 9.21274 18.587 8.93362C18.3903 8.53392 18.3231 8.08285 18.3948 7.64319C18.4665 7.20352 18.6735 6.79714 18.987 6.48062L19.068 6.39963C19.1251 6.34244 19.1572 6.26495 19.1572 6.18414C19.1572 6.10333 19.1251 6.02581 19.068 5.96863L17.962 4.86163C17.9337 4.83321 17.9 4.81067 17.8629 4.79529C17.8259 4.7799 17.7861 4.77197 17.746 4.77197C17.7059 4.77197 17.6661 4.7799 17.6291 4.79529C17.592 4.81067 17.5583 4.83321 17.53 4.86163L17.45 4.94162C17.131 5.25067 16.7251 5.45468 16.2867 5.52618C15.8484 5.59769 15.3987 5.5333 14.998 5.34164C14.7184 5.2055 14.4309 5.08626 14.137 4.98462C13.7163 4.84024 13.3511 4.56826 13.0923 4.20654C12.8335 3.84483 12.6939 3.41142 12.693 2.96664V2.85364C12.6927 2.77283 12.6605 2.69539 12.6034 2.63824C12.5462 2.5811 12.4688 2.54891 12.388 2.54865H10.823C10.7422 2.54891 10.6648 2.5811 10.6076 2.63824C10.5505 2.69539 10.5183 2.77283 10.518 2.85364V2.96664C10.5168 3.41163 10.3769 3.84516 10.1177 4.20688C9.85854 4.56859 9.49299 4.84045 9.072 4.98462C8.77822 5.08655 8.49071 5.20579 8.211 5.34164C7.81055 5.5335 7.36093 5.59801 6.92269 5.52649C6.48446 5.45497 6.07867 5.25083 5.76 4.94162L5.679 4.85962C5.62182 4.80252 5.54431 4.77048 5.4635 4.77048C5.38269 4.77048 5.30519 4.80252 5.248 4.85962L4.141 5.96564C4.08408 6.02312 4.05215 6.10075 4.05215 6.18164C4.05215 6.26253 4.08408 6.34016 4.141 6.39764L4.22 6.47662C4.53373 6.79298 4.7409 7.19936 4.81261 7.6391C4.88431 8.07883 4.81698 8.52999 4.62 8.92963C4.4845 9.2095 4.3653 9.49698 4.263 9.79062C4.11874 10.211 3.84706 10.576 3.48574 10.8348C3.12443 11.0936 2.69144 11.2333 2.247 11.2346H2.134C2.05319 11.2349 1.97577 11.2671 1.91862 11.3242C1.86148 11.3814 1.82927 11.4588 1.829 11.5396V13.1046C1.82927 13.1855 1.86148 13.2629 1.91862 13.32C1.97577 13.3771 2.05319 13.4094 2.134 13.4096H2.247C2.6917 13.4109 3.12493 13.5508 3.48643 13.8098C3.84793 14.0688 4.11972 14.434 4.264 14.8546C4.36599 15.1484 4.4852 15.4359 4.621 15.7156C4.81737 16.1151 4.88437 16.5658 4.81268 17.0051C4.74099 17.4443 4.53417 17.8503 4.221 18.1666L4.139 18.2486C4.08215 18.3059 4.05025 18.3834 4.05025 18.4641C4.05025 18.5449 4.08215 18.6223 4.139 18.6796L5.246 19.7856C5.27434 19.8141 5.308 19.8366 5.34506 19.852C5.38213 19.8674 5.42187 19.8753 5.462 19.8753C5.50213 19.8753 5.54187 19.8674 5.57893 19.852C5.616 19.8366 5.64967 19.8141 5.678 19.7856L5.757 19.7066C5.95537 19.5094 6.19088 19.3536 6.4499 19.248C6.70892 19.1424 6.9863 19.0893 7.266 19.0916Z" fill="#4F4F4F"/>
<path d="M11.6062 18.0056C10.4836 18.0056 9.38618 17.6727 8.45276 17.049C7.51935 16.4253 6.79184 15.5388 6.36224 14.5017C5.93264 13.4645 5.82023 12.3233 6.03924 11.2222C6.25825 10.1212 6.79884 9.10982 7.59264 8.31601C8.38644 7.52221 9.39781 6.98165 10.4988 6.76264C11.5999 6.54363 12.7411 6.656 13.7783 7.0856C14.8154 7.51521 15.7019 8.24274 16.3256 9.17615C16.9493 10.1096 17.2822 11.207 17.2822 12.3296C17.2803 13.8344 16.6817 15.277 15.6177 16.341C14.5536 17.4051 13.111 18.0037 11.6062 18.0056ZM11.6062 8.48557C10.8459 8.48557 10.1027 8.71101 9.47057 9.1334C8.83843 9.55578 8.34573 10.1561 8.05478 10.8585C7.76384 11.5609 7.68772 12.3338 7.83604 13.0795C7.98436 13.8252 8.35046 14.5101 8.88806 15.0477C9.42565 15.5853 10.1106 15.9514 10.8562 16.0997C11.6019 16.248 12.3748 16.1719 13.0772 15.881C13.7796 15.59 14.38 15.0973 14.8023 14.4652C15.2247 13.833 15.4502 13.0898 15.4502 12.3296C15.4489 11.3106 15.0434 10.3337 14.3228 9.61325C13.6021 8.89281 12.6252 8.48663 11.6062 8.48557Z" fill="#4F4F4F"/>
</svg>
