<svg width="24" height="24" viewBox="0 0 24 24" fill="none" xmlns="http://www.w3.org/2000/svg">
<mask id="mask0_8055_7899" style="mask-type:alpha" maskUnits="userSpaceOnUse" x="0" y="0" width="24" height="24">
<rect width="24" height="24" fill="#D9D9D9"/>
</mask>
<g mask="url(#mask0_8055_7899)">
<path d="M2 12.7759V15.4827C2 15.9062 2.34332 16.2495 2.76686 16.2495H5.25447V13.334C5.25447 12.3196 5.50074 11.3623 5.93433 10.516C5.03455 10.4626 4.22192 10.0818 3.61328 9.49121C2.63223 10.2509 2 11.4392 2 12.7759Z" fill="#263941"/>
<path d="M7.85079 8.29181C7.46193 7.65333 7.23784 6.90411 7.23784 6.10354C7.23784 5.61599 7.32194 5.14801 7.47473 4.71204C7.08981 4.47604 6.63717 4.33984 6.1526 4.33984C4.75343 4.33984 3.61914 5.47399 3.61914 6.87322C3.61914 8.27239 4.75343 9.40668 6.1526 9.40668C6.34528 9.40668 6.53268 9.38443 6.71308 9.34364C7.0468 8.94756 7.42918 8.59427 7.85079 8.29181Z" fill="#263941"/>
<path d="M14.7316 13.4355C15.1423 13.4355 15.5442 13.5267 15.91 13.6971L16.5413 13.2354C16.5091 11.5471 15.6554 10.0608 14.3623 9.15918C13.605 9.87953 12.5821 10.3231 11.457 10.3231C10.3318 10.3231 9.30896 9.87953 8.55162 9.15925C7.23343 10.0784 6.37012 11.6048 6.37012 13.3338V16.6495C6.37012 17.1683 6.79069 17.5888 7.30949 17.5888H12.2807C12.0583 17.1875 11.9312 16.7264 11.9312 16.236C11.9312 14.6917 13.1875 13.4355 14.7316 13.4355Z" fill="#263941"/>
<path d="M11.4578 9.20663C13.1717 9.20663 14.5611 7.81723 14.5611 6.10332C14.5611 4.3894 13.1717 3 11.4578 3C9.7439 3 8.35449 4.3894 8.35449 6.10332C8.35449 7.81723 9.7439 9.20663 11.4578 9.20663Z" fill="#263941"/>
<path d="M20.3909 18.2745C20.1352 18.2745 19.8943 18.3357 19.6795 18.4418L16.6632 16.2355L19.6576 14.0452C19.8777 14.1581 20.1265 14.2231 20.3908 14.2231C21.2302 14.2231 21.9187 13.5804 21.9931 12.7605C22.0796 11.7972 21.3185 11.0039 20.3908 11.0039C19.5019 11.0039 18.7812 11.7246 18.7812 12.6135C18.7812 12.6872 18.7879 12.7592 18.7975 12.8302L15.7938 15.0272C15.4991 14.7688 15.1221 14.6259 14.7327 14.6259C13.8438 14.6259 13.123 15.3465 13.123 16.2355C13.123 17.1244 13.8438 17.8452 14.7327 17.8452C15.1251 17.8452 15.5014 17.7007 15.7938 17.4437L18.8011 19.6435C18.7893 19.7222 18.7812 19.8021 18.7812 19.8841C18.7812 20.7731 19.5019 21.4938 20.3908 21.4938C21.2773 21.4938 22.0005 20.7752 22.0005 19.8841C22.0006 18.9978 21.282 18.2745 20.3909 18.2745Z" fill="#263941"/>
</g>
</svg>
