<svg width="19" height="19" viewBox="0 0 19 19" fill="none" xmlns="http://www.w3.org/2000/svg">
<path d="M2.33341 16.7456C1.87508 16.7456 1.48272 16.5824 1.15633 16.256C0.829943 15.9296 0.666748 15.5372 0.666748 15.0789V5.91223C0.666748 5.4539 0.829943 5.06154 1.15633 4.73515C1.48272 4.40876 1.87508 4.24556 2.33341 4.24556H5.66675V2.5789C5.66675 2.12056 5.82994 1.7282 6.15633 1.40181C6.48272 1.07543 6.87508 0.912231 7.33341 0.912231H10.6667C11.1251 0.912231 11.5174 1.07543 11.8438 1.40181C12.1702 1.7282 12.3334 2.12056 12.3334 2.5789V4.24556H15.6667C16.1251 4.24556 16.5174 4.40876 16.8438 4.73515C17.1702 5.06154 17.3334 5.4539 17.3334 5.91223V9.47473C17.0834 9.29418 16.8195 9.13793 16.5417 9.00598C16.264 8.87404 15.9723 8.75945 15.6667 8.66223V5.91223H2.33341V15.0789H8.22925C8.27091 15.3706 8.33341 15.6553 8.41675 15.9331C8.50008 16.2108 8.60425 16.4817 8.72925 16.7456H2.33341ZM7.33341 4.24556H10.6667V2.5789H7.33341V4.24556ZM14.0001 18.4122C12.8473 18.4122 11.8647 18.006 11.0522 17.1935C10.2397 16.381 9.83341 15.3983 9.83341 14.2456C9.83341 13.0928 10.2397 12.1101 11.0522 11.2976C11.8647 10.4851 12.8473 10.0789 14.0001 10.0789C15.1529 10.0789 16.1355 10.4851 16.948 11.2976C17.7605 12.1101 18.1667 13.0928 18.1667 14.2456C18.1667 15.3983 17.7605 16.381 16.948 17.1935C16.1355 18.006 15.1529 18.4122 14.0001 18.4122ZM15.3751 16.2039L15.9584 15.6206L14.4167 14.0789V11.7456H13.5834V14.4122L15.3751 16.2039Z" fill="#1E9ED9"/>
</svg>
