<svg width="21" height="19" viewBox="0 0 21 19" fill="none" xmlns="http://www.w3.org/2000/svg">
<path d="M9.4585 18.875V16.7917H17.7918V9.39583C17.7918 7.36458 17.0844 5.64149 15.6694 4.22656C14.2545 2.81163 12.5314 2.10417 10.5002 2.10417C8.46891 2.10417 6.74582 2.81163 5.33089 4.22656C3.91596 5.64149 3.2085 7.36458 3.2085 9.39583V15.75H2.16683C1.59391 15.75 1.10346 15.546 0.695475 15.138C0.287489 14.73 0.0834961 14.2396 0.0834961 13.6667V11.5833C0.0834961 11.2188 0.174642 10.8759 0.356934 10.5547C0.539225 10.2335 0.795302 9.97743 1.12516 9.78646L1.20329 8.40625C1.34218 7.22569 1.68506 6.13194 2.23193 5.125C2.77881 4.11806 3.46457 3.24132 4.28923 2.49479C5.11388 1.74826 6.06006 1.16667 7.12777 0.75C8.19548 0.333333 9.31961 0.125 10.5002 0.125C11.6807 0.125 12.8005 0.333333 13.8595 0.75C14.9186 1.16667 15.8647 1.74392 16.6981 2.48177C17.5314 3.21962 18.2172 4.09201 18.7554 5.09896C19.2936 6.1059 19.6408 7.19965 19.797 8.38021L19.8752 9.73438C20.205 9.89062 20.4611 10.125 20.6434 10.4375C20.8257 10.75 20.9168 11.0799 20.9168 11.4271V13.8229C20.9168 14.1701 20.8257 14.5 20.6434 14.8125C20.4611 15.125 20.205 15.3594 19.8752 15.5156V16.7917C19.8752 17.3646 19.6712 17.855 19.2632 18.263C18.8552 18.671 18.3647 18.875 17.7918 18.875H9.4585ZM7.37516 11.5833C7.08002 11.5833 6.83263 11.4835 6.63298 11.2839C6.43332 11.0842 6.3335 10.8368 6.3335 10.5417C6.3335 10.2465 6.43332 9.99913 6.63298 9.79948C6.83263 9.59983 7.08002 9.5 7.37516 9.5C7.6703 9.5 7.9177 9.59983 8.11735 9.79948C8.317 9.99913 8.41683 10.2465 8.41683 10.5417C8.41683 10.8368 8.317 11.0842 8.11735 11.2839C7.9177 11.4835 7.6703 11.5833 7.37516 11.5833ZM13.6252 11.5833C13.33 11.5833 13.0826 11.4835 12.883 11.2839C12.6833 11.0842 12.5835 10.8368 12.5835 10.5417C12.5835 10.2465 12.6833 9.99913 12.883 9.79948C13.0826 9.59983 13.33 9.5 13.6252 9.5C13.9203 9.5 14.1677 9.59983 14.3674 9.79948C14.567 9.99913 14.6668 10.2465 14.6668 10.5417C14.6668 10.8368 14.567 11.0842 14.3674 11.2839C14.1677 11.4835 13.9203 11.5833 13.6252 11.5833ZM4.27621 9.96875C4.15468 8.12847 4.71023 6.54861 5.94287 5.22917C7.17551 3.90972 8.71197 3.25 10.5522 3.25C12.0974 3.25 13.4559 3.74045 14.6278 4.72135C15.7996 5.70226 16.5071 6.9566 16.7502 8.48438C15.1703 8.46701 13.7163 8.04167 12.3882 7.20833C11.0601 6.375 10.0401 5.24653 9.32829 3.82292C9.05051 5.21181 8.46457 6.44878 7.57048 7.53385C6.67638 8.61892 5.57829 9.43056 4.27621 9.96875Z" fill="#ED4A1C"/>
</svg>
