<svg width="24" height="22" viewBox="0 0 24 22" fill="none" xmlns="http://www.w3.org/2000/svg">
<path d="M12.565 12.1977C13.3283 12.1924 14.0625 12.4903 14.6063 13.026C15.1501 13.5617 15.4589 14.2914 15.465 15.0547V16.4807C15.665 19.9807 12.928 21.7237 7.854 21.7237C2.8 21.7247 0 20.0027 0 16.5307V15.0557C0.00581375 14.2922 0.314555 13.5623 0.858357 13.0264C1.40216 12.4904 2.13652 12.1924 2.9 12.1977H12.565ZM20.304 12.1977C21.0673 12.1924 21.8015 12.4903 22.3453 13.026C22.8891 13.5617 23.1979 14.2914 23.204 15.0547V16.0547C23.379 19.1967 20.961 20.7687 16.542 20.7687C15.9775 20.7707 15.4134 20.742 14.852 20.6827C15.3802 20.1957 15.7961 19.5997 16.071 18.9359C16.3459 18.2721 16.4732 17.5565 16.444 16.8387L16.432 16.4267V15.0547C16.4319 14.5123 16.3149 13.9762 16.089 13.483C15.8632 12.9898 15.5337 12.5511 15.123 12.1967L20.304 12.1977ZM7.738 0.768706C8.36835 0.763829 8.99349 0.88316 9.57772 1.11989C10.1619 1.35661 10.6938 1.7061 11.143 2.14839C11.5922 2.59068 11.9498 3.11711 12.1955 3.69762C12.4412 4.27813 12.5702 4.90136 12.575 5.53171C12.5702 6.16206 12.4412 6.78528 12.1955 7.36579C11.9498 7.9463 11.5922 8.47273 11.143 8.91502C10.6938 9.35731 10.1619 9.7068 9.57772 9.94353C8.99349 10.1803 8.36835 10.2996 7.738 10.2947C7.10748 10.2997 6.48216 10.1804 5.89775 9.94372C5.31333 9.70699 4.78129 9.35743 4.33201 8.91503C3.88273 8.47262 3.52502 7.94603 3.27931 7.36533C3.0336 6.78464 2.90471 6.16123 2.9 5.53071C2.90497 4.90036 3.03405 4.27716 3.27988 3.69669C3.52571 3.11623 3.88346 2.58988 4.33271 2.14768C4.78197 1.70548 5.31392 1.35611 5.8982 1.1195C6.48249 0.882897 7.10765 0.763696 7.738 0.768706ZM17.409 2.66871C18.4273 2.66098 19.4069 3.05803 20.1325 3.77252C20.858 4.48702 21.2701 5.46044 21.278 6.47871C21.2701 7.49697 20.858 8.4704 20.1325 9.18489C19.4069 9.89938 18.4273 10.2964 17.409 10.2887C16.3907 10.2964 15.4111 9.89938 14.6855 9.18489C13.96 8.4704 13.5479 7.49697 13.54 6.47871C13.5479 5.46044 13.96 4.48702 14.6855 3.77252C15.4111 3.05803 16.3907 2.66098 17.409 2.66871Z" fill="#4F4F4F"/>
</svg>
