<svg width="22" height="22" viewBox="0 0 22 22" fill="none" xmlns="http://www.w3.org/2000/svg">
<path d="M13.0729 21.875C12.6389 21.875 12.27 21.7231 11.9661 21.4193C11.6623 21.1154 11.5104 20.7465 11.5104 20.3125V13.0208C11.5104 12.5868 11.6623 12.2179 11.9661 11.9141C12.27 11.6102 12.6389 11.4583 13.0729 11.4583H20.3646C20.7986 11.4583 21.1675 11.6102 21.4714 11.9141C21.7752 12.2179 21.9271 12.5868 21.9271 13.0208V20.3125C21.9271 20.7465 21.7752 21.1154 21.4714 21.4193C21.1675 21.7231 20.7986 21.875 20.3646 21.875H13.0729ZM13.0729 20.3125H20.3646V19.4792C19.9306 18.941 19.401 18.5113 18.776 18.1901C18.151 17.8689 17.4653 17.7083 16.7188 17.7083C15.9722 17.7083 15.2865 17.8689 14.6615 18.1901C14.0365 18.5113 13.5069 18.941 13.0729 19.4792V20.3125ZM16.7188 16.6667C17.1528 16.6667 17.5217 16.5148 17.8255 16.2109C18.1293 15.9071 18.2812 15.5382 18.2812 15.1042C18.2812 14.6701 18.1293 14.3012 17.8255 13.9974C17.5217 13.6936 17.1528 13.5417 16.7188 13.5417C16.2847 13.5417 15.9158 13.6936 15.612 13.9974C15.3082 14.3012 15.1563 14.6701 15.1563 15.1042C15.1563 15.5382 15.3082 15.9071 15.612 16.2109C15.9158 16.5148 16.2847 16.6667 16.7188 16.6667ZM10.5208 6.77083C9.51389 6.77083 8.65451 7.12674 7.94271 7.83854C7.2309 8.55035 6.875 9.40972 6.875 10.4167C6.875 11.25 7.10938 11.9792 7.57813 12.6042C8.04688 13.2292 8.6632 13.6632 9.42708 13.9062V11.5625C9.2882 11.4236 9.17535 11.2457 9.08854 11.0286C9.00174 10.8116 8.95833 10.6076 8.95833 10.4167C8.95833 9.98264 9.11024 9.61372 9.41406 9.3099C9.71788 9.00608 10.0868 8.85417 10.5208 8.85417C10.7639 8.85417 10.9809 8.90191 11.1719 8.9974C11.3628 9.09288 11.5278 9.21875 11.6667 9.375H14.0104C13.7847 8.61111 13.355 7.98611 12.7214 7.5C12.0877 7.01389 11.3542 6.77083 10.5208 6.77083ZM7.60417 20.8333L7.1875 17.5C6.96181 17.4132 6.74913 17.309 6.54948 17.1875C6.34983 17.066 6.15451 16.9358 5.96354 16.7969L2.86458 18.099L0 13.151L2.68229 11.1198C2.66493 10.9983 2.65625 10.8811 2.65625 10.7682V10.0651C2.65625 9.95226 2.66493 9.83507 2.68229 9.71354L0 7.68229L2.86458 2.73438L5.96354 4.03646C6.15451 3.89757 6.35417 3.76736 6.5625 3.64583C6.77083 3.52431 6.97917 3.42014 7.1875 3.33333L7.60417 0H13.3333L13.75 3.33333C13.9757 3.42014 14.1884 3.52431 14.388 3.64583C14.5877 3.76736 14.783 3.89757 14.974 4.03646L18.0729 2.73438L20.9375 7.68229L18.724 9.375H16.0938C16.0764 9.28819 16.059 9.19705 16.0417 9.10156C16.0243 9.00608 15.9983 8.91493 15.9635 8.82812L18.2031 7.13542L17.1875 5.36458L14.6094 6.45833C14.2274 6.05903 13.8064 5.72483 13.3464 5.45573C12.8863 5.18663 12.3872 4.98264 11.849 4.84375L11.5104 2.08333H9.45312L9.08854 4.84375C8.55035 4.98264 8.05122 5.18663 7.59115 5.45573C7.13108 5.72483 6.71007 6.05035 6.32813 6.43229L3.75 5.36458L2.73438 7.13542L4.97396 8.80208C4.88715 9.0625 4.82639 9.32292 4.79167 9.58333C4.75694 9.84375 4.73958 10.1215 4.73958 10.4167C4.73958 10.6944 4.75694 10.9635 4.79167 11.224C4.82639 11.4844 4.88715 11.7448 4.97396 12.0052L2.73438 13.6979L3.75 15.4688L6.32813 14.375C6.74479 14.809 7.21354 15.1736 7.73438 15.4688C8.25521 15.7639 8.81945 15.9549 9.42708 16.0417V20.8333H7.60417Z" fill="#4F4F4F"/>
</svg>
