<svg width="15" height="13" viewBox="0 0 15 13" fill="none" xmlns="http://www.w3.org/2000/svg">
<path d="M7.47814 12.3562C5.63109 12.3562 3.78405 12.3562 1.937 12.3562C1.68993 12.3603 1.44874 12.2779 1.25252 12.1224C1.05631 11.9668 0.916548 11.7472 0.855894 11.4991C0.815955 11.3338 0.809099 11.1618 0.835747 10.9937C0.862394 10.8256 0.921982 10.6649 1.01084 10.5216C1.94111 8.86321 2.86786 7.20274 3.79109 5.54014C4.68439 3.93529 5.57944 2.33013 6.47626 0.724674C6.55718 0.559381 6.67524 0.416636 6.82052 0.30845C6.9658 0.200264 7.13404 0.129801 7.31109 0.102992C7.48814 0.0761827 7.66881 0.0938106 7.83791 0.154392C8.00701 0.214974 8.15959 0.316738 8.28281 0.45112C8.36252 0.540808 8.43168 0.639981 8.48882 0.746558C10.3141 4.01644 12.138 7.28754 13.9604 10.5599C14.0759 10.7408 14.1402 10.9516 14.146 11.1684C14.1519 11.3852 14.0991 11.5994 13.9936 11.7867C13.8881 11.9741 13.7341 12.1271 13.549 12.2285C13.3639 12.33 13.1551 12.3758 12.9462 12.3608C11.1238 12.3608 9.30141 12.3608 7.47902 12.3608L7.47814 12.3562ZM6.74038 5.97326C6.74038 6.35168 6.74038 6.73101 6.74038 7.10943C6.7361 7.30816 6.74316 7.50699 6.7615 7.70486C6.7874 7.8745 6.87454 8.02762 7.00529 8.13325C7.13604 8.23888 7.30065 8.28914 7.46581 8.27385C7.8567 8.27385 8.17892 8.05774 8.18596 7.70304C8.20621 6.5614 8.20269 5.42342 8.18596 4.27723C8.18165 4.14554 8.13269 4.01962 8.04769 3.92158C7.96269 3.82354 7.84707 3.75963 7.72112 3.74106C7.13831 3.61796 6.73157 3.8751 6.73509 4.50975C6.73509 4.99759 6.73509 5.48543 6.73509 5.97326M7.46405 10.7969C7.56008 10.799 7.65555 10.7812 7.7449 10.7447C7.83426 10.7082 7.91571 10.6537 7.98452 10.5843C8.05334 10.5149 8.10814 10.432 8.14575 10.3404C8.18335 10.2489 8.20301 10.1505 8.20357 10.051C8.20591 9.85032 8.13116 9.65685 7.99577 9.51321C7.86039 9.36957 7.67546 9.28751 7.48166 9.28509C7.28786 9.28267 7.10107 9.36009 6.96238 9.50031C6.8237 9.64054 6.74447 9.83208 6.74214 10.0328C6.7405 10.1322 6.75795 10.231 6.79345 10.3234C6.82895 10.4158 6.88181 10.5 6.94897 10.5711C7.01612 10.6422 7.09623 10.6987 7.18465 10.7375C7.27307 10.7763 7.36804 10.7965 7.46405 10.7969Z" fill="#263941"/>
</svg>
