<svg width="206" height="38" viewBox="0 0 206 38" fill="none" xmlns="http://www.w3.org/2000/svg">
<path d="M53.5557 11.1528H64.9416C67.5283 11.1528 69.4592 11.7937 70.7395 13.0753C72.0197 14.357 72.6598 16.001 72.6598 18.0128C72.6598 19.5151 72.3293 20.7915 71.6629 21.842C70.9966 22.8925 70.1728 23.5544 69.1811 23.817V25.1249C70.1728 25.272 70.9074 25.6712 71.3901 26.3225C71.8728 26.9738 72.1614 28.0139 72.2611 29.4426L72.77 36.5547H68.966L68.5305 30.3145C68.457 29.1537 68.2891 28.2765 68.0215 27.683C67.7539 27.0894 67.3184 26.6692 66.715 26.4118C66.1116 26.1597 65.2144 26.0284 64.0338 26.0284H57.1813V36.5547H53.5557V11.1528ZM67.0036 22.6404C67.607 22.4355 68.032 22.0311 68.2734 21.427C68.5147 20.823 68.6354 19.8933 68.6354 18.6326C68.6354 17.372 68.5147 16.4423 68.2734 15.8382C68.032 15.2341 67.607 14.8297 67.0036 14.6248C66.4002 14.42 65.482 14.3149 64.249 14.3149H57.1813V22.9503H64.249C65.482 22.9503 66.4002 22.8453 67.0036 22.6404Z" fill="white"/>
<path d="M78.877 35.8507C77.4603 35.0418 76.3846 33.8967 75.6501 32.4207C74.9102 30.9447 74.543 29.2166 74.543 27.2311C74.543 25.2456 74.9102 23.5122 75.6501 22.0204C76.3846 20.5339 77.4603 19.3836 78.877 18.5747C80.2884 17.7658 81.9989 17.3613 84.0085 17.3613C86.0181 17.3613 87.7128 17.7658 89.1033 18.5747C90.4937 19.3836 91.5431 20.5287 92.2567 22.0047C92.9703 23.4807 93.3271 25.2246 93.3271 27.2311C93.3271 29.2376 92.965 30.9447 92.241 32.4207C91.5169 33.8967 90.4518 35.0418 89.0508 35.8507C87.6499 36.6596 85.9551 37.0693 83.977 37.0693C81.9989 37.0693 80.2989 36.6649 78.8822 35.8507H78.877ZM87.6341 33.3452C88.3845 33.0195 88.8882 32.4155 89.1558 31.5278C89.4233 30.6453 89.5545 29.2113 89.5545 27.2258C89.5545 25.2403 89.4233 23.8011 89.1558 22.9081C88.8882 22.0152 88.374 21.4006 87.6131 21.075C86.8523 20.7493 85.635 20.5865 83.9718 20.5865C82.3085 20.5865 81.0544 20.7493 80.2936 21.075C79.5328 21.4006 79.0134 22.0204 78.7353 22.9239C78.4572 23.8326 78.3208 25.2666 78.3208 27.2258C78.3208 29.1851 78.4572 30.6138 78.7353 31.5067C79.0134 32.3997 79.5328 33.0143 80.2936 33.3399C81.0544 33.6656 82.2822 33.8284 83.9718 33.8284C85.6613 33.8284 86.8838 33.6656 87.6341 33.3399V33.3452Z" fill="white"/>
<path d="M99.1094 35.8507C97.6927 35.0418 96.6171 33.8967 95.8825 32.4207C95.1427 30.9447 94.7754 29.2166 94.7754 27.2311C94.7754 25.2456 95.1427 23.5122 95.8825 22.0204C96.6171 20.5339 97.6927 19.3836 99.1094 18.5747C100.521 17.7658 102.231 17.3613 104.241 17.3613C106.25 17.3613 107.945 17.7658 109.336 18.5747C110.726 19.3836 111.776 20.5287 112.489 22.0047C113.203 23.4807 113.56 25.2246 113.56 27.2311C113.56 29.2376 113.197 30.9447 112.473 32.4207C111.749 33.8967 110.684 35.0418 109.283 35.8507C107.882 36.6596 106.188 37.0693 104.209 37.0693C102.231 37.0693 100.531 36.6649 99.1146 35.8507H99.1094ZM107.867 33.3452C108.617 33.0195 109.121 32.4155 109.388 31.5278C109.656 30.6453 109.787 29.2113 109.787 27.2258C109.787 25.2403 109.656 23.8011 109.388 22.9081C109.121 22.0152 108.606 21.4006 107.846 21.075C107.085 20.7493 105.867 20.5865 104.204 20.5865C102.541 20.5865 101.287 20.7493 100.526 21.075C99.7652 21.4006 99.2458 22.0204 98.9677 22.9239C98.6896 23.8326 98.5532 25.2666 98.5532 27.2258C98.5532 29.1851 98.6896 30.6138 98.9677 31.5067C99.2458 32.3997 99.7652 33.0143 100.526 33.3399C101.287 33.6656 102.515 33.8284 104.204 33.8284C105.894 33.8284 107.116 33.6656 107.867 33.3399V33.3452Z" fill="white"/>
<path d="M116.199 17.8708H119.536L119.646 19.5044H120.733C121.289 18.8268 122.034 18.3016 122.963 17.9234C123.891 17.5504 124.888 17.3613 125.953 17.3613C127.018 17.3613 128 17.5662 128.834 17.9759C129.668 18.3856 130.324 19.0159 130.812 19.8616H131.935C132.491 19.0895 133.252 18.4749 134.217 18.0284C135.183 17.5819 136.306 17.3561 137.591 17.3561C139.595 17.3561 141.143 17.8866 142.229 18.9529C143.316 20.0192 143.861 21.637 143.861 23.8169V36.5545H140.382V24.9042C140.382 23.5962 140.272 22.635 140.057 22.0204C139.837 21.4059 139.433 20.9804 138.845 20.7493C138.252 20.5182 137.329 20.4026 136.069 20.4026C134.81 20.4026 133.887 20.5182 133.294 20.7493C132.701 20.9804 132.297 21.4006 132.082 22.0204C131.861 22.635 131.756 23.612 131.756 24.9409V36.5545H128.278V24.9042C128.278 23.5962 128.168 22.635 127.952 22.0204C127.737 21.4059 127.328 20.9804 126.74 20.7493C126.147 20.5182 125.224 20.4026 123.965 20.4026C122.705 20.4026 121.782 20.5182 121.189 20.7493C120.596 20.9804 120.192 21.4006 119.977 22.0204C119.757 22.635 119.652 23.612 119.652 24.9409V36.5545H116.21V17.8656H116.199V17.8708Z" fill="white"/>
<path d="M150.026 35.94C148.867 35.1889 147.959 34.0858 147.308 32.6203C146.658 31.1548 146.327 29.3847 146.327 27.3046C146.327 25.0775 146.684 23.2233 147.398 21.7316C148.111 20.2451 149.066 19.142 150.262 18.4276C151.459 17.7133 152.781 17.3561 154.234 17.3561C155.467 17.3561 156.58 17.5872 157.571 18.0442C158.563 18.5064 159.313 19.0737 159.817 19.7513H160.903V11.1475H164.345V36.5546H160.971L160.898 34.6689H159.812C159.303 35.3465 158.537 35.9137 157.508 36.376C156.48 36.8382 155.341 37.0641 154.082 37.0641C152.534 37.0641 151.181 36.6911 150.021 35.94H150.026ZM159.145 33.382C159.885 33.0563 160.363 32.4575 160.578 31.5856C160.798 30.7136 160.903 29.2639 160.903 27.2311C160.903 25.1983 160.793 23.7118 160.578 22.8399C160.363 21.9679 159.885 21.3691 159.145 21.0435C158.406 20.7178 157.183 20.555 155.467 20.555C153.752 20.555 152.529 20.7178 151.805 21.0435C151.081 21.3691 150.614 21.9679 150.409 22.8399C150.205 23.7118 150.1 25.1773 150.1 27.2311C150.1 29.2849 150.205 30.7451 150.409 31.6066C150.614 32.468 151.081 33.0563 151.805 33.382C152.529 33.7076 153.752 33.8705 155.467 33.8705C157.183 33.8705 158.411 33.7076 159.145 33.382Z" fill="white"/>
<path d="M171.323 35.8507C169.907 35.0418 168.831 33.8967 168.096 32.4207C167.357 30.9447 166.989 29.2166 166.989 27.2311C166.989 25.2456 167.357 23.5122 168.096 22.0204C168.831 20.5339 169.907 19.3836 171.323 18.5747C172.735 17.7658 174.445 17.3613 176.455 17.3613C178.464 17.3613 180.159 17.7658 181.55 18.5747C182.94 19.3836 183.989 20.5287 184.703 22.0047C185.417 23.4807 185.773 25.2246 185.773 27.2311C185.773 29.2376 185.411 30.9447 184.687 32.4207C183.963 33.8967 182.898 35.0418 181.497 35.8507C180.096 36.6596 178.401 37.0693 176.423 37.0693C174.445 37.0693 172.745 36.6649 171.328 35.8507H171.323ZM180.08 33.3452C180.831 33.0195 181.334 32.4155 181.602 31.5278C181.87 30.6453 182.001 29.2113 182.001 27.2258C182.001 25.2403 181.87 23.8011 181.602 22.9081C181.334 22.0152 180.82 21.4006 180.059 21.075C179.299 20.7493 178.081 20.5865 176.418 20.5865C174.755 20.5865 173.501 20.7493 172.74 21.075C171.979 21.4006 171.46 22.0204 171.182 22.9239C170.903 23.8326 170.767 25.2666 170.767 27.2258C170.767 29.1851 170.903 30.6138 171.182 31.5067C171.46 32.3997 171.979 33.0143 172.74 33.3399C173.501 33.6656 174.729 33.8284 176.418 33.8284C178.108 33.8284 179.33 33.6656 180.08 33.3399V33.3452Z" fill="white"/>
<path d="M191.551 35.8507C190.134 35.0418 189.058 33.8967 188.324 32.4207C187.584 30.9447 187.217 29.2166 187.217 27.2311C187.217 25.2456 187.584 23.5122 188.324 22.0204C189.058 20.5339 190.134 19.3836 191.551 18.5747C192.962 17.7658 194.673 17.3613 196.682 17.3613C198.692 17.3613 200.387 17.7658 201.777 18.5747C203.168 19.3836 204.217 20.5287 204.931 22.0047C205.644 23.4807 206.001 25.2246 206.001 27.2311C206.001 29.2376 205.639 30.9447 204.915 32.4207C204.191 33.8967 203.126 35.0418 201.725 35.8507C200.324 36.6596 198.629 37.0693 196.651 37.0693C194.673 37.0693 192.973 36.6649 191.556 35.8507H191.551ZM200.308 33.3452C201.058 33.0195 201.562 32.4155 201.83 31.5278C202.097 30.6453 202.228 29.2113 202.228 27.2258C202.228 25.2403 202.097 23.8011 201.83 22.9081C201.562 22.0152 201.048 21.4006 200.287 21.075C199.526 20.7493 198.309 20.5865 196.646 20.5865C194.982 20.5865 193.728 20.7493 192.967 21.075C192.207 21.4006 191.687 22.0204 191.409 22.9239C191.131 23.8326 190.995 25.2666 190.995 27.2258C190.995 29.1851 191.131 30.6138 191.409 31.5067C191.687 32.3997 192.207 33.0143 192.967 33.3399C193.728 33.6656 194.956 33.8284 196.646 33.8284C198.335 33.8284 199.558 33.6656 200.308 33.3399V33.3452Z" fill="white"/>
<path d="M35.8892 13.112H35.8997L27.8561 6.57239L20.694 0.752444C19.4557 -0.250814 17.6875 -0.250814 16.4492 0.752444L9.28712 6.57764L1.24353 13.112C0.456486 13.7528 0 14.714 0 15.7278V33.6971C0 35.5566 1.50588 37.0641 3.3633 37.0641H11.1603C11.4384 37.0641 11.664 36.8382 11.664 36.5598L11.6745 22.9449C11.7899 19.1735 12.9757 18.5327 18.611 18.5327C24.5715 18.5327 25.4688 19.205 25.4688 23.6645C25.4688 28.1241 24.5715 28.7649 18.611 28.7649C18.1387 28.7649 17.8974 29.3374 18.2279 29.6736L25.2799 36.9118C25.3743 37.0116 25.5055 37.0641 25.6419 37.0641H33.7694C35.6269 37.0641 37.1327 35.5566 37.1327 33.6971V15.7278C37.1327 14.714 36.6763 13.7528 35.8892 13.112Z" fill="white"/>
</svg>
