<svg width="226" height="57" viewBox="0 0 226 57" fill="none" xmlns="http://www.w3.org/2000/svg">
<path d="M158.889 53.746C157.497 53.2041 156.241 52.3591 155.211 51.2715C154.185 50.1729 153.39 48.8768 152.874 47.4611C152.325 45.9339 152.053 44.3198 152.07 42.6958C152.023 40.6622 152.486 38.6494 153.416 36.8437C154.273 35.2242 155.55 33.8696 157.113 32.9251C158.776 31.9575 160.671 31.4692 162.591 31.5138C163.436 31.5094 164.278 31.6267 165.091 31.8619C165.854 32.0795 166.576 32.4194 167.231 32.8686C167.853 33.2961 168.395 33.8294 168.835 34.4446H168.961V22.684H175.588V42.6581C175.636 44.8517 175.136 47.0224 174.134 48.9712C173.205 50.7388 171.778 52.1906 170.031 53.1438C168.127 54.1491 166.002 54.6524 163.852 54.6068C162.159 54.64 160.474 54.3478 158.889 53.746ZM166.502 48.1009C167.263 47.5921 167.865 46.8758 168.236 46.0357C168.645 45.1077 168.849 44.1014 168.835 43.0862C168.851 42.0785 168.647 41.0795 168.236 40.1602C167.86 39.328 167.259 38.6189 166.502 38.1138C165.706 37.5995 164.775 37.3373 163.829 37.3612C162.89 37.3347 161.966 37.5973 161.179 38.1138C160.428 38.6256 159.829 39.3328 159.445 40.1602C159.02 41.0755 158.808 42.076 158.824 43.0862C158.809 44.1038 159.022 45.1116 159.445 46.0357C159.824 46.8709 160.424 47.5853 161.179 48.1009C161.966 48.6175 162.89 48.8801 163.829 48.8536C164.776 48.8733 165.708 48.6061 166.502 48.0868V48.1009Z" fill="white"/>
<path d="M189.024 54.6082C186.929 54.641 184.86 54.1322 183.019 53.1311C181.712 52.3815 180.567 51.3817 179.648 50.1889C178.729 48.9961 178.055 47.6337 177.664 46.18C177.273 44.7262 177.173 43.2097 177.37 41.7172C177.566 40.2248 178.056 38.7859 178.811 37.483C179.835 35.7864 181.285 34.3875 183.019 33.4255C184.862 32.4408 186.92 31.9256 189.01 31.9256C191.101 31.9256 193.159 32.4408 195.002 33.4255C196.726 34.3921 198.168 35.7904 199.187 37.483C199.966 38.7792 200.476 40.2191 200.686 41.7165C200.897 43.214 200.803 44.7385 200.41 46.1989C200.018 47.6593 199.335 49.0258 198.403 50.2168C197.471 51.4079 196.308 52.399 194.983 53.1311C193.157 54.1269 191.105 54.6356 189.024 54.6082ZM189.024 48.9213C189.983 48.9455 190.926 48.68 191.731 48.1597C192.492 47.6539 193.105 46.9544 193.505 46.1333C193.941 45.2399 194.16 44.256 194.143 43.2621C194.157 42.2819 193.938 41.3122 193.505 40.4326C193.105 39.6101 192.493 38.909 191.731 38.4015C190.926 37.8825 189.982 37.6187 189.024 37.6445C188.061 37.6215 187.112 37.885 186.299 38.4015C185.528 38.9054 184.908 39.6069 184.502 40.4326C184.072 41.3133 183.855 42.2825 183.869 43.2621C183.852 44.2554 184.069 45.2388 184.502 46.1333C184.908 46.9576 185.529 47.6576 186.299 48.1597C187.112 48.6779 188.06 48.9429 189.024 48.9213Z" fill="white"/>
<path d="M213.794 54.6082C211.626 54.6398 209.486 54.1311 207.581 53.1312C206.229 52.3822 205.044 51.3827 204.093 50.1899C203.142 48.9971 202.444 47.6346 202.04 46.1807C201.636 44.7268 201.534 43.2101 201.738 41.7177C201.943 40.2254 202.451 38.7868 203.233 37.4845C204.29 35.7883 205.789 34.3895 207.581 33.4275C209.482 32.4138 211.623 31.8968 213.794 31.9275C215.965 31.8909 218.108 32.4084 220.006 33.4275C221.789 34.394 223.281 35.7922 224.335 37.4845C225.142 38.7808 225.67 40.2208 225.887 41.7185C226.105 43.2161 226.007 44.7408 225.601 46.2013C225.195 47.6618 224.487 49.0282 223.522 50.2189C222.557 51.4096 221.353 52.4 219.982 53.1312C218.086 54.1321 215.954 54.641 213.794 54.6082ZM213.794 48.908C214.784 48.9321 215.758 48.6666 216.589 48.1464C217.377 47.6397 218.012 46.9406 218.429 46.1202C218.876 45.2258 219.101 44.2426 219.084 43.2493C219.097 42.2698 218.873 41.3007 218.429 40.42C218.012 39.5983 217.377 38.8977 216.589 38.3892C215.758 37.8703 214.783 37.6065 213.794 37.6322C212.797 37.6078 211.815 37.8714 210.974 38.3892C210.175 38.8909 209.533 39.5929 209.115 40.42C208.667 41.2996 208.441 42.2692 208.456 43.2493C208.438 44.2431 208.664 45.2269 209.115 46.1202C209.534 46.9457 210.176 47.646 210.974 48.1464C211.813 48.6705 212.795 48.9405 213.794 48.9218V48.908Z" fill="white"/>
<path d="M69.1653 40.1083C70.1041 38.5367 70.5878 36.7397 70.5634 34.9141C70.5984 32.9764 70.0683 31.0697 69.0364 29.4224C68.0429 27.8467 66.6406 26.5634 64.9756 25.7062C63.2318 24.8032 61.2889 24.3424 59.3209 24.3651H45.3679V54.6097H52.7023V45.4773H58.2472L63.4963 54.6097H72.2527L65.5005 43.834C67.004 42.8981 68.2604 41.6209 69.1653 40.1083ZM62.5944 37.3885C62.1789 38.0578 61.5799 38.5965 60.867 38.942C60.136 39.306 59.3279 39.4921 58.5097 39.485H52.7023V30.4093H58.5097C59.3213 30.4019 60.1229 30.5865 60.8479 30.9476C61.5531 31.3045 62.1482 31.8428 62.5705 32.5059C63.0252 33.239 63.254 34.0874 63.2291 34.9472C63.2524 35.8037 63.0325 36.6495 62.5944 37.3885Z" fill="white"/>
<path d="M90.0501 33.4256C88.2071 32.4409 86.1495 31.9256 84.0597 31.9256C81.9698 31.9256 79.9122 32.4409 78.0692 33.4256C76.3351 34.3862 74.8841 35.7855 73.8616 37.4833C73.082 38.7797 72.5719 40.2199 72.3618 41.7178C72.1516 43.2157 72.2458 44.7406 72.6385 46.2013C73.0313 47.6621 73.7146 49.0287 74.6477 50.2195C75.5808 51.4104 76.7444 52.401 78.0692 53.1323C79.9126 54.1026 81.9647 54.6097 84.0481 54.6097C86.1315 54.6097 88.1836 54.1026 90.027 53.1323C91.3342 52.3836 92.4804 51.3841 93.3999 50.1914C94.3194 48.9986 94.994 47.636 95.385 46.1818C95.776 44.7276 95.8757 43.2106 95.6783 41.7178C95.4808 40.225 94.9903 38.786 94.2347 37.4833C93.2159 35.7906 91.7737 34.3922 90.0501 33.4256ZM88.5491 46.1202C88.1458 46.9395 87.5342 47.6383 86.7755 48.1468C85.9706 48.6671 85.0272 48.9326 84.0689 48.9084C83.105 48.9312 82.1561 48.666 81.3439 48.1468C80.5725 47.6462 79.9515 46.9458 79.5472 46.1202C79.1125 45.2264 78.8957 44.2425 78.9144 43.2489C78.8988 42.269 79.1156 41.2992 79.5472 40.4192C79.9508 39.5919 80.5719 38.8898 81.3439 38.3881C82.1565 37.8702 83.1054 37.6066 84.0689 37.631C85.0268 37.6052 85.9702 37.869 86.7755 38.3881C87.5344 38.8982 88.146 39.5986 88.5491 40.4192C88.9807 41.2992 89.1975 42.269 89.1818 43.2489C89.2006 44.2425 88.9837 45.2264 88.5491 46.1202Z" fill="white"/>
<path d="M149.091 36.4978C148.212 35.0648 146.939 33.9021 145.416 33.1423C142.696 31.8977 139.623 31.5981 136.705 32.293C135.818 32.5146 134.962 32.84 134.155 33.2623C133.416 33.6527 132.739 34.1438 132.142 34.7208H132.057C131.482 34.1391 130.82 33.6472 130.092 33.2623C129.291 32.8416 128.441 32.5162 127.56 32.293C126.573 32.0449 125.556 31.9238 124.537 31.933C122.573 31.8822 120.626 32.3038 118.868 33.1607C118.067 33.567 117.33 34.0847 116.681 34.6977C114.459 32.8522 111.622 31.8669 108.707 31.9284C106.561 31.8955 104.444 32.4127 102.566 33.4284C100.794 34.3903 99.3098 35.7891 98.2627 37.4855C97.4654 38.7818 96.9437 40.2218 96.7288 41.7195C96.5138 43.2172 96.6101 44.7419 97.0118 46.2024C97.4135 47.663 98.1124 49.0294 99.0667 50.2201C100.021 51.4108 101.211 52.4013 102.566 53.1324C104.452 54.1027 106.552 54.6097 108.683 54.6097C110.815 54.6097 112.915 54.1027 114.801 53.1324C116.604 52.1704 118.105 50.7454 119.141 49.0112C120.176 47.2771 120.708 45.2995 120.677 43.292C120.677 42.955 120.677 42.6319 120.635 42.3042V41.5242C120.628 40.8501 120.807 40.1867 121.154 39.6041C121.506 39.0197 122.005 38.5333 122.605 38.1917C123.241 37.832 123.964 37.6425 124.7 37.6425C125.435 37.6425 126.158 37.832 126.795 38.1917C127.396 38.5377 127.9 39.0227 128.264 39.6041C128.63 40.1803 128.822 40.846 128.817 41.5242V44.829H135.515V41.5242C135.508 40.8501 135.688 40.1867 136.035 39.6041C136.386 39.0197 136.886 38.5333 137.485 38.1917C138.116 37.8209 138.841 37.6306 139.577 37.6425C140.31 37.6287 141.031 37.8192 141.656 38.1917C142.247 38.5427 142.742 39.027 143.101 39.6041C143.462 40.1822 143.65 40.8472 143.645 41.5242V54.111H150.386V41.2934C150.411 39.6093 149.964 37.9505 149.091 36.4978ZM113.294 46.1075C112.885 46.9286 112.258 47.6281 111.48 48.1338C110.657 48.6541 109.692 48.9195 108.712 48.8953C107.726 48.917 106.756 48.6519 105.925 48.1338C105.137 47.6317 104.502 46.9318 104.087 46.1075C103.645 45.2131 103.423 44.2298 103.44 43.2366C103.426 42.257 103.648 41.2879 104.087 40.4072C104.502 39.5816 105.137 38.8802 105.925 38.3764C106.757 37.8598 107.727 37.5964 108.712 37.6194C109.692 37.5936 110.656 37.8574 111.48 38.3764C112.259 38.8838 112.885 39.5848 113.294 40.4072C113.737 41.2868 113.96 42.2564 113.946 43.2366C113.963 44.2304 113.74 45.2142 113.294 46.1075Z" fill="white"/>
<path d="M136.104 48.7286H129.383V54.6097H136.104V48.7286Z" fill="white"/>
<path d="M28.7188 27.3247L16.3347 15.7001C15.9338 15.3288 15.4087 15.1227 14.8637 15.1227C14.3187 15.1227 13.7936 15.3288 13.3927 15.7001L0.705131 27.32C0.483133 27.5249 0.305834 27.7738 0.184457 28.0511C0.0630803 28.3284 0.000270722 28.6281 5.03256e-06 28.9311V54.106C-0.000609051 54.3925 0.0549815 54.6764 0.163596 54.9414C0.27221 55.2063 0.431715 55.4471 0.632977 55.65C0.83424 55.8529 1.07331 56.0138 1.33649 56.1236C1.59968 56.2334 1.88182 56.29 2.16675 56.29H27.2338C27.8097 56.29 28.362 56.0599 28.7692 55.6503C29.1764 55.2407 29.4052 54.6852 29.4052 54.106V28.917C29.4059 28.6183 29.3452 28.3228 29.2271 28.0488C29.109 27.7748 28.9359 27.5283 28.7188 27.3247ZM7.62098 54.1482C6.4671 54.1482 5.33911 53.8042 4.3795 53.1597C3.41989 52.5153 2.67172 51.5992 2.22952 50.5272C1.78731 49.4552 1.6709 48.2755 1.89499 47.137C2.11909 45.9985 2.67363 44.9524 3.48857 44.1308C4.30351 43.3091 5.34227 42.7489 6.47364 42.5207C7.60501 42.2926 8.77823 42.4069 9.84507 42.8491C10.9119 43.2913 11.8245 44.0416 12.4676 45.0052C13.1107 45.9688 13.4554 47.1025 13.4581 48.2631C13.46 49.0353 13.3103 49.8003 13.0178 50.5142C12.7253 51.2281 12.2956 51.877 11.7534 52.4237C11.2112 52.9703 10.5671 53.4041 9.858 53.7C9.14889 53.9959 8.3887 54.1482 7.62098 54.1482ZM7.62098 39.8981C6.46538 39.899 5.33547 39.5552 4.37417 38.9102C3.41288 38.2651 2.66339 37.3478 2.22052 36.2742C1.77765 35.2006 1.66129 34.0191 1.88617 32.879C2.11105 31.7389 2.66707 30.6915 3.48387 29.8693C4.30068 29.0471 5.34158 28.487 6.47491 28.2599C7.60824 28.0328 8.78307 28.1489 9.85079 28.5935C10.9185 29.0381 11.8312 29.7912 12.4733 30.7575C13.1154 31.7239 13.4581 32.8601 13.4581 34.0224C13.4581 35.5799 12.8433 37.0737 11.7487 38.1755C10.6542 39.2773 9.16952 39.8969 7.62098 39.8981ZM21.7936 54.1482C20.6391 54.1482 19.5105 53.8039 18.5506 53.1588C17.5907 52.5137 16.8425 51.5967 16.4007 50.5239C15.9589 49.4512 15.8434 48.2707 16.0686 47.1318C16.2938 45.993 16.8497 44.9469 17.6661 44.1258C18.4824 43.3047 19.5225 42.7455 20.6548 42.519C21.7871 42.2925 22.9607 42.4087 24.0273 42.8531C25.0939 43.2975 26.0056 44.05 26.647 45.0155C27.2884 45.9809 27.6307 47.116 27.6307 48.2772C27.6295 49.8347 27.0134 51.328 25.918 52.4289C24.8226 53.5298 23.3374 54.1482 21.7889 54.1482H21.7936Z" fill="white"/>
<path d="M21.8439 11.7621C25.0919 11.7621 27.725 9.12905 27.725 5.88104C27.725 2.63303 25.0919 0 21.8439 0C18.5959 0 15.9629 2.63303 15.9629 5.88104C15.9629 9.12905 18.5959 11.7621 21.8439 11.7621Z" fill="white"/>
</svg>
