<svg width="24" height="44" viewBox="0 0 24 44" fill="none" xmlns="http://www.w3.org/2000/svg">
<path d="M22.669 21.07L12.893 11.946C12.5785 11.653 12.1653 11.489 11.7355 11.4866C11.3057 11.4842 10.8907 11.6435 10.573 11.933L0.55896 21.067C0.383004 21.2272 0.242432 21.4224 0.146179 21.64C0.0499265 21.8577 0.000149685 22.093 0 22.331V42.089C0.000265115 42.5429 0.180736 42.9781 0.50177 43.2989C0.822804 43.6198 1.2581 43.8 1.71198 43.8H21.502C21.7266 43.8 21.9492 43.7557 22.1567 43.6698C22.3643 43.5838 22.553 43.4578 22.7119 43.2989C22.8707 43.14 22.9968 42.9514 23.0828 42.7438C23.1687 42.5362 23.213 42.3137 23.213 42.089V22.32C23.213 22.0855 23.1647 21.8534 23.0711 21.6384C22.9775 21.4233 22.8406 21.2298 22.669 21.07ZM6.01398 42.122C5.1027 42.1214 4.21205 41.8507 3.45459 41.3441C2.69713 40.8374 2.10686 40.1176 1.75836 39.2756C1.40986 38.4336 1.31873 37.5072 1.49658 36.6135C1.67444 35.7197 2.11327 34.8988 2.75757 34.2543C3.40187 33.6099 4.22274 33.1709 5.11646 32.9928C6.01017 32.8148 6.93661 32.9057 7.77869 33.254C8.62077 33.6023 9.34068 34.1924 9.84747 34.9498C10.3543 35.7071 10.6252 36.5977 10.626 37.509C10.6265 38.1148 10.5076 38.7147 10.2761 39.2745C10.0446 39.8343 9.70498 40.3429 9.27673 40.7713C8.84848 41.1998 8.33995 41.5396 7.78027 41.7713C7.22059 42.0031 6.61974 42.1223 6.01398 42.122ZM6.01398 30.937C5.10253 30.9364 4.21171 30.6656 3.45416 30.1588C2.69661 29.652 2.10632 28.9319 1.75793 28.0897C1.40955 27.2475 1.31871 26.3208 1.49689 25.427C1.67507 24.5331 2.11427 23.7122 2.75897 23.0679C3.40367 22.4236 4.22492 21.9849 5.1189 21.8073C6.01287 21.6297 6.93942 21.7212 7.78143 22.0701C8.62344 22.4191 9.34311 23.0098 9.84943 23.7677C10.3557 24.5256 10.626 25.4166 10.626 26.328C10.626 26.9334 10.5067 27.5329 10.275 28.0923C10.0432 28.6516 9.70353 29.1597 9.27533 29.5877C8.84713 30.0158 8.33878 30.3552 7.77936 30.5867C7.21994 30.8182 6.61941 30.9373 6.01398 30.937ZM17.199 42.122C16.2874 42.122 15.3963 41.8517 14.6384 41.3453C13.8804 40.8388 13.2896 40.119 12.9408 39.2768C12.592 38.4346 12.5007 37.5079 12.6785 36.6138C12.8564 35.7198 13.2954 34.8985 13.9399 34.2539C14.5845 33.6094 15.4057 33.1704 16.2998 32.9926C17.1939 32.8147 18.1206 32.906 18.9628 33.2548C19.805 33.6037 20.5248 34.1944 21.0312 34.9524C21.5377 35.7103 21.808 36.6014 21.808 37.513C21.808 38.7352 21.3225 39.9074 20.4584 40.7717C19.5942 41.636 18.4212 42.1217 17.199 42.122Z" fill="#1E9ED9"/>
<path d="M17.1998 9.218C19.7453 9.218 21.8088 7.15448 21.8088 4.609C21.8088 2.06352 19.7453 0 17.1998 0C14.6543 0 12.5908 2.06352 12.5908 4.609C12.5908 7.15448 14.6543 9.218 17.1998 9.218Z" fill="#1E9ED9"/>
</svg>
